BusraRef-Regular.ufo
<glyph name="two" format="2">
  <advance width="1078"/>
  <unicode hex="0032"/>
  <outline>
    <contour>
      <point x="928" y="0" type="line"/>
      <point x="1029" y="277" type="line"/>
      <point x="977" y="277" type="line"/>
      <point x="928" y="183"/>
      <point x="831" y="161"/>
      <point x="745" y="161" type="curve" smooth="yes"/>
      <point x="303" y="161" type="line"/>
      <point x="595" y="464" type="line" smooth="yes"/>
      <point x="767" y="644"/>
      <point x="936" y="853"/>
      <point x="936" y="1075" type="curve" smooth="yes"/>
      <point x="936" y="1287"/>
      <point x="794" y="1471"/>
      <point x="524" y="1471" type="curve" smooth="yes"/>
      <point x="310" y="1471"/>
      <point x="120" y="1280"/>
      <point x="104" y="1040" type="curve"/>
      <point x="142" y="1040" type="line"/>
      <point x="164" y="1187"/>
      <point x="310" y="1302"/>
      <point x="457" y="1302" type="curve" smooth="yes"/>
      <point x="644" y="1302"/>
      <point x="741" y="1142"/>
      <point x="741" y="969" type="curve" smooth="yes"/>
      <point x="741" y="794"/>
      <point x="652" y="643"/>
      <point x="524" y="509" type="curve" smooth="yes"/>
      <point x="71" y="37" type="line"/>
      <point x="71" y="0" type="line"/>
    </contour>
  </outline>
</glyph>
<glyph name="H" format="2">
  <advance width="1587"/>
  <unicode hex="0048"/>
  <outline>
    <contour>
      <point x="1123" y="711" type="line"/>
      <point x="1123" y="229" type="line" smooth="yes"/>
      <point x="1123" y="75"/>
      <point x="1067" y="37"/>
      <point x="921" y="37" type="curve"/>
      <point x="921" y="0" type="line"/>
      <point x="1545" y="0" type="line"/>
      <point x="1545" y="37" type="line"/>
      <point x="1396" y="37"/>
      <point x="1343" y="75"/>
      <point x="1343" y="229" type="curve" smooth="yes"/>
      <point x="1343" y="1209" type="line" smooth="yes"/>
      <point x="1343" y="1362"/>
      <point x="1396" y="1400"/>
      <point x="1545" y="1400" type="curve"/>
      <point x="1545" y="1437" type="line"/>
      <point x="921" y="1437" type="line"/>
      <point x="921" y="1400" type="line"/>
      <point x="1067" y="1400"/>
      <point x="1123" y="1362"/>
      <point x="1123" y="1209" type="curve" smooth="yes"/>
      <point x="1123" y="782" type="line"/>
      <point x="464" y="782" type="line"/>
      <point x="464" y="1209" type="line" smooth="yes"/>
      <point x="464" y="1362"/>
      <point x="520" y="1400"/>
      <point x="666" y="1400" type="curve"/>
      <point x="666" y="1437" type="line"/>
      <point x="41" y="1437" type="line"/>
      <point x="41" y="1400" type="line"/>
      <point x="191" y="1400"/>
      <point x="247" y="1362"/>
      <point x="247" y="1209" type="curve" smooth="yes"/>
      <point x="247" y="229" type="line" smooth="yes"/>
      <point x="247" y="75"/>
      <point x="191" y="37"/>
      <point x="41" y="37" type="curve"/>
      <point x="41" y="0" type="line"/>
      <point x="666" y="0" type="line"/>
      <point x="666" y="37" type="line"/>
      <point x="520" y="37"/>
      <point x="464" y="75"/>
      <point x="464" y="229" type="curve" smooth="yes"/>
      <point x="464" y="711" type="line"/>
    </contour>
  </outline>
</glyph>
<glyph name="M" format="2">
  <advance width="1957"/>
  <unicode hex="004D"/>
  <outline>
    <contour>
      <point x="247" y="229" type="line" smooth="yes"/>
      <point x="247" y="75"/>
      <point x="191" y="37"/>
      <point x="41" y="37" type="curve"/>
      <point x="41" y="0" type="line"/>
      <point x="547" y="0" type="line"/>
      <point x="547" y="37" type="line"/>
      <point x="397" y="37"/>
      <point x="341" y="75"/>
      <point x="341" y="229" type="curve" smooth="yes"/>
      <point x="341" y="1168" type="line"/>
      <point x="356" y="1168" type="line"/>
      <point x="902" y="0" type="line"/>
      <point x="944" y="0" type="line"/>
      <point x="1478" y="1179" type="line"/>
      <point x="1489" y="1179" type="line"/>
      <point x="1489" y="229" type="line" smooth="yes"/>
      <point x="1489" y="75"/>
      <point x="1433" y="37"/>
      <point x="1283" y="37" type="curve"/>
      <point x="1283" y="0" type="line"/>
      <point x="1909" y="0" type="line"/>
      <point x="1909" y="37" type="line"/>
      <point x="1763" y="37"/>
      <point x="1707" y="75"/>
      <point x="1707" y="229" type="curve" smooth="yes"/>
      <point x="1707" y="1209" type="line" smooth="yes"/>
      <point x="1707" y="1362"/>
      <point x="1763" y="1400"/>
      <point x="1909" y="1400" type="curve"/>
      <point x="1909" y="1437" type="line"/>
      <point x="1489" y="1437" type="line"/>
      <point x="988" y="333" type="line"/>
      <point x="977" y="333" type="line"/>
      <point x="468" y="1437" type="line"/>
      <point x="41" y="1437" type="line"/>
      <point x="41" y="1400" type="line"/>
      <point x="191" y="1400"/>
      <point x="247" y="1362"/>
      <point x="247" y="1209" type="curve" smooth="yes"/>
    </contour>
  </outline>
</glyph>
<glyph name="underscore" format="2">
  <advance width="1225"/>
  <unicode hex="005F"/>
  <outline>
    <contour>
      <point x="0" y="-37" type="line"/>
      <point x="0" y="-154" type="line"/>
      <point x="1225" y="-154" type="line"/>
      <point x="1225" y="-37" type="line"/>
    </contour>
  </outline>
</glyph>
<glyph name="q" format="2">
  <advance width="1081"/>
  <unicode hex="0071"/>
  <outline>
    <contour>
      <point x="738" y="-183" type="line"/>
      <point x="738" y="-318"/>
      <point x="711" y="-370"/>
      <point x="584" y="-370" type="curve"/>
      <point x="584" y="-412" type="line"/>
      <point x="1063" y="-412" type="line"/>
      <point x="1063" y="-370" type="line"/>
      <point x="936" y="-370"/>
      <point x="909" y="-322"/>
      <point x="909" y="-183" type="curve" smooth="yes"/>
      <point x="909" y="992" type="line"/>
      <point x="869" y="992" type="line"/>
      <point x="738" y="921" type="line"/>
      <point x="707" y="958"/>
      <point x="625" y="992"/>
      <point x="551" y="992" type="curve" smooth="yes"/>
      <point x="285" y="992"/>
      <point x="67" y="745"/>
      <point x="67" y="438" type="curve" smooth="yes"/>
      <point x="67" y="183"/>
      <point x="225" y="-23"/>
      <point x="420" y="-23" type="curve" smooth="yes"/>
      <point x="576" y="-23"/>
      <point x="666" y="67"/>
      <point x="738" y="154" type="curve"/>
    </contour>
    <contour>
      <point x="738" y="247" type="line"/>
      <point x="707" y="195"/>
      <point x="618" y="127"/>
      <point x="513" y="127" type="curve" smooth="yes"/>
      <point x="366" y="127"/>
      <point x="251" y="310"/>
      <point x="251" y="539" type="curve" smooth="yes"/>
      <point x="251" y="749"/>
      <point x="374" y="921"/>
      <point x="528" y="921" type="curve" smooth="yes"/>
      <point x="624" y="921"/>
      <point x="738" y="841"/>
      <point x="738" y="738" type="curve" smooth="yes"/>
    </contour>
  </outline>
</glyph>
<glyph name="sterling" format="2">
  <advance width="1119"/>
  <unicode hex="00A3"/>
  <outline>
    <contour>
      <point x="90" y="730" type="line"/>
      <point x="307" y="730" type="line"/>
      <point x="320" y="629"/>
      <point x="329" y="532"/>
      <point x="329" y="440" type="curve" smooth="yes"/>
      <point x="329" y="382"/>
      <point x="325" y="325"/>
      <point x="318" y="270" type="curve"/>
      <point x="289" y="270"/>
      <point x="258" y="281"/>
      <point x="232" y="281" type="curve" smooth="yes"/>
      <point x="120" y="281"/>
      <point x="41" y="206"/>
      <point x="41" y="108" type="curve" smooth="yes"/>
      <point x="41" y="30"/>
      <point x="104" y="-33"/>
      <point x="176" y="-33" type="curve" smooth="yes"/>
      <point x="270" y="-33"/>
      <point x="341" y="45"/>
      <point x="382" y="142" type="curve"/>
      <point x="468" y="45"/>
      <point x="591" y="-33"/>
      <point x="734" y="-33" type="curve" smooth="yes"/>
      <point x="940" y="-33"/>
      <point x="1040" y="150"/>
      <point x="1059" y="322" type="curve"/>
      <point x="1021" y="329" type="line"/>
      <point x="988" y="214"/>
      <point x="909" y="161"/>
      <point x="782" y="161" type="curve" smooth="yes"/>
      <point x="659" y="161"/>
      <point x="535" y="191"/>
      <point x="426" y="247" type="curve"/>
      <point x="472" y="370"/>
      <point x="497" y="494"/>
      <point x="497" y="628" type="curve"/>
      <point x="497" y="730" type="line"/>
      <point x="782" y="730" type="line"/>
      <point x="778" y="801" type="line"/>
      <point x="494" y="801" type="line"/>
      <point x="479" y="909"/>
      <point x="468" y="1059"/>
      <point x="468" y="1104" type="curve" smooth="yes"/>
      <point x="468" y="1243"/>
      <point x="491" y="1407"/>
      <point x="670" y="1407" type="curve" smooth="yes"/>
      <point x="756" y="1407"/>
      <point x="801" y="1366"/>
      <point x="805" y="1295" type="curve"/>
      <point x="805" y="1202"/>
      <point x="838" y="1168"/>
      <point x="890" y="1168" type="curve" smooth="yes"/>
      <point x="940" y="1168"/>
      <point x="977" y="1216"/>
      <point x="977" y="1258" type="curve" smooth="yes"/>
      <point x="977" y="1343"/>
      <point x="887" y="1471"/>
      <point x="700" y="1471" type="curve" smooth="yes"/>
      <point x="416" y="1471"/>
      <point x="285" y="1239"/>
      <point x="285" y="992" type="curve" smooth="yes"/>
      <point x="285" y="925"/>
      <point x="289" y="865"/>
      <point x="295" y="801" type="curve"/>
      <point x="90" y="801" type="line"/>
    </contour>
    <contour>
      <point x="310" y="183" type="curve"/>
      <point x="292" y="116"/>
      <point x="251" y="30"/>
      <point x="179" y="30" type="curve" smooth="yes"/>
      <point x="135" y="30"/>
      <point x="108" y="71"/>
      <point x="108" y="120" type="curve" smooth="yes"/>
      <point x="108" y="172"/>
      <point x="150" y="210"/>
      <point x="214" y="210" type="curve" smooth="yes"/>
      <point x="251" y="210"/>
      <point x="281" y="202"/>
    </contour>
  </outline>
</glyph>
<glyph name="plusminus" format="2">
  <advance width="1269"/>
  <unicode hex="00B1"/>
  <outline>
    <contour>
      <point x="90" y="221" type="line"/>
      <point x="1179" y="221" type="line"/>
      <point x="1179" y="310" type="line"/>
      <point x="682" y="310" type="line"/>
      <point x="682" y="711" type="line"/>
      <point x="1179" y="711" type="line"/>
      <point x="1179" y="797" type="line"/>
      <point x="682" y="797" type="line"/>
      <point x="682" y="1280" type="line"/>
      <point x="588" y="1280" type="line"/>
      <point x="588" y="797" type="line"/>
      <point x="90" y="797" type="line"/>
      <point x="90" y="711" type="line"/>
      <point x="588" y="711" type="line"/>
      <point x="588" y="310" type="line"/>
      <point x="90" y="310" type="line"/>
    </contour>
  </outline>
</glyph>
<glyph name="acute" format="2">
  <advance width="426"/>
  <unicode hex="00B4"/>
  <outline>
    <contour>
      <point x="401" y="1471" type="line"/>
      <point x="135" y="1471" type="line"/>
      <point x="23" y="1096" type="line"/>
      <point x="79" y="1096" type="line"/>
    </contour>
  </outline>
</glyph>
<glyph name="cedilla" format="2">
  <advance width="947"/>
  <unicode hex="00B8"/>
  <outline>
    <contour>
      <point x="468" y="0" type="line"/>
      <point x="420" y="-19"/>
      <point x="341" y="-120"/>
      <point x="307" y="-187" type="curve"/>
      <point x="366" y="-191"/>
      <point x="426" y="-225"/>
      <point x="426" y="-281" type="curve" smooth="yes"/>
      <point x="426" y="-326"/>
      <point x="366" y="-378"/>
      <point x="318" y="-378" type="curve" smooth="yes"/>
      <point x="270" y="-378"/>
      <point x="239" y="-366"/>
      <point x="221" y="-352" type="curve"/>
      <point x="198" y="-385" type="line"/>
      <point x="221" y="-412"/>
      <point x="295" y="-441"/>
      <point x="345" y="-441" type="curve" smooth="yes"/>
      <point x="543" y="-441"/>
      <point x="580" y="-329"/>
      <point x="580" y="-247" type="curve" smooth="yes"/>
      <point x="580" y="-179"/>
      <point x="479" y="-131"/>
      <point x="426" y="-127" type="curve"/>
      <point x="449" y="-86"/>
      <point x="524" y="-15"/>
      <point x="576" y="0" type="curve"/>
    </contour>
  </outline>
</glyph>
<glyph name="germandbls" format="2">
  <advance width="1206"/>
  <unicode hex="00DF"/>
  <outline>
    <contour>
      <point x="457" y="0" type="line"/>
      <point x="457" y="37" type="line"/>
      <point x="412" y="37"/>
      <point x="401" y="101"/>
      <point x="401" y="135" type="curve"/>
      <point x="401" y="1216" type="line"/>
      <point x="401" y="1318"/>
      <point x="472" y="1400"/>
      <point x="547" y="1400" type="curve" smooth="yes"/>
      <point x="745" y="1400"/>
      <point x="790" y="1164"/>
      <point x="790" y="1096" type="curve" smooth="yes"/>
      <point x="790" y="1029"/>
      <point x="786" y="822"/>
      <point x="655" y="801" type="curve"/>
      <point x="655" y="749" type="line"/>
      <point x="749" y="738"/>
      <point x="954" y="595"/>
      <point x="954" y="322" type="curve" smooth="yes"/>
      <point x="954" y="120"/>
      <point x="894" y="56"/>
      <point x="805" y="56" type="curve" smooth="yes"/>
      <point x="707" y="56"/>
      <point x="603" y="176"/>
      <point x="580" y="337" type="curve"/>
      <point x="539" y="337" type="line"/>
      <point x="539" y="0" type="line"/>
      <point x="580" y="0" type="line"/>
      <point x="584" y="15"/>
      <point x="603" y="27"/>
      <point x="625" y="27" type="curve" smooth="yes"/>
      <point x="678" y="27"/>
      <point x="722" y="-19"/>
      <point x="801" y="-19" type="curve" smooth="yes"/>
      <point x="1021" y="-19"/>
      <point x="1138" y="150"/>
      <point x="1138" y="374" type="curve" smooth="yes"/>
      <point x="1138" y="696"/>
      <point x="954" y="756"/>
      <point x="775" y="794" type="curve"/>
      <point x="932" y="872"/>
      <point x="977" y="1007"/>
      <point x="977" y="1145" type="curve" smooth="yes"/>
      <point x="977" y="1377"/>
      <point x="786" y="1471"/>
      <point x="554" y="1471" type="curve" smooth="yes"/>
      <point x="370" y="1471"/>
      <point x="225" y="1314"/>
      <point x="225" y="1115" type="curve" smooth="yes"/>
      <point x="225" y="225" type="line" smooth="yes"/>
      <point x="225" y="90"/>
      <point x="202" y="37"/>
      <point x="71" y="37" type="curve"/>
      <point x="71" y="0" type="line"/>
    </contour>
  </outline>
</glyph>
<glyph name="uni0114" format="2">
  <advance width="1324"/>
  <unicode hex="0114"/>
  <outline>
    <contour>
      <point x="41" y="1440" type="line"/>
      <point x="41" y="1402" type="line"/>
      <point x="191" y="1402"/>
      <point x="247" y="1365"/>
      <point x="247" y="1211" type="curve" smooth="yes"/>
      <point x="247" y="229" type="line" smooth="yes"/>
      <point x="247" y="75"/>
      <point x="191" y="37"/>
      <point x="41" y="37" type="curve"/>
      <point x="41" y="0" type="line"/>
      <point x="1155" y="0" type="line"/>
      <point x="1286" y="405" type="line"/>
      <point x="1234" y="405" type="line"/>
      <point x="1177" y="221"/>
      <point x="1054" y="71"/>
      <point x="851" y="71" type="curve" smooth="yes"/>
      <point x="551" y="71" type="line" smooth="yes"/>
      <point x="502" y="71"/>
      <point x="469" y="112"/>
      <point x="465" y="161" type="curve"/>
      <point x="465" y="750" type="line"/>
      <point x="780" y="750" type="line" smooth="yes"/>
      <point x="896" y="750"/>
      <point x="994" y="694"/>
      <point x="994" y="521" type="curve"/>
      <point x="1031" y="521" type="line"/>
      <point x="1031" y="1009" type="line"/>
      <point x="994" y="1009" type="line"/>
      <point x="994" y="870"/>
      <point x="896" y="821"/>
      <point x="776" y="821" type="curve" smooth="yes"/>
      <point x="465" y="821" type="line"/>
      <point x="465" y="1369" type="line"/>
      <point x="829" y="1369" type="line" smooth="yes"/>
      <point x="1020" y="1369"/>
      <point x="1091" y="1271"/>
      <point x="1125" y="1099" type="curve"/>
      <point x="1166" y="1099" type="line"/>
      <point x="1147" y="1440" type="line"/>
    </contour>
    <contour>
      <point x="908" y="1798" type="line"/>
      <point x="886" y="1742"/>
      <point x="781" y="1657"/>
      <point x="631" y="1657" type="curve" smooth="yes"/>
      <point x="482" y="1657"/>
      <point x="376" y="1742"/>
      <point x="354" y="1798" type="curve"/>
      <point x="316" y="1798" type="line"/>
      <point x="335" y="1704"/>
      <point x="426" y="1530"/>
      <point x="631" y="1530" type="curve" smooth="yes"/>
      <point x="837" y="1530"/>
      <point x="923" y="1704"/>
      <point x="942" y="1798" type="curve"/>
    </contour>
  </outline>
</glyph>
<glyph name="uni0244" format="2">
  <advance width="1593"/>
  <unicode hex="0244"/>
  <outline>
    <contour>
      <point x="240" y="510" type="line" smooth="yes"/>
      <point x="240" y="211"/>
      <point x="434" y="-35"/>
      <point x="795" y="-35" type="curve" smooth="yes"/>
      <point x="1204" y="-35"/>
      <point x="1368" y="211"/>
      <point x="1368" y="506" type="curve" smooth="yes"/>
      <point x="1368" y="1210" type="line" smooth="yes"/>
      <point x="1368" y="1366"/>
      <point x="1425" y="1403"/>
      <point x="1575" y="1403" type="curve"/>
      <point x="1575" y="1440" type="line"/>
      <point x="1069" y="1440" type="line"/>
      <point x="1069" y="1403" type="line"/>
      <point x="1219" y="1403"/>
      <point x="1272" y="1366"/>
      <point x="1272" y="1210" type="curve" smooth="yes"/>
      <point x="1272" y="506" type="line" smooth="yes"/>
      <point x="1272" y="258"/>
      <point x="1116" y="59"/>
      <point x="866" y="59" type="curve" smooth="yes"/>
      <point x="618" y="59"/>
      <point x="461" y="258"/>
      <point x="461" y="506" type="curve" smooth="yes"/>
      <point x="461" y="1210" type="line" smooth="yes"/>
      <point x="461" y="1366"/>
      <point x="514" y="1403"/>
      <point x="664" y="1403" type="curve"/>
      <point x="664" y="1440" type="line"/>
      <point x="37" y="1440" type="line"/>
      <point x="37" y="1403" type="line"/>
      <point x="184" y="1403"/>
      <point x="240" y="1366"/>
      <point x="240" y="1210" type="curve" smooth="yes"/>
    </contour>
    <contour>
      <point x="88" y="696" type="line"/>
      <point x="88" y="573" type="line"/>
      <point x="1532" y="573" type="line"/>
      <point x="1532" y="696" type="line"/>
    </contour>
  </outline>
</glyph>
<glyph name="uni0256" format="2">
  <advance width="1078"/>
  <unicode hex="0256"/>
  <outline>
    <contour>
      <point x="909" y="1471" type="line"/>
      <point x="857" y="1471" type="line"/>
      <point x="569" y="1343" type="line"/>
      <point x="584" y="1302" type="line"/>
      <point x="622" y="1314"/>
      <point x="647" y="1321"/>
      <point x="670" y="1321" type="curve" smooth="yes"/>
      <point x="734" y="1321"/>
      <point x="734" y="1273"/>
      <point x="734" y="1164" type="curve" smooth="yes"/>
      <point x="734" y="902" type="line"/>
      <point x="682" y="954"/>
      <point x="618" y="992"/>
      <point x="532" y="992" type="curve" smooth="yes"/>
      <point x="277" y="992"/>
      <point x="67" y="738"/>
      <point x="67" y="472" type="curve" smooth="yes"/>
      <point x="67" y="206"/>
      <point x="235" y="-23"/>
      <point x="441" y="-23" type="curve" smooth="yes"/>
      <point x="543" y="-23"/>
      <point x="651" y="23"/>
      <point x="734" y="94" type="curve"/>
      <point x="734" y="-94" type="line"/>
      <point x="734" y="-292"/>
      <point x="880" y="-449"/>
      <point x="1063" y="-449" type="curve" smooth="yes"/>
      <point x="1239" y="-449"/>
      <point x="1374" y="-397"/>
      <point x="1374" y="-277" type="curve" smooth="yes"/>
      <point x="1374" y="-221"/>
      <point x="1337" y="-195"/>
      <point x="1287" y="-195" type="curve" smooth="yes"/>
      <point x="1156" y="-195"/>
      <point x="1198" y="-378"/>
      <point x="1056" y="-378" type="curve" smooth="yes"/>
      <point x="981" y="-378"/>
      <point x="909" y="-295"/>
      <point x="909" y="-195" type="curve" smooth="yes"/>
    </contour>
    <contour>
      <point x="734" y="183" type="line"/>
      <point x="688" y="131"/>
      <point x="614" y="86"/>
      <point x="543" y="86" type="curve" smooth="yes"/>
      <point x="385" y="86"/>
      <point x="262" y="285"/>
      <point x="262" y="528" type="curve" smooth="yes"/>
      <point x="262" y="759"/>
      <point x="374" y="921"/>
      <point x="513" y="921" type="curve" smooth="yes"/>
      <point x="622" y="921"/>
      <point x="734" y="816"/>
      <point x="734" y="663" type="curve" smooth="yes"/>
    </contour>
  </outline>
</glyph>
<glyph name="uni0261" format="2">
  <advance width="1078"/>
  <unicode hex="0261"/>
  <outline>
    <contour>
      <point x="909" y="1011" type="line"/>
      <point x="734" y="932" type="line"/>
      <point x="734" y="902" type="line"/>
      <point x="682" y="954"/>
      <point x="618" y="992"/>
      <point x="532" y="992" type="curve" smooth="yes"/>
      <point x="277" y="992"/>
      <point x="67" y="738"/>
      <point x="67" y="472" type="curve" smooth="yes"/>
      <point x="67" y="206"/>
      <point x="235" y="-23"/>
      <point x="441" y="-23" type="curve" smooth="yes"/>
      <point x="543" y="-23"/>
      <point x="651" y="23"/>
      <point x="734" y="94" type="curve"/>
      <point x="734" y="-41" type="line"/>
      <point x="734" y="-229"/>
      <point x="678" y="-360"/>
      <point x="516" y="-360" type="curve" smooth="yes"/>
      <point x="378" y="-360"/>
      <point x="329" y="-292"/>
      <point x="329" y="-198" type="curve" smooth="yes"/>
      <point x="329" y="-146"/>
      <point x="289" y="-90"/>
      <point x="229" y="-90" type="curve" smooth="yes"/>
      <point x="168" y="-90"/>
      <point x="108" y="-139"/>
      <point x="108" y="-198" type="curve" smooth="yes"/>
      <point x="108" y="-329"/>
      <point x="251" y="-449"/>
      <point x="449" y="-449" type="curve" smooth="yes"/>
      <point x="703" y="-449"/>
      <point x="909" y="-307"/>
      <point x="909" y="-11" type="curve" smooth="yes"/>
    </contour>
    <contour>
      <point x="734" y="183" type="line"/>
      <point x="688" y="131"/>
      <point x="614" y="86"/>
      <point x="543" y="86" type="curve" smooth="yes"/>
      <point x="385" y="86"/>
      <point x="262" y="285"/>
      <point x="262" y="528" type="curve" smooth="yes"/>
      <point x="262" y="759"/>
      <point x="374" y="921"/>
      <point x="513" y="921" type="curve" smooth="yes"/>
      <point x="622" y="921"/>
      <point x="734" y="816"/>
      <point x="734" y="663" type="curve" smooth="yes"/>
    </contour>
  </outline>
</glyph>
<glyph name="uni026D" format="2">
  <advance width="584"/>
  <unicode hex="026D"/>
  <outline>
    <contour>
      <point x="382" y="225" type="line"/>
      <point x="382" y="1471" type="line"/>
      <point x="333" y="1471" type="line"/>
      <point x="41" y="1343" type="line"/>
      <point x="56" y="1302" type="line"/>
      <point x="94" y="1314"/>
      <point x="123" y="1321"/>
      <point x="142" y="1321" type="curve" smooth="yes"/>
      <point x="206" y="1321"/>
      <point x="206" y="1273"/>
      <point x="206" y="1164" type="curve" smooth="yes"/>
      <point x="206" y="-94" type="line" smooth="yes"/>
      <point x="206" y="-292"/>
      <point x="352" y="-449"/>
      <point x="535" y="-449" type="curve" smooth="yes"/>
      <point x="711" y="-449"/>
      <point x="846" y="-397"/>
      <point x="846" y="-277" type="curve" smooth="yes"/>
      <point x="846" y="-221"/>
      <point x="809" y="-195"/>
      <point x="759" y="-195" type="curve" smooth="yes"/>
      <point x="628" y="-195"/>
      <point x="670" y="-378"/>
      <point x="528" y="-378" type="curve" smooth="yes"/>
      <point x="453" y="-378"/>
      <point x="382" y="-295"/>
      <point x="382" y="-195" type="curve" smooth="yes"/>
    </contour>
  </outline>
</glyph>
<glyph name="uni028E" format="2">
  <advance width="1085"/>
  <unicode hex="028E"/>
  <outline>
    <contour>
      <point x="535" y="921" type="line"/>
      <point x="595" y="1071" type="line" smooth="yes"/>
      <point x="622" y="1139"/>
      <point x="663" y="1243"/>
      <point x="734" y="1243" type="curve" smooth="yes"/>
      <point x="805" y="1243"/>
      <point x="794" y="1206"/>
      <point x="876" y="1206" type="curve" smooth="yes"/>
      <point x="954" y="1206"/>
      <point x="981" y="1250"/>
      <point x="981" y="1314" type="curve" smooth="yes"/>
      <point x="981" y="1370"/>
      <point x="917" y="1418"/>
      <point x="842" y="1418" type="curve" smooth="yes"/>
      <point x="730" y="1418"/>
      <point x="607" y="1314"/>
      <point x="543" y="1160" type="curve" smooth="yes"/>
      <point x="150" y="206" type="line" smooth="yes"/>
      <point x="100" y="84"/>
      <point x="83" y="37"/>
      <point x="0" y="37" type="curve"/>
      <point x="0" y="0" type="line"/>
      <point x="314" y="0" type="line"/>
      <point x="314" y="37" type="line"/>
      <point x="248" y="37"/>
      <point x="218" y="54"/>
      <point x="218" y="98" type="curve" smooth="yes"/>
      <point x="218" y="123"/>
      <point x="229" y="156"/>
      <point x="247" y="202" type="curve" smooth="yes"/>
      <point x="445" y="696" type="line"/>
      <point x="636" y="299" type="line" smooth="yes"/>
      <point x="670" y="229"/>
      <point x="711" y="161"/>
      <point x="711" y="112" type="curve" smooth="yes"/>
      <point x="711" y="75"/>
      <point x="700" y="37"/>
      <point x="607" y="37" type="curve"/>
      <point x="607" y="0" type="line"/>
      <point x="1052" y="0" type="line"/>
      <point x="1052" y="37" type="line"/>
      <point x="984" y="37"/>
      <point x="917" y="112"/>
      <point x="834" y="289" type="curve" smooth="yes"/>
    </contour>
  </outline>
</glyph>
<glyph name="uni0295" format="2">
  <advance width="909"/>
  <unicode hex="0295"/>
  <outline>
    <contour>
      <point x="569" y="225" type="curve" smooth="yes"/>
      <point x="569" y="603"/>
      <point x="285" y="775"/>
      <point x="285" y="1115" type="curve" smooth="yes"/>
      <point x="285" y="1299"/>
      <point x="382" y="1393"/>
      <point x="524" y="1393" type="curve" smooth="yes"/>
      <point x="628" y="1393"/>
      <point x="722" y="1343"/>
      <point x="722" y="1273" type="curve" smooth="yes"/>
      <point x="722" y="1206"/>
      <point x="655" y="1157"/>
      <point x="655" y="1089" type="curve"/>
      <point x="655" y="1033"/>
      <point x="692" y="1003"/>
      <point x="738" y="1003" type="curve" smooth="yes"/>
      <point x="805" y="1003"/>
      <point x="857" y="1056"/>
      <point x="857" y="1149" type="curve" smooth="yes"/>
      <point x="857" y="1370"/>
      <point x="644" y="1471"/>
      <point x="472" y="1471" type="curve" smooth="yes"/>
      <point x="235" y="1471"/>
      <point x="67" y="1343"/>
      <point x="67" y="1131" type="curve" smooth="yes"/>
      <point x="67" y="778"/>
      <point x="432" y="636"/>
      <point x="432" y="221" type="curve"/>
      <point x="432" y="86"/>
      <point x="404" y="37"/>
      <point x="277" y="37" type="curve"/>
      <point x="277" y="0" type="line"/>
      <point x="719" y="0" type="line"/>
      <point x="719" y="37" type="line"/>
      <point x="591" y="37"/>
      <point x="569" y="90"/>
    </contour>
  </outline>
</glyph>
<glyph name="uni02A2" format="2">
  <advance width="909"/>
  <unicode hex="02A2"/>
  <outline>
    <contour>
      <point x="161" y="412" type="line"/>
      <point x="404" y="412" type="line"/>
      <point x="421" y="354"/>
      <point x="432" y="292"/>
      <point x="432" y="221" type="curve" smooth="yes"/>
      <point x="432" y="86"/>
      <point x="404" y="37"/>
      <point x="277" y="37" type="curve"/>
      <point x="277" y="0" type="line"/>
      <point x="719" y="0" type="line"/>
      <point x="719" y="37" type="line"/>
      <point x="591" y="37"/>
      <point x="569" y="90"/>
      <point x="569" y="225" type="curve" smooth="yes"/>
      <point x="569" y="293"/>
      <point x="559" y="355"/>
      <point x="544" y="412" type="curve"/>
      <point x="749" y="412" type="line"/>
      <point x="749" y="551" type="line"/>
      <point x="494" y="551" type="line"/>
      <point x="410" y="738"/>
      <point x="285" y="889"/>
      <point x="285" y="1115" type="curve" smooth="yes"/>
      <point x="285" y="1299"/>
      <point x="382" y="1393"/>
      <point x="524" y="1393" type="curve" smooth="yes"/>
      <point x="628" y="1393"/>
      <point x="722" y="1343"/>
      <point x="722" y="1273" type="curve" smooth="yes"/>
      <point x="722" y="1206"/>
      <point x="655" y="1157"/>
      <point x="655" y="1089" type="curve"/>
      <point x="655" y="1033"/>
      <point x="692" y="1003"/>
      <point x="738" y="1003" type="curve" smooth="yes"/>
      <point x="805" y="1003"/>
      <point x="857" y="1056"/>
      <point x="857" y="1149" type="curve" smooth="yes"/>
      <point x="857" y="1370"/>
      <point x="644" y="1471"/>
      <point x="472" y="1471" type="curve" smooth="yes"/>
      <point x="235" y="1471"/>
      <point x="67" y="1343"/>
      <point x="67" y="1131" type="curve" smooth="yes"/>
      <point x="67" y="891"/>
      <point x="236" y="748"/>
      <point x="344" y="551" type="curve"/>
      <point x="161" y="551" type="line"/>
    </contour>
  </outline>
</glyph>
<glyph name="uni02B2" format="2">
  <advance width="389"/>
  <unicode hex="02B2"/>
  <outline>
    <contour>
      <point x="198" y="1765" type="curve" smooth="yes"/>
      <point x="164" y="1765"/>
      <point x="133" y="1735"/>
      <point x="133" y="1699" type="curve" smooth="yes"/>
      <point x="133" y="1666"/>
      <point x="164" y="1636"/>
      <point x="198" y="1636" type="curve" smooth="yes"/>
      <point x="235" y="1636"/>
      <point x="266" y="1666"/>
      <point x="266" y="1699" type="curve" smooth="yes"/>
      <point x="266" y="1735"/>
      <point x="235" y="1765"/>
    </contour>
    <contour>
      <point x="258" y="1449" type="line"/>
      <point x="225" y="1449" type="line"/>
      <point x="33" y="1360" type="line"/>
      <point x="43" y="1337" type="line"/>
      <point x="67" y="1343"/>
      <point x="88" y="1349"/>
      <point x="101" y="1349" type="curve" smooth="yes"/>
      <point x="142" y="1349"/>
      <point x="142" y="1318"/>
      <point x="142" y="1243" type="curve" smooth="yes"/>
      <point x="142" y="655" type="line" smooth="yes"/>
      <point x="142" y="570"/>
      <point x="120" y="543"/>
      <point x="83" y="543" type="curve" smooth="yes"/>
      <point x="27" y="543"/>
      <point x="25" y="626"/>
      <point x="-29" y="626" type="curve" smooth="yes"/>
      <point x="-66" y="626"/>
      <point x="-90" y="608"/>
      <point x="-90" y="572" type="curve" smooth="yes"/>
      <point x="-90" y="532"/>
      <point x="-45" y="496"/>
      <point x="27" y="496" type="curve" smooth="yes"/>
      <point x="174" y="496"/>
      <point x="258" y="526"/>
      <point x="258" y="794" type="curve" smooth="yes"/>
    </contour>
  </outline>
</glyph>
<glyph name="uni02E1" format="2">
  <advance width="363"/>
  <unicode hex="02E1"/>
  <outline>
    <contour>
      <point x="243" y="1763" type="line"/>
      <point x="212" y="1763" type="line"/>
      <point x="19" y="1678" type="line"/>
      <point x="29" y="1653" type="line"/>
      <point x="52" y="1660"/>
      <point x="73" y="1666"/>
      <point x="86" y="1666" type="curve" smooth="yes"/>
      <point x="127" y="1666"/>
      <point x="127" y="1632"/>
      <point x="127" y="1561" type="curve" smooth="yes"/>
      <point x="127" y="942" type="line" smooth="yes"/>
      <point x="127" y="852"/>
      <point x="112" y="818"/>
      <point x="29" y="818" type="curve"/>
      <point x="29" y="794" type="line"/>
      <point x="345" y="794" type="line"/>
      <point x="345" y="818" type="line"/>
      <point x="260" y="818"/>
      <point x="243" y="852"/>
      <point x="243" y="942" type="curve" smooth="yes"/>
    </contour>
  </outline>
</glyph>
<glyph name="uni0309" format="2">
  <unicode hex="0309"/>
  <outline>
    <contour>
      <point x="-529" y="1113" type="curve"/>
      <point x="-471" y="1113" type="line"/>
      <point x="-471" y="1259"/>
      <point x="-329" y="1307"/>
      <point x="-329" y="1430" type="curve" smooth="yes"/>
      <point x="-329" y="1506"/>
      <point x="-398" y="1560"/>
      <point x="-501" y="1560" type="curve" smooth="yes"/>
      <point x="-592" y="1560"/>
      <point x="-656" y="1516"/>
      <point x="-656" y="1447" type="curve" smooth="yes"/>
      <point x="-656" y="1409"/>
      <point x="-628" y="1375"/>
      <point x="-583" y="1375" type="curve" smooth="yes"/>
      <point x="-552" y="1375"/>
      <point x="-535" y="1396"/>
      <point x="-535" y="1416" type="curve" smooth="yes"/>
      <point x="-535" y="1440"/>
      <point x="-569" y="1457"/>
      <point x="-569" y="1480" type="curve" smooth="yes"/>
      <point x="-569" y="1501"/>
      <point x="-547" y="1519"/>
      <point x="-509" y="1519" type="curve" smooth="yes"/>
      <point x="-460" y="1519"/>
      <point x="-425" y="1491"/>
      <point x="-425" y="1425" type="curve" smooth="yes"/>
      <point x="-425" y="1306"/>
      <point x="-529" y="1245"/>
    </contour>
  </outline>
</glyph>
<glyph name="uni0319" format="2">
  <unicode hex="0319"/>
  <outline>
    <contour>
      <point x="-599" y="-131" type="line"/>
      <point x="-711" y="-131" type="line"/>
      <point x="-711" y="-505" type="line"/>
      <point x="-599" y="-505" type="line"/>
      <point x="-599" y="-374" type="line"/>
      <point x="-374" y="-374" type="line"/>
      <point x="-374" y="-262" type="line"/>
      <point x="-599" y="-262" type="line"/>
    </contour>
  </outline>
</glyph>
<glyph name="uni0328" format="2">
  <unicode hex="0328"/>
  <outline>
    <contour>
      <point x="-319" y="-219" type="line"/>
      <point x="-367" y="-263"/>
      <point x="-417" y="-284"/>
      <point x="-458" y="-284" type="curve"/>
      <point x="-505" y="-284"/>
      <point x="-533" y="-236"/>
      <point x="-533" y="-199" type="curve" smooth="yes"/>
      <point x="-533" y="-100"/>
      <point x="-457" y="-29"/>
      <point x="-409" y="0" type="curve"/>
      <point x="-486" y="0" type="line"/>
      <point x="-602" y="-64"/>
      <point x="-649" y="-141"/>
      <point x="-649" y="-234" type="curve"/>
      <point x="-649" y="-311"/>
      <point x="-591" y="-377"/>
      <point x="-516" y="-377" type="curve" smooth="yes"/>
      <point x="-427" y="-377"/>
      <point x="-336" y="-299"/>
      <point x="-290" y="-253" type="curve"/>
    </contour>
  </outline>
</glyph>
<glyph name="uni0332" format="2">
  <unicode hex="0332"/>
  <outline>
    <contour>
      <point x="-1010" y="-150" type="line"/>
      <point x="-1010" y="-283" type="line"/>
      <point x="0" y="-283" type="line"/>
      <point x="0" y="-150" type="line"/>
    </contour>
  </outline>
</glyph>
<glyph name="uni1781" format="2">
  <advance width="1358"/>
  <unicode hex="1781"/>
  <anchor x="1193" y="0" name="L"/>
  <anchor x="1193" y="1440" name="U"/>
  <anchor x="725" y="0" name="lm"/>
  <anchor x="680" y="1440" name="um"/>
  <outline>
    <contour>
      <point x="1193" y="1024" type="curve" smooth="yes"/>
      <point x="1193" y="1295"/>
      <point x="982" y="1440"/>
      <point x="670" y="1440" type="curve" smooth="yes"/>
      <point x="474" y="1440"/>
      <point x="218" y="1332"/>
      <point x="218" y="1118" type="curve" smooth="yes"/>
      <point x="218" y="1016"/>
      <point x="254" y="949"/>
      <point x="333" y="888" type="curve"/>
      <point x="371" y="863"/>
      <point x="413" y="852"/>
      <point x="469" y="852" type="curve" smooth="yes"/>
      <point x="558" y="852"/>
      <point x="634" y="905"/>
      <point x="634" y="984" type="curve" smooth="yes"/>
      <point x="634" y="1039"/>
      <point x="581" y="1078"/>
      <point x="515" y="1078" type="curve" smooth="yes"/>
      <point x="473" y="1078"/>
      <point x="444" y="1067"/>
      <point x="417" y="1046" type="curve"/>
      <point x="410" y="1063"/>
      <point x="406" y="1088"/>
      <point x="406" y="1125" type="curve" smooth="yes"/>
      <point x="406" y="1231"/>
      <point x="518" y="1310"/>
      <point x="690" y="1310" type="curve" smooth="yes"/>
      <point x="870" y="1310"/>
      <point x="1005" y="1235"/>
      <point x="1005" y="1024" type="curve" smooth="yes"/>
      <point x="1005" y="720"/>
      <point x="371" y="467"/>
      <point x="218" y="425" type="curve"/>
      <point x="218" y="207"/>
      <point x="432" y="0"/>
      <point x="688" y="0" type="curve" smooth="yes"/>
      <point x="921" y="0"/>
      <point x="1035" y="60"/>
      <point x="1122" y="154" type="curve" smooth="yes"/>
      <point x="1186" y="222"/>
      <point x="1193" y="322"/>
      <point x="1193" y="375" type="curve" smooth="yes"/>
      <point x="1193" y="454"/>
      <point x="1129" y="558"/>
      <point x="1035" y="601" type="curve"/>
      <point x="1058" y="548"/>
      <point x="1065" y="491"/>
      <point x="1065" y="412" type="curve" smooth="yes"/>
      <point x="1065" y="222"/>
      <point x="868" y="130"/>
      <point x="706" y="130" type="curve" smooth="yes"/>
      <point x="546" y="130"/>
      <point x="457" y="232"/>
      <point x="426" y="322" type="curve"/>
      <point x="632" y="394"/>
      <point x="1193" y="676"/>
    </contour>
  </outline>
</glyph>
<glyph name="uni1783" format="2">
  <advance width="1968"/>
  <unicode hex="1783"/>
  <anchor x="1723" y="0" name="L"/>
  <anchor x="1723" y="1440" name="U"/>
  <anchor x="1329" y="0" name="lm"/>
  <anchor x="1329" y="1440" name="um"/>
  <outline>
    <contour>
      <point x="523" y="194" type="curve" smooth="yes"/>
      <point x="523" y="1362" type="line"/>
      <point x="498" y="1425"/>
      <point x="417" y="1440"/>
      <point x="352" y="1440" type="curve"/>
      <point x="186" y="1409"/>
      <point x="108" y="1271"/>
      <point x="108" y="1192" type="curve" smooth="yes"/>
      <point x="108" y="1077"/>
      <point x="188" y="1035"/>
      <point x="241" y="1035" type="curve" smooth="yes"/>
      <point x="288" y="1035"/>
      <point x="305" y="1055"/>
      <point x="305" y="1077" type="curve" smooth="yes"/>
      <point x="305" y="1099"/>
      <point x="294" y="1106"/>
      <point x="274" y="1117" type="curve" smooth="yes"/>
      <point x="256" y="1127"/>
      <point x="230" y="1150"/>
      <point x="230" y="1183" type="curve" smooth="yes"/>
      <point x="230" y="1244"/>
      <point x="284" y="1281"/>
      <point x="335" y="1303" type="curve"/>
      <point x="335" y="187" type="line" smooth="yes"/>
      <point x="335" y="87"/>
      <point x="533" y="0"/>
      <point x="729" y="0" type="curve" smooth="yes"/>
      <point x="839" y="0"/>
      <point x="949" y="26"/>
      <point x="1028" y="68" type="curve"/>
      <point x="1103" y="26"/>
      <point x="1217" y="0"/>
      <point x="1329" y="0" type="curve" smooth="yes"/>
      <point x="1525" y="0"/>
      <point x="1723" y="87"/>
      <point x="1723" y="187" type="curve" smooth="yes"/>
      <point x="1723" y="980" type="line" smooth="yes"/>
      <point x="1723" y="1024"/>
      <point x="1660" y="1054"/>
      <point x="1581" y="1092" type="curve" smooth="yes"/>
      <point x="1533" y="1115"/>
      <point x="1485" y="1138"/>
      <point x="1485" y="1193" type="curve" smooth="yes"/>
      <point x="1485" y="1242"/>
      <point x="1513" y="1282"/>
      <point x="1549" y="1282" type="curve" smooth="yes"/>
      <point x="1560" y="1282"/>
      <point x="1581" y="1276"/>
      <point x="1611" y="1253" type="curve" smooth="yes"/>
      <point x="1639" y="1231"/>
      <point x="1678" y="1204"/>
      <point x="1742" y="1204" type="curve" smooth="yes"/>
      <point x="1839" y="1204"/>
      <point x="1892" y="1257"/>
      <point x="1896" y="1374" type="curve"/>
      <point x="1873" y="1354"/>
      <point x="1850" y="1346"/>
      <point x="1835" y="1346" type="curve" smooth="yes"/>
      <point x="1794" y="1346"/>
      <point x="1753" y="1370"/>
      <point x="1715" y="1396" type="curve" smooth="yes"/>
      <point x="1681" y="1418"/>
      <point x="1647" y="1440"/>
      <point x="1599" y="1440" type="curve" smooth="yes"/>
      <point x="1485" y="1440"/>
      <point x="1362" y="1306"/>
      <point x="1362" y="1189" type="curve" smooth="yes"/>
      <point x="1362" y="1118"/>
      <point x="1385" y="1063"/>
      <point x="1467" y="1016" type="curve"/>
      <point x="1502" y="1002"/>
      <point x="1535" y="980"/>
      <point x="1535" y="923" type="curve" smooth="yes"/>
      <point x="1535" y="194" type="line" smooth="yes"/>
      <point x="1535" y="139"/>
      <point x="1415" y="112"/>
      <point x="1329" y="112" type="curve" smooth="yes"/>
      <point x="1243" y="112"/>
      <point x="1123" y="139"/>
      <point x="1123" y="194" type="curve" smooth="yes"/>
      <point x="1123" y="980" type="line" smooth="yes"/>
      <point x="1123" y="1024"/>
      <point x="1060" y="1054"/>
      <point x="981" y="1092" type="curve" smooth="yes"/>
      <point x="933" y="1115"/>
      <point x="885" y="1138"/>
      <point x="885" y="1193" type="curve" smooth="yes"/>
      <point x="885" y="1242"/>
      <point x="913" y="1282"/>
      <point x="949" y="1282" type="curve" smooth="yes"/>
      <point x="960" y="1282"/>
      <point x="981" y="1276"/>
      <point x="1011" y="1253" type="curve" smooth="yes"/>
      <point x="1039" y="1231"/>
      <point x="1078" y="1204"/>
      <point x="1142" y="1204" type="curve" smooth="yes"/>
      <point x="1239" y="1204"/>
      <point x="1292" y="1257"/>
      <point x="1296" y="1374" type="curve"/>
      <point x="1273" y="1354"/>
      <point x="1250" y="1346"/>
      <point x="1235" y="1346" type="curve" smooth="yes"/>
      <point x="1194" y="1346"/>
      <point x="1153" y="1370"/>
      <point x="1115" y="1396" type="curve" smooth="yes"/>
      <point x="1081" y="1418"/>
      <point x="1047" y="1440"/>
      <point x="999" y="1440" type="curve" smooth="yes"/>
      <point x="885" y="1440"/>
      <point x="762" y="1306"/>
      <point x="762" y="1189" type="curve" smooth="yes"/>
      <point x="762" y="1118"/>
      <point x="785" y="1063"/>
      <point x="867" y="1016" type="curve"/>
      <point x="902" y="1002"/>
      <point x="935" y="980"/>
      <point x="935" y="923" type="curve" smooth="yes"/>
      <point x="935" y="194" type="line" smooth="yes"/>
      <point x="935" y="139"/>
      <point x="815" y="112"/>
      <point x="729" y="112" type="curve" smooth="yes"/>
      <point x="643" y="112"/>
      <point x="523" y="139"/>
    </contour>
  </outline>
</glyph>
<glyph name="uni178D" format="2">
  <advance width="2076"/>
  <unicode hex="178D"/>
  <anchor x="1831" y="0" name="L"/>
  <anchor x="1831" y="1440" name="U"/>
  <anchor x="1437" y="0" name="lm"/>
  <anchor x="1437" y="1440" name="um"/>
  <outline>
    <contour>
      <point x="1643" y="923" type="curve" smooth="yes"/>
      <point x="1643" y="213" type="line" smooth="yes"/>
      <point x="1643" y="157"/>
      <point x="1628" y="136"/>
      <point x="1582" y="136" type="curve" smooth="yes"/>
      <point x="1540" y="136"/>
      <point x="1482" y="194"/>
      <point x="1435" y="270" type="curve" smooth="yes"/>
      <point x="1382" y="354"/>
      <point x="1328" y="419"/>
      <point x="1231" y="451" type="curve"/>
      <point x="1231" y="1182" type="line" smooth="yes"/>
      <point x="1231" y="1242"/>
      <point x="1085" y="1440"/>
      <point x="984" y="1440" type="curve" smooth="yes"/>
      <point x="931" y="1440"/>
      <point x="887" y="1396"/>
      <point x="846" y="1350" type="curve" smooth="yes"/>
      <point x="813" y="1313"/>
      <point x="774" y="1276"/>
      <point x="763" y="1276" type="curve" smooth="yes"/>
      <point x="752" y="1276"/>
      <point x="713" y="1313"/>
      <point x="680" y="1350" type="curve" smooth="yes"/>
      <point x="639" y="1396"/>
      <point x="595" y="1440"/>
      <point x="542" y="1440" type="curve" smooth="yes"/>
      <point x="441" y="1440"/>
      <point x="295" y="1242"/>
      <point x="295" y="1182" type="curve" smooth="yes"/>
      <point x="295" y="79" type="line"/>
      <point x="320" y="16"/>
      <point x="401" y="0"/>
      <point x="466" y="0" type="curve"/>
      <point x="632" y="31"/>
      <point x="710" y="169"/>
      <point x="710" y="248" type="curve" smooth="yes"/>
      <point x="710" y="376"/>
      <point x="610" y="444"/>
      <point x="483" y="451" type="curve"/>
      <point x="483" y="1145" type="line" smooth="yes"/>
      <point x="483" y="1193"/>
      <point x="539" y="1272"/>
      <point x="564" y="1272" type="curve" smooth="yes"/>
      <point x="568" y="1272"/>
      <point x="604" y="1238"/>
      <point x="636" y="1204" type="curve" smooth="yes"/>
      <point x="673" y="1163"/>
      <point x="714" y="1121"/>
      <point x="763" y="1121" type="curve" smooth="yes"/>
      <point x="812" y="1121"/>
      <point x="853" y="1163"/>
      <point x="890" y="1204" type="curve" smooth="yes"/>
      <point x="922" y="1238"/>
      <point x="958" y="1272"/>
      <point x="962" y="1272" type="curve" smooth="yes"/>
      <point x="987" y="1272"/>
      <point x="1043" y="1193"/>
      <point x="1043" y="1145" type="curve" smooth="yes"/>
      <point x="1043" y="451" type="line"/>
      <point x="917" y="439"/>
      <point x="816" y="363"/>
      <point x="816" y="248" type="curve" smooth="yes"/>
      <point x="816" y="169"/>
      <point x="894" y="31"/>
      <point x="1060" y="0" type="curve"/>
      <point x="1125" y="0"/>
      <point x="1206" y="15"/>
      <point x="1231" y="78" type="curve"/>
      <point x="1231" y="315" type="line"/>
      <point x="1265" y="300"/>
      <point x="1310" y="243"/>
      <point x="1344" y="191" type="curve" smooth="yes"/>
      <point x="1404" y="100"/>
      <point x="1481" y="0"/>
      <point x="1617" y="0" type="curve" smooth="yes"/>
      <point x="1797" y="0"/>
      <point x="1831" y="86"/>
      <point x="1831" y="187" type="curve" smooth="yes"/>
      <point x="1831" y="980" type="line" smooth="yes"/>
      <point x="1831" y="1024"/>
      <point x="1768" y="1054"/>
      <point x="1689" y="1092" type="curve" smooth="yes"/>
      <point x="1641" y="1115"/>
      <point x="1593" y="1138"/>
      <point x="1593" y="1193" type="curve" smooth="yes"/>
      <point x="1593" y="1242"/>
      <point x="1621" y="1282"/>
      <point x="1657" y="1282" type="curve" smooth="yes"/>
      <point x="1668" y="1282"/>
      <point x="1689" y="1276"/>
      <point x="1719" y="1253" type="curve" smooth="yes"/>
      <point x="1747" y="1231"/>
      <point x="1786" y="1204"/>
      <point x="1850" y="1204" type="curve" smooth="yes"/>
      <point x="1947" y="1204"/>
      <point x="2000" y="1257"/>
      <point x="2004" y="1374" type="curve"/>
      <point x="1981" y="1354"/>
      <point x="1958" y="1346"/>
      <point x="1943" y="1346" type="curve" smooth="yes"/>
      <point x="1902" y="1346"/>
      <point x="1861" y="1370"/>
      <point x="1823" y="1396" type="curve" smooth="yes"/>
      <point x="1789" y="1418"/>
      <point x="1755" y="1440"/>
      <point x="1707" y="1440" type="curve" smooth="yes"/>
      <point x="1593" y="1440"/>
      <point x="1470" y="1306"/>
      <point x="1470" y="1189" type="curve" smooth="yes"/>
      <point x="1470" y="1118"/>
      <point x="1493" y="1063"/>
      <point x="1575" y="1016" type="curve"/>
      <point x="1610" y="1002"/>
      <point x="1643" y="980"/>
    </contour>
    <contour>
      <point x="588" y="257" type="curve" smooth="yes"/>
      <point x="588" y="196"/>
      <point x="534" y="159"/>
      <point x="483" y="137" type="curve"/>
      <point x="483" y="345" type="line"/>
      <point x="531" y="338"/>
      <point x="588" y="307"/>
    </contour>
    <contour>
      <point x="938" y="257" type="curve" smooth="yes"/>
      <point x="938" y="307"/>
      <point x="995" y="338"/>
      <point x="1043" y="345" type="curve"/>
      <point x="1043" y="137" type="line"/>
      <point x="992" y="159"/>
      <point x="938" y="196"/>
    </contour>
  </outline>
</glyph>
<glyph name="uni178F" format="2">
  <advance width="1476"/>
  <unicode hex="178F"/>
  <anchor x="1231" y="0" name="L"/>
  <anchor x="1231" y="1440" name="U"/>
  <anchor x="763" y="0" name="lm"/>
  <anchor x="763" y="1440" name="um"/>
  <outline>
    <contour>
      <point x="295" y="938" type="curve" smooth="yes"/>
      <point x="295" y="79" type="line"/>
      <point x="320" y="16"/>
      <point x="401" y="0"/>
      <point x="466" y="0" type="curve"/>
      <point x="632" y="31"/>
      <point x="710" y="169"/>
      <point x="710" y="248" type="curve" smooth="yes"/>
      <point x="710" y="376"/>
      <point x="610" y="444"/>
      <point x="483" y="451" type="curve"/>
      <point x="483" y="920" type="line" smooth="yes"/>
      <point x="483" y="984"/>
      <point x="685" y="1011"/>
      <point x="763" y="1011" type="curve" smooth="yes"/>
      <point x="841" y="1011"/>
      <point x="1043" y="984"/>
      <point x="1043" y="920" type="curve" smooth="yes"/>
      <point x="1043" y="0" type="line"/>
      <point x="1231" y="0" type="line"/>
      <point x="1231" y="938" type="line" smooth="yes"/>
      <point x="1231" y="1038"/>
      <point x="959" y="1123"/>
      <point x="763" y="1123" type="curve" smooth="yes"/>
      <point x="624" y="1123"/>
      <point x="449" y="1078"/>
      <point x="360" y="1016" type="curve"/>
      <point x="325" y="1046"/>
      <point x="299" y="1084"/>
      <point x="299" y="1125" type="curve" smooth="yes"/>
      <point x="299" y="1231"/>
      <point x="374" y="1286"/>
      <point x="449" y="1286" type="curve" smooth="yes"/>
      <point x="579" y="1286"/>
      <point x="674" y="1235"/>
      <point x="763" y="1178" type="curve"/>
      <point x="827" y="1238"/>
      <point x="944" y="1291"/>
      <point x="1030" y="1291" type="curve" smooth="yes"/>
      <point x="1065" y="1291"/>
      <point x="1105" y="1272"/>
      <point x="1127" y="1253" type="curve"/>
      <point x="1158" y="1231"/>
      <point x="1189" y="1208"/>
      <point x="1245" y="1208" type="curve" smooth="yes"/>
      <point x="1331" y="1208"/>
      <point x="1380" y="1242"/>
      <point x="1384" y="1357" type="curve"/>
      <point x="1365" y="1340"/>
      <point x="1345" y="1332"/>
      <point x="1327" y="1332" type="curve" smooth="yes"/>
      <point x="1294" y="1332"/>
      <point x="1259" y="1350"/>
      <point x="1229" y="1373" type="curve" smooth="yes"/>
      <point x="1173" y="1418"/>
      <point x="1116" y="1440"/>
      <point x="1034" y="1440" type="curve" smooth="yes"/>
      <point x="896" y="1440"/>
      <point x="838" y="1393"/>
      <point x="763" y="1321" type="curve"/>
      <point x="670" y="1396"/>
      <point x="551" y="1440"/>
      <point x="407" y="1440" type="curve" smooth="yes"/>
      <point x="257" y="1440"/>
      <point x="163" y="1299"/>
      <point x="163" y="1159" type="curve" smooth="yes"/>
      <point x="163" y="1067"/>
      <point x="238" y="999"/>
      <point x="302" y="960" type="curve"/>
      <point x="299" y="952"/>
      <point x="295" y="946"/>
    </contour>
    <contour>
      <point x="588" y="257" type="curve" smooth="yes"/>
      <point x="588" y="196"/>
      <point x="534" y="159"/>
      <point x="483" y="137" type="curve"/>
      <point x="483" y="345" type="line"/>
      <point x="531" y="338"/>
      <point x="588" y="307"/>
    </contour>
  </outline>
</glyph>
<glyph name="uni1792" format="2">
  <advance width="1476"/>
  <unicode hex="1792"/>
  <anchor x="1231" y="0" name="L"/>
  <anchor x="1231" y="1440" name="U"/>
  <anchor x="763" y="0" name="lm"/>
  <anchor x="763" y="1440" name="um"/>
  <outline>
    <contour>
      <point x="1231" y="68" type="curve"/>
      <point x="1231" y="817" type="line"/>
      <point x="1206" y="880"/>
      <point x="1125" y="896"/>
      <point x="1060" y="896" type="curve"/>
      <point x="894" y="865"/>
      <point x="816" y="727"/>
      <point x="816" y="648" type="curve" smooth="yes"/>
      <point x="816" y="520"/>
      <point x="916" y="452"/>
      <point x="1043" y="445" type="curve"/>
      <point x="1043" y="215" type="line" smooth="yes"/>
      <point x="1043" y="172"/>
      <point x="1038" y="150"/>
      <point x="1014" y="150" type="curve" smooth="yes"/>
      <point x="1003" y="150"/>
      <point x="944" y="191"/>
      <point x="873" y="247" type="curve" smooth="yes"/>
      <point x="837" y="275"/>
      <point x="799" y="300"/>
      <point x="763" y="300" type="curve" smooth="yes"/>
      <point x="727" y="300"/>
      <point x="689" y="275"/>
      <point x="653" y="247" type="curve" smooth="yes"/>
      <point x="582" y="191"/>
      <point x="523" y="150"/>
      <point x="512" y="150" type="curve" smooth="yes"/>
      <point x="488" y="150"/>
      <point x="483" y="172"/>
      <point x="483" y="215" type="curve" smooth="yes"/>
      <point x="483" y="1049" type="line"/>
      <point x="399" y="1052"/>
      <point x="299" y="1104"/>
      <point x="299" y="1164" type="curve" smooth="yes"/>
      <point x="299" y="1241"/>
      <point x="374" y="1286"/>
      <point x="449" y="1286" type="curve" smooth="yes"/>
      <point x="579" y="1286"/>
      <point x="669" y="1235"/>
      <point x="758" y="1178" type="curve"/>
      <point x="822" y="1238"/>
      <point x="944" y="1291"/>
      <point x="1030" y="1291" type="curve" smooth="yes"/>
      <point x="1065" y="1291"/>
      <point x="1105" y="1272"/>
      <point x="1127" y="1253" type="curve"/>
      <point x="1158" y="1231"/>
      <point x="1189" y="1208"/>
      <point x="1245" y="1208" type="curve" smooth="yes"/>
      <point x="1331" y="1208"/>
      <point x="1380" y="1242"/>
      <point x="1384" y="1357" type="curve"/>
      <point x="1365" y="1340"/>
      <point x="1345" y="1332"/>
      <point x="1327" y="1332" type="curve" smooth="yes"/>
      <point x="1294" y="1332"/>
      <point x="1260" y="1351"/>
      <point x="1230" y="1374" type="curve" smooth="yes"/>
      <point x="1174" y="1418"/>
      <point x="1116" y="1440"/>
      <point x="1034" y="1440" type="curve" smooth="yes"/>
      <point x="896" y="1440"/>
      <point x="833" y="1393"/>
      <point x="758" y="1321" type="curve"/>
      <point x="665" y="1396"/>
      <point x="551" y="1440"/>
      <point x="407" y="1440" type="curve" smooth="yes"/>
      <point x="257" y="1440"/>
      <point x="163" y="1329"/>
      <point x="163" y="1209" type="curve" smooth="yes"/>
      <point x="163" y="1116"/>
      <point x="226" y="1062"/>
      <point x="295" y="1029" type="curve"/>
      <point x="295" y="68" type="line" smooth="yes"/>
      <point x="295" y="33"/>
      <point x="338" y="0"/>
      <point x="382" y="0" type="curve" smooth="yes"/>
      <point x="463" y="0" type="line" smooth="yes"/>
      <point x="516" y="0"/>
      <point x="581" y="46"/>
      <point x="613" y="72" type="curve" smooth="yes"/>
      <point x="683" y="128"/>
      <point x="737" y="168"/>
      <point x="763" y="168" type="curve" smooth="yes"/>
      <point x="789" y="168"/>
      <point x="843" y="128"/>
      <point x="913" y="72" type="curve" smooth="yes"/>
      <point x="945" y="46"/>
      <point x="1010" y="0"/>
      <point x="1063" y="0" type="curve" smooth="yes"/>
      <point x="1144" y="0" type="line" smooth="yes"/>
      <point x="1186" y="0"/>
      <point x="1231" y="33"/>
    </contour>
    <contour>
      <point x="938" y="639" type="curve" smooth="yes"/>
      <point x="938" y="700"/>
      <point x="992" y="737"/>
      <point x="1043" y="759" type="curve"/>
      <point x="1043" y="551" type="line"/>
      <point x="995" y="558"/>
      <point x="938" y="589"/>
    </contour>
  </outline>
</glyph>
<glyph name="uni1797" format="2">
  <advance width="1516"/>
  <unicode hex="1797"/>
  <anchor x="1271" y="0" name="L"/>
  <anchor x="1271" y="1440" name="U"/>
  <anchor x="803" y="0" name="lm"/>
  <anchor x="803" y="1440" name="um"/>
  <outline>
    <contour>
      <point x="335" y="938" type="curve" smooth="yes"/>
      <point x="335" y="137" type="line"/>
      <point x="284" y="159"/>
      <point x="230" y="196"/>
      <point x="230" y="257" type="curve" smooth="yes"/>
      <point x="230" y="290"/>
      <point x="256" y="313"/>
      <point x="274" y="323" type="curve" smooth="yes"/>
      <point x="294" y="334"/>
      <point x="305" y="341"/>
      <point x="305" y="363" type="curve" smooth="yes"/>
      <point x="305" y="385"/>
      <point x="288" y="405"/>
      <point x="241" y="405" type="curve" smooth="yes"/>
      <point x="188" y="405"/>
      <point x="108" y="363"/>
      <point x="108" y="248" type="curve" smooth="yes"/>
      <point x="108" y="169"/>
      <point x="186" y="31"/>
      <point x="352" y="0" type="curve"/>
      <point x="417" y="0"/>
      <point x="498" y="15"/>
      <point x="523" y="78" type="curve"/>
      <point x="523" y="920" type="line" smooth="yes"/>
      <point x="523" y="984"/>
      <point x="725" y="1011"/>
      <point x="803" y="1011" type="curve" smooth="yes"/>
      <point x="881" y="1011"/>
      <point x="1083" y="984"/>
      <point x="1083" y="920" type="curve" smooth="yes"/>
      <point x="1083" y="0" type="line"/>
      <point x="1271" y="0" type="line"/>
      <point x="1271" y="938" type="line" smooth="yes"/>
      <point x="1271" y="1038"/>
      <point x="999" y="1123"/>
      <point x="803" y="1123" type="curve" smooth="yes"/>
      <point x="666" y="1123"/>
      <point x="489" y="1078"/>
      <point x="399" y="1016" type="curve"/>
      <point x="366" y="1046"/>
      <point x="340" y="1084"/>
      <point x="340" y="1125" type="curve" smooth="yes"/>
      <point x="340" y="1231"/>
      <point x="415" y="1286"/>
      <point x="490" y="1286" type="curve" smooth="yes"/>
      <point x="622" y="1286"/>
      <point x="714" y="1235"/>
      <point x="804" y="1178" type="curve"/>
      <point x="868" y="1238"/>
      <point x="987" y="1291"/>
      <point x="1073" y="1291" type="curve" smooth="yes"/>
      <point x="1105" y="1291"/>
      <point x="1147" y="1272"/>
      <point x="1170" y="1253" type="curve"/>
      <point x="1199" y="1231"/>
      <point x="1230" y="1208"/>
      <point x="1285" y="1208" type="curve" smooth="yes"/>
      <point x="1373" y="1208"/>
      <point x="1420" y="1242"/>
      <point x="1424" y="1357" type="curve"/>
      <point x="1406" y="1340"/>
      <point x="1388" y="1332"/>
      <point x="1369" y="1332" type="curve" smooth="yes"/>
      <point x="1335" y="1332"/>
      <point x="1301" y="1350"/>
      <point x="1271" y="1374" type="curve" smooth="yes"/>
      <point x="1215" y="1418"/>
      <point x="1158" y="1440"/>
      <point x="1077" y="1440" type="curve" smooth="yes"/>
      <point x="937" y="1440"/>
      <point x="880" y="1393"/>
      <point x="804" y="1321" type="curve"/>
      <point x="711" y="1396"/>
      <point x="593" y="1440"/>
      <point x="450" y="1440" type="curve" smooth="yes"/>
      <point x="299" y="1440"/>
      <point x="203" y="1299"/>
      <point x="203" y="1159" type="curve" smooth="yes"/>
      <point x="203" y="1067"/>
      <point x="280" y="999"/>
      <point x="343" y="960" type="curve"/>
      <point x="339" y="952"/>
      <point x="335" y="946"/>
    </contour>
  </outline>
</glyph>
<glyph name="uni17A4" format="2">
  <advance width="2176"/>
  <unicode hex="17A4"/>
  <anchor x="1931" y="0" name="L"/>
  <anchor x="1931" y="1440" name="U"/>
  <anchor x="1133" y="0" name="lm"/>
  <anchor x="1133" y="1440" name="um"/>
  <outline>
    <contour>
      <point x="1015" y="923" type="curve" smooth="yes"/>
      <point x="1015" y="740" type="line"/>
      <point x="523" y="740" type="line"/>
      <point x="523" y="980" type="line" smooth="yes"/>
      <point x="523" y="1024"/>
      <point x="460" y="1054"/>
      <point x="381" y="1092" type="curve" smooth="yes"/>
      <point x="333" y="1115"/>
      <point x="285" y="1138"/>
      <point x="285" y="1193" type="curve" smooth="yes"/>
      <point x="285" y="1242"/>
      <point x="313" y="1282"/>
      <point x="349" y="1282" type="curve" smooth="yes"/>
      <point x="360" y="1282"/>
      <point x="381" y="1276"/>
      <point x="411" y="1253" type="curve" smooth="yes"/>
      <point x="439" y="1231"/>
      <point x="478" y="1204"/>
      <point x="542" y="1204" type="curve" smooth="yes"/>
      <point x="639" y="1204"/>
      <point x="692" y="1257"/>
      <point x="696" y="1374" type="curve"/>
      <point x="673" y="1354"/>
      <point x="650" y="1346"/>
      <point x="635" y="1346" type="curve" smooth="yes"/>
      <point x="594" y="1346"/>
      <point x="553" y="1370"/>
      <point x="515" y="1396" type="curve" smooth="yes"/>
      <point x="481" y="1418"/>
      <point x="447" y="1440"/>
      <point x="399" y="1440" type="curve" smooth="yes"/>
      <point x="285" y="1440"/>
      <point x="162" y="1306"/>
      <point x="162" y="1189" type="curve" smooth="yes"/>
      <point x="162" y="1118"/>
      <point x="185" y="1063"/>
      <point x="267" y="1016" type="curve"/>
      <point x="302" y="1002"/>
      <point x="335" y="980"/>
      <point x="335" y="923" type="curve" smooth="yes"/>
      <point x="335" y="451" type="line"/>
      <point x="208" y="444"/>
      <point x="108" y="376"/>
      <point x="108" y="248" type="curve" smooth="yes"/>
      <point x="108" y="169"/>
      <point x="186" y="31"/>
      <point x="352" y="0" type="curve"/>
      <point x="417" y="0"/>
      <point x="498" y="16"/>
      <point x="523" y="79" type="curve"/>
      <point x="523" y="610" type="line"/>
      <point x="1015" y="610" type="line"/>
      <point x="1015" y="451" type="line"/>
      <point x="888" y="444"/>
      <point x="788" y="376"/>
      <point x="788" y="248" type="curve" smooth="yes"/>
      <point x="788" y="169"/>
      <point x="866" y="31"/>
      <point x="1032" y="0" type="curve"/>
      <point x="1097" y="0"/>
      <point x="1178" y="16"/>
      <point x="1203" y="79" type="curve"/>
      <point x="1203" y="980" type="line" smooth="yes"/>
      <point x="1203" y="1024"/>
      <point x="1138" y="1054"/>
      <point x="1060" y="1091" type="curve" smooth="yes"/>
      <point x="1012" y="1114"/>
      <point x="966" y="1138"/>
      <point x="966" y="1193" type="curve" smooth="yes"/>
      <point x="966" y="1222"/>
      <point x="999" y="1328"/>
      <point x="1343" y="1328" type="curve" smooth="yes"/>
      <point x="1618" y="1328"/>
      <point x="1743" y="1208"/>
      <point x="1743" y="1145" type="curve" smooth="yes"/>
      <point x="1743" y="0" type="line"/>
      <point x="1931" y="0" type="line"/>
      <point x="1931" y="1163" type="line" smooth="yes"/>
      <point x="1931" y="1264"/>
      <point x="1686" y="1440"/>
      <point x="1361" y="1440" type="curve" smooth="yes"/>
      <point x="1002" y="1440"/>
      <point x="843" y="1326"/>
      <point x="843" y="1189" type="curve" smooth="yes"/>
      <point x="843" y="1118"/>
      <point x="864" y="1063"/>
      <point x="947" y="1016" type="curve"/>
      <point x="979" y="1002"/>
      <point x="1015" y="980"/>
    </contour>
    <contour>
      <point x="230" y="257" type="curve" smooth="yes"/>
      <point x="230" y="307"/>
      <point x="287" y="338"/>
      <point x="335" y="345" type="curve"/>
      <point x="335" y="137" type="line"/>
      <point x="284" y="159"/>
      <point x="230" y="196"/>
    </contour>
    <contour>
      <point x="910" y="257" type="curve" smooth="yes"/>
      <point x="910" y="307"/>
      <point x="967" y="338"/>
      <point x="1015" y="345" type="curve"/>
      <point x="1015" y="137" type="line"/>
      <point x="964" y="159"/>
      <point x="910" y="196"/>
    </contour>
  </outline>
</glyph>
<glyph name="uni17AF" format="2">
  <advance width="1516"/>
  <unicode hex="17AF"/>
  <anchor x="1271" y="0" name="L"/>
  <anchor x="1271" y="1743" name="U"/>
  <anchor x="803" y="0" name="lm"/>
  <anchor x="803" y="1743" name="um"/>
  <outline>
    <contour>
      <point x="523" y="215" type="curve" smooth="yes"/>
      <point x="523" y="818" type="line"/>
      <point x="498" y="881"/>
      <point x="417" y="896"/>
      <point x="352" y="896" type="curve"/>
      <point x="186" y="865"/>
      <point x="108" y="727"/>
      <point x="108" y="648" type="curve" smooth="yes"/>
      <point x="108" y="533"/>
      <point x="188" y="491"/>
      <point x="241" y="491" type="curve" smooth="yes"/>
      <point x="288" y="491"/>
      <point x="305" y="511"/>
      <point x="305" y="533" type="curve" smooth="yes"/>
      <point x="305" y="555"/>
      <point x="294" y="562"/>
      <point x="274" y="573" type="curve" smooth="yes"/>
      <point x="256" y="583"/>
      <point x="230" y="606"/>
      <point x="230" y="639" type="curve" smooth="yes"/>
      <point x="230" y="700"/>
      <point x="284" y="737"/>
      <point x="335" y="759" type="curve"/>
      <point x="335" y="68" type="line" smooth="yes"/>
      <point x="335" y="33"/>
      <point x="378" y="0"/>
      <point x="422" y="0" type="curve" smooth="yes"/>
      <point x="503" y="0" type="line" smooth="yes"/>
      <point x="556" y="0"/>
      <point x="621" y="46"/>
      <point x="653" y="72" type="curve" smooth="yes"/>
      <point x="723" y="128"/>
      <point x="777" y="168"/>
      <point x="803" y="168" type="curve" smooth="yes"/>
      <point x="829" y="168"/>
      <point x="883" y="128"/>
      <point x="953" y="72" type="curve" smooth="yes"/>
      <point x="985" y="46"/>
      <point x="1050" y="0"/>
      <point x="1103" y="0" type="curve" smooth="yes"/>
      <point x="1184" y="0" type="line" smooth="yes"/>
      <point x="1226" y="0"/>
      <point x="1271" y="33"/>
      <point x="1271" y="68" type="curve" smooth="yes"/>
      <point x="1271" y="1253" type="line" smooth="yes"/>
      <point x="1271" y="1353"/>
      <point x="1082" y="1440"/>
      <point x="886" y="1440" type="curve" smooth="yes"/>
      <point x="722" y="1440"/>
      <point x="621" y="1328"/>
      <point x="556" y="1328" type="curve" smooth="yes"/>
      <point x="531" y="1328"/>
      <point x="520" y="1340"/>
      <point x="520" y="1374" type="curve" smooth="yes"/>
      <point x="520" y="1387"/>
      <point x="531" y="1429"/>
      <point x="540" y="1468" type="curve" smooth="yes"/>
      <point x="550" y="1511"/>
      <point x="560" y="1561"/>
      <point x="560" y="1598" type="curve" smooth="yes"/>
      <point x="560" y="1672"/>
      <point x="492" y="1743"/>
      <point x="410" y="1743" type="curve" smooth="yes"/>
      <point x="339" y="1743"/>
      <point x="309" y="1729"/>
      <point x="284" y="1714" type="curve"/>
      <point x="359" y="1714"/>
      <point x="392" y="1643"/>
      <point x="392" y="1610" type="curve" smooth="yes"/>
      <point x="392" y="1579"/>
      <point x="384" y="1538"/>
      <point x="374" y="1497" type="curve" smooth="yes"/>
      <point x="362" y="1449"/>
      <point x="352" y="1400"/>
      <point x="352" y="1357" type="curve" smooth="yes"/>
      <point x="352" y="1278"/>
      <point x="392" y="1198"/>
      <point x="531" y="1198" type="curve" smooth="yes"/>
      <point x="671" y="1198"/>
      <point x="750" y="1310"/>
      <point x="894" y="1310" type="curve" smooth="yes"/>
      <point x="1000" y="1310"/>
      <point x="1083" y="1271"/>
      <point x="1083" y="1216" type="curve" smooth="yes"/>
      <point x="1083" y="215" type="line" smooth="yes"/>
      <point x="1083" y="172"/>
      <point x="1078" y="150"/>
      <point x="1054" y="150" type="curve" smooth="yes"/>
      <point x="1043" y="150"/>
      <point x="984" y="191"/>
      <point x="913" y="247" type="curve" smooth="yes"/>
      <point x="877" y="275"/>
      <point x="839" y="300"/>
      <point x="803" y="300" type="curve" smooth="yes"/>
      <point x="767" y="300"/>
      <point x="729" y="275"/>
      <point x="693" y="247" type="curve" smooth="yes"/>
      <point x="622" y="191"/>
      <point x="563" y="150"/>
      <point x="552" y="150" type="curve" smooth="yes"/>
      <point x="528" y="150"/>
      <point x="523" y="172"/>
    </contour>
  </outline>
</glyph>
<glyph name="uni17B3" format="2">
  <advance width="1358"/>
  <unicode hex="17B3"/>
  <anchor x="1192" y="-230" name="L"/>
  <anchor x="1192" y="1955" name="U"/>
  <anchor x="704" y="-230" name="lm"/>
  <anchor x="704" y="1955" name="um"/>
  <outline>
    <contour>
      <point x="334" y="1389" type="curve"/>
      <point x="458" y="1421" type="line"/>
      <point x="416" y="1421"/>
      <point x="287" y="1485"/>
      <point x="287" y="1561" type="curve" smooth="yes"/>
      <point x="287" y="1632"/>
      <point x="348" y="1662"/>
      <point x="424" y="1662" type="curve" smooth="yes"/>
      <point x="469" y="1662"/>
      <point x="548" y="1623"/>
      <point x="629" y="1571" type="curve" smooth="yes"/>
      <point x="700" y="1525"/>
      <point x="828" y="1478"/>
      <point x="952" y="1478" type="curve"/>
      <point x="971" y="1585"/>
      <point x="1078" y="1790"/>
      <point x="1191" y="1808" type="curve"/>
      <point x="1253" y="1825"/>
      <point x="1264" y="1862"/>
      <point x="1264" y="1891" type="curve" smooth="yes"/>
      <point x="1264" y="1924"/>
      <point x="1231" y="1955"/>
      <point x="1165" y="1955" type="curve" smooth="yes"/>
      <point x="1029" y="1955"/>
      <point x="880" y="1762"/>
      <point x="841" y="1642" type="curve"/>
      <point x="788" y="1649"/>
      <point x="742" y="1670"/>
      <point x="701" y="1700" type="curve" smooth="yes"/>
      <point x="612" y="1764"/>
      <point x="541" y="1812"/>
      <point x="409" y="1812" type="curve" smooth="yes"/>
      <point x="258" y="1812"/>
      <point x="151" y="1719"/>
      <point x="151" y="1587" type="curve" smooth="yes"/>
      <point x="151" y="1468"/>
      <point x="282" y="1400"/>
    </contour>
    <contour>
      <point x="425" y="322" type="curve"/>
      <point x="631" y="394"/>
      <point x="1192" y="676"/>
      <point x="1192" y="1024" type="curve" smooth="yes"/>
      <point x="1192" y="1295"/>
      <point x="983" y="1440"/>
      <point x="671" y="1440" type="curve" smooth="yes"/>
      <point x="475" y="1440"/>
      <point x="217" y="1332"/>
      <point x="217" y="1118" type="curve" smooth="yes"/>
      <point x="217" y="1016"/>
      <point x="253" y="949"/>
      <point x="332" y="888" type="curve"/>
      <point x="370" y="863"/>
      <point x="412" y="852"/>
      <point x="468" y="852" type="curve" smooth="yes"/>
      <point x="557" y="852"/>
      <point x="633" y="905"/>
      <point x="633" y="984" type="curve" smooth="yes"/>
      <point x="633" y="1039"/>
      <point x="580" y="1078"/>
      <point x="514" y="1078" type="curve" smooth="yes"/>
      <point x="472" y="1078"/>
      <point x="443" y="1067"/>
      <point x="416" y="1046" type="curve"/>
      <point x="409" y="1063"/>
      <point x="405" y="1088"/>
      <point x="405" y="1125" type="curve" smooth="yes"/>
      <point x="405" y="1231"/>
      <point x="517" y="1310"/>
      <point x="689" y="1310" type="curve" smooth="yes"/>
      <point x="869" y="1310"/>
      <point x="1004" y="1235"/>
      <point x="1004" y="1024" type="curve" smooth="yes"/>
      <point x="1004" y="720"/>
      <point x="370" y="467"/>
      <point x="217" y="425" type="curve"/>
      <point x="217" y="256"/>
      <point x="372" y="0"/>
      <point x="597" y="0" type="curve" smooth="yes"/>
      <point x="796" y="0"/>
      <point x="934" y="134"/>
      <point x="1004" y="209" type="curve"/>
      <point x="1004" y="-170" type="line" smooth="yes"/>
      <point x="1004" y="-197"/>
      <point x="1017" y="-230"/>
      <point x="1043" y="-230" type="curve" smooth="yes"/>
      <point x="1225" y="-230" type="line"/>
      <point x="1201" y="-227"/>
      <point x="1192" y="-196"/>
      <point x="1192" y="-170" type="curve" smooth="yes"/>
      <point x="1192" y="584" type="line"/>
      <point x="1004" y="584" type="line"/>
      <point x="1004" y="409" type="line"/>
      <point x="974" y="339"/>
      <point x="789" y="130"/>
      <point x="604" y="130" type="curve" smooth="yes"/>
      <point x="498" y="130"/>
      <point x="425" y="269"/>
    </contour>
  </outline>
</glyph>
<glyph name="uni17B7" format="2">
  <unicode hex="17B7"/>
  <anchor x="-245" y="2063" name="U"/>
  <anchor x="-245" y="1440" name="_U"/>
  <anchor x="-719" y="2013" name="um"/>
  <outline>
    <contour>
      <point x="-838" y="1679" type="curve" smooth="yes"/>
      <point x="-694" y="1679"/>
      <point x="-568" y="1651"/>
      <point x="-466" y="1626" type="curve" smooth="yes"/>
      <point x="-391" y="1607"/>
      <point x="-332" y="1590"/>
      <point x="-276" y="1590" type="curve" smooth="yes"/>
      <point x="-229" y="1590"/>
      <point x="-197" y="1636"/>
      <point x="-197" y="1669" type="curve" smooth="yes"/>
      <point x="-197" y="1693"/>
      <point x="-204" y="1704"/>
      <point x="-208" y="1715" type="curve"/>
      <point x="-321" y="1905"/>
      <point x="-601" y="2063"/>
      <point x="-808" y="2063" type="curve" smooth="yes"/>
      <point x="-1013" y="2063"/>
      <point x="-1202" y="1937"/>
      <point x="-1202" y="1805" type="curve" smooth="yes"/>
      <point x="-1202" y="1719"/>
      <point x="-1141" y="1666"/>
      <point x="-1051" y="1666" type="curve" smooth="yes"/>
      <point x="-989" y="1666"/>
      <point x="-898" y="1679"/>
    </contour>
    <contour>
      <point x="-819" y="1809" type="curve" smooth="yes"/>
      <point x="-881" y="1809"/>
      <point x="-907" y="1800"/>
      <point x="-965" y="1800" type="curve" smooth="yes"/>
      <point x="-990" y="1800"/>
      <point x="-1005" y="1815"/>
      <point x="-1005" y="1829" type="curve" smooth="yes"/>
      <point x="-1005" y="1887"/>
      <point x="-897" y="1933"/>
      <point x="-808" y="1933" type="curve" smooth="yes"/>
      <point x="-676" y="1933"/>
      <point x="-497" y="1828"/>
      <point x="-429" y="1750" type="curve"/>
      <point x="-490" y="1770"/>
      <point x="-666" y="1809"/>
    </contour>
  </outline>
</glyph>
<glyph name="uni17C3" format="2">
  <advance width="729"/>
  <unicode hex="17C3"/>
  <outline>
    <contour>
      <point x="295" y="923" type="curve"/>
      <point x="295" y="79" type="line"/>
      <point x="320" y="16"/>
      <point x="401" y="0"/>
      <point x="466" y="0" type="curve"/>
      <point x="632" y="31"/>
      <point x="710" y="169"/>
      <point x="710" y="248" type="curve" smooth="yes"/>
      <point x="710" y="376"/>
      <point x="610" y="444"/>
      <point x="483" y="451" type="curve"/>
      <point x="483" y="980" type="line" smooth="yes"/>
      <point x="483" y="1024"/>
      <point x="420" y="1054"/>
      <point x="341" y="1092" type="curve" smooth="yes"/>
      <point x="293" y="1115"/>
      <point x="245" y="1138"/>
      <point x="245" y="1193" type="curve" smooth="yes"/>
      <point x="245" y="1242"/>
      <point x="273" y="1282"/>
      <point x="309" y="1282" type="curve" smooth="yes"/>
      <point x="320" y="1282"/>
      <point x="341" y="1276"/>
      <point x="371" y="1253" type="curve" smooth="yes"/>
      <point x="399" y="1231"/>
      <point x="438" y="1204"/>
      <point x="502" y="1204" type="curve" smooth="yes"/>
      <point x="599" y="1204"/>
      <point x="652" y="1257"/>
      <point x="656" y="1374" type="curve"/>
      <point x="633" y="1354"/>
      <point x="610" y="1346"/>
      <point x="595" y="1346" type="curve" smooth="yes"/>
      <point x="554" y="1346"/>
      <point x="513" y="1370"/>
      <point x="475" y="1396" type="curve" smooth="yes"/>
      <point x="441" y="1418"/>
      <point x="407" y="1440"/>
      <point x="359" y="1440" type="curve" smooth="yes"/>
      <point x="245" y="1440"/>
      <point x="122" y="1306"/>
      <point x="122" y="1189" type="curve" smooth="yes"/>
      <point x="122" y="1118"/>
      <point x="145" y="1063"/>
      <point x="227" y="1016" type="curve"/>
      <point x="262" y="1002"/>
      <point x="295" y="980"/>
    </contour>
    <contour>
      <point x="375" y="1590" type="curve" smooth="yes"/>
      <point x="511" y="1590"/>
      <point x="621" y="1693"/>
      <point x="621" y="1815" type="curve" smooth="yes"/>
      <point x="621" y="1909"/>
      <point x="541" y="2052"/>
      <point x="345" y="2079" type="curve"/>
      <point x="290" y="2090"/>
      <point x="226" y="2139"/>
      <point x="226" y="2230" type="curve" smooth="yes"/>
      <point x="226" y="2303"/>
      <point x="162" y="2388"/>
      <point x="0" y="2399" type="curve"/>
      <point x="36" y="2371"/>
      <point x="58" y="2335"/>
      <point x="58" y="2259" type="curve" smooth="yes"/>
      <point x="58" y="2083"/>
      <point x="164" y="1966"/>
      <point x="319" y="1947" type="curve" smooth="yes"/>
      <point x="398" y="1937"/>
      <point x="453" y="1873"/>
      <point x="453" y="1815" type="curve" smooth="yes"/>
      <point x="453" y="1760"/>
      <point x="420" y="1726"/>
      <point x="375" y="1726" type="curve" smooth="yes"/>
      <point x="354" y="1726"/>
      <point x="330" y="1737"/>
      <point x="311" y="1764" type="curve"/>
      <point x="294" y="1794"/>
      <point x="269" y="1813"/>
      <point x="226" y="1813" type="curve" smooth="yes"/>
      <point x="172" y="1813"/>
      <point x="148" y="1783"/>
      <point x="148" y="1755" type="curve" smooth="yes"/>
      <point x="148" y="1682"/>
      <point x="247" y="1590"/>
    </contour>
    <contour>
      <point x="588" y="257" type="curve" smooth="yes"/>
      <point x="588" y="196"/>
      <point x="534" y="159"/>
      <point x="483" y="137" type="curve"/>
      <point x="483" y="345" type="line"/>
      <point x="531" y="338"/>
      <point x="588" y="307"/>
    </contour>
  </outline>
</glyph>
<glyph name="uni17CE" format="2">
  <unicode hex="17CE"/>
  <anchor x="-245" y="1920" name="U"/>
  <anchor x="-719" y="1440" name="_um"/>
  <anchor x="-719" y="1970" name="um"/>
  <outline>
    <contour>
      <point x="-950" y="1728" type="line"/>
      <point x="-803" y="1728" type="line"/>
      <point x="-803" y="1590" type="line"/>
      <point x="-635" y="1590" type="line"/>
      <point x="-635" y="1728" type="line"/>
      <point x="-488" y="1728" type="line"/>
      <point x="-488" y="1883" type="line"/>
      <point x="-635" y="1883" type="line"/>
      <point x="-635" y="2020" type="line"/>
      <point x="-803" y="2020" type="line"/>
      <point x="-803" y="1883" type="line"/>
      <point x="-950" y="1883" type="line"/>
    </contour>
  </outline>
</glyph>
<glyph name="uni17CF" format="2">
  <unicode hex="17CF"/>
  <anchor x="-245" y="2228" name="U"/>
  <anchor x="-719" y="1440" name="_um"/>
  <anchor x="-719" y="2178" name="um"/>
  <outline>
    <contour>
      <point x="-1113" y="1812" type="curve" smooth="yes"/>
      <point x="-1113" y="1695"/>
      <point x="-1025" y="1590"/>
      <point x="-912" y="1590" type="curve" smooth="yes"/>
      <point x="-824" y="1590"/>
      <point x="-791" y="1655"/>
      <point x="-719" y="1655" type="curve" smooth="yes"/>
      <point x="-657" y="1655"/>
      <point x="-626" y="1590"/>
      <point x="-536" y="1590" type="curve" smooth="yes"/>
      <point x="-384" y="1590"/>
      <point x="-325" y="1688"/>
      <point x="-325" y="1766" type="curve" smooth="yes"/>
      <point x="-325" y="1809"/>
      <point x="-352" y="1870"/>
      <point x="-440" y="1870" type="curve" smooth="yes"/>
      <point x="-490" y="1870"/>
      <point x="-507" y="1840"/>
      <point x="-507" y="1820" type="curve" smooth="yes"/>
      <point x="-507" y="1800"/>
      <point x="-488" y="1790"/>
      <point x="-488" y="1770" type="curve" smooth="yes"/>
      <point x="-488" y="1748"/>
      <point x="-516" y="1732"/>
      <point x="-551" y="1732" type="curve" smooth="yes"/>
      <point x="-603" y="1732"/>
      <point x="-651" y="1800"/>
      <point x="-719" y="1800" type="curve" smooth="yes"/>
      <point x="-783" y="1800"/>
      <point x="-831" y="1732"/>
      <point x="-884" y="1732" type="curve" smooth="yes"/>
      <point x="-921" y="1732"/>
      <point x="-945" y="1771"/>
      <point x="-945" y="1812" type="curve" smooth="yes"/>
      <point x="-945" y="1876"/>
      <point x="-891" y="1909"/>
      <point x="-835" y="1909" type="curve" smooth="yes"/>
      <point x="-750" y="1909"/>
      <point x="-710" y="1872"/>
      <point x="-633" y="1872" type="curve" smooth="yes"/>
      <point x="-476" y="1872"/>
      <point x="-384" y="1955"/>
      <point x="-384" y="2048" type="curve" smooth="yes"/>
      <point x="-384" y="2142"/>
      <point x="-355" y="2188"/>
      <point x="-333" y="2214" type="curve"/>
      <point x="-355" y="2224"/>
      <point x="-380" y="2228"/>
      <point x="-408" y="2228" type="curve" smooth="yes"/>
      <point x="-483" y="2228"/>
      <point x="-544" y="2165"/>
      <point x="-544" y="2109" type="curve" smooth="yes"/>
      <point x="-544" y="2033"/>
      <point x="-569" y="2019"/>
      <point x="-644" y="2019" type="curve"/>
      <point x="-713" y="2021"/>
      <point x="-777" y="2056"/>
      <point x="-853" y="2056" type="curve" smooth="yes"/>
      <point x="-989" y="2056"/>
      <point x="-1113" y="1959"/>
    </contour>
  </outline>
</glyph>
<glyph name="uni17D0" format="2">
  <unicode hex="17D0"/>
  <anchor x="-245" y="2236" name="U"/>
  <anchor x="-245" y="1440" name="_U"/>
  <anchor x="-719" y="2236" name="um"/>
  <outline>
    <contour>
      <point x="-262" y="2010" type="curve" smooth="yes"/>
      <point x="-262" y="2085"/>
      <point x="-345" y="2107"/>
      <point x="-394" y="2107" type="curve"/>
      <point x="-494" y="2107"/>
      <point x="-562" y="2046"/>
      <point x="-562" y="1956" type="curve"/>
      <point x="-562" y="1821"/>
      <point x="-454" y="1660"/>
      <point x="-243" y="1660" type="curve"/>
      <point x="-11" y="1660"/>
      <point x="187" y="1810"/>
      <point x="187" y="2092" type="curve"/>
      <point x="187" y="2149"/>
      <point x="172" y="2208"/>
      <point x="128" y="2261" type="curve"/>
      <point x="86" y="2310"/>
      <point x="26" y="2336"/>
      <point x="-49" y="2336" type="curve"/>
      <point x="-86" y="2336"/>
      <point x="-124" y="2310"/>
      <point x="-124" y="2272" type="curve"/>
      <point x="-124" y="2238"/>
      <point x="-100" y="2197"/>
      <point x="-33" y="2163" type="curve"/>
      <point x="19" y="2133"/>
      <point x="29" y="2092"/>
      <point x="29" y="2042" type="curve"/>
      <point x="29" y="1975"/>
      <point x="4" y="1907"/>
      <point x="-35" y="1866" type="curve"/>
      <point x="-94" y="1803"/>
      <point x="-164" y="1772"/>
      <point x="-243" y="1772" type="curve"/>
      <point x="-319" y="1772"/>
      <point x="-384" y="1841"/>
      <point x="-384" y="1896" type="curve"/>
      <point x="-323" y="1903"/>
      <point x="-262" y="1950"/>
    </contour>
  </outline>
</glyph>
<glyph name="uni17D3" format="2">
  <unicode hex="17D3"/>
  <anchor x="-245" y="2034" name="U"/>
  <anchor x="-476" y="1440" name="_um"/>
  <anchor x="-476" y="1984" name="um"/>
  <outline>
    <contour>
      <point x="-642" y="1812" type="curve" smooth="yes"/>
      <point x="-642" y="1856"/>
      <point x="-601" y="1904"/>
      <point x="-550" y="1904" type="curve" smooth="yes"/>
      <point x="-403" y="1904" type="line" smooth="yes"/>
      <point x="-352" y="1904"/>
      <point x="-311" y="1856"/>
      <point x="-311" y="1812" type="curve" smooth="yes"/>
      <point x="-311" y="1768"/>
      <point x="-352" y="1720"/>
      <point x="-403" y="1720" type="curve" smooth="yes"/>
      <point x="-550" y="1720" type="line" smooth="yes"/>
      <point x="-601" y="1720"/>
      <point x="-642" y="1768"/>
    </contour>
    <contour>
      <point x="-806" y="1812" type="curve" smooth="yes"/>
      <point x="-806" y="1691"/>
      <point x="-707" y="1590"/>
      <point x="-550" y="1590" type="curve" smooth="yes"/>
      <point x="-403" y="1590" type="line" smooth="yes"/>
      <point x="-246" y="1590"/>
      <point x="-147" y="1691"/>
      <point x="-147" y="1812" type="curve" smooth="yes"/>
      <point x="-147" y="1933"/>
      <point x="-246" y="2034"/>
      <point x="-403" y="2034" type="curve" smooth="yes"/>
      <point x="-550" y="2034" type="line" smooth="yes"/>
      <point x="-707" y="2034"/>
      <point x="-806" y="1933"/>
    </contour>
  </outline>
</glyph>
<glyph name="uni17D5" format="2">
  <advance width="2676"/>
  <unicode hex="17D5"/>
  <outline>
    <component base="uni17D4" xOffset="-2"/>
    <contour>
      <point x="1860" y="1440" type="line"/>
      <point x="1860" y="0" type="line"/>
      <point x="2086" y="0" type="line"/>
      <point x="2086" y="1440" type="line"/>
    </contour>
  </outline>
</glyph>
<glyph name="uni17D8" format="2">
  <advance width="4302"/>
  <unicode hex="17D8"/>
  <outline>
    <component base="uni17D4" xOffset="-749"/>
    <component base="uni17D4" xOffset="2383"/>
    <contour>
      <point x="1385" y="1253" type="curve" smooth="yes"/>
      <point x="1385" y="79" type="line"/>
      <point x="1410" y="16"/>
      <point x="1491" y="0"/>
      <point x="1556" y="0" type="curve"/>
      <point x="1722" y="31"/>
      <point x="1800" y="169"/>
      <point x="1800" y="248" type="curve" smooth="yes"/>
      <point x="1800" y="376"/>
      <point x="1700" y="444"/>
      <point x="1573" y="451" type="curve"/>
      <point x="1573" y="1246" type="line" smooth="yes"/>
      <point x="1573" y="1301"/>
      <point x="1693" y="1328"/>
      <point x="1779" y="1328" type="curve" smooth="yes"/>
      <point x="1865" y="1328"/>
      <point x="1985" y="1301"/>
      <point x="1985" y="1246" type="curve" smooth="yes"/>
      <point x="1985" y="187" type="line" smooth="yes"/>
      <point x="1985" y="87"/>
      <point x="2183" y="0"/>
      <point x="2379" y="0" type="curve" smooth="yes"/>
      <point x="2575" y="0"/>
      <point x="2773" y="87"/>
      <point x="2773" y="187" type="curve" smooth="yes"/>
      <point x="2773" y="980" type="line" smooth="yes"/>
      <point x="2773" y="1024"/>
      <point x="2710" y="1054"/>
      <point x="2631" y="1092" type="curve" smooth="yes"/>
      <point x="2583" y="1115"/>
      <point x="2535" y="1138"/>
      <point x="2535" y="1193" type="curve" smooth="yes"/>
      <point x="2535" y="1242"/>
      <point x="2563" y="1282"/>
      <point x="2599" y="1282" type="curve" smooth="yes"/>
      <point x="2610" y="1282"/>
      <point x="2631" y="1276"/>
      <point x="2661" y="1253" type="curve" smooth="yes"/>
      <point x="2689" y="1231"/>
      <point x="2728" y="1204"/>
      <point x="2792" y="1204" type="curve" smooth="yes"/>
      <point x="2889" y="1204"/>
      <point x="2942" y="1257"/>
      <point x="2946" y="1374" type="curve"/>
      <point x="2923" y="1354"/>
      <point x="2900" y="1346"/>
      <point x="2885" y="1346" type="curve" smooth="yes"/>
      <point x="2844" y="1346"/>
      <point x="2803" y="1370"/>
      <point x="2765" y="1396" type="curve" smooth="yes"/>
      <point x="2731" y="1418"/>
      <point x="2697" y="1440"/>
      <point x="2649" y="1440" type="curve" smooth="yes"/>
      <point x="2535" y="1440"/>
      <point x="2412" y="1306"/>
      <point x="2412" y="1189" type="curve" smooth="yes"/>
      <point x="2412" y="1118"/>
      <point x="2435" y="1063"/>
      <point x="2517" y="1016" type="curve"/>
      <point x="2552" y="1002"/>
      <point x="2585" y="980"/>
      <point x="2585" y="923" type="curve" smooth="yes"/>
      <point x="2585" y="194" type="line" smooth="yes"/>
      <point x="2585" y="139"/>
      <point x="2465" y="112"/>
      <point x="2379" y="112" type="curve" smooth="yes"/>
      <point x="2293" y="112"/>
      <point x="2173" y="139"/>
      <point x="2173" y="194" type="curve" smooth="yes"/>
      <point x="2173" y="1253" type="line" smooth="yes"/>
      <point x="2173" y="1353"/>
      <point x="1975" y="1440"/>
      <point x="1779" y="1440" type="curve" smooth="yes"/>
      <point x="1583" y="1440"/>
      <point x="1385" y="1353"/>
    </contour>
    <contour>
      <point x="1678" y="257" type="curve" smooth="yes"/>
      <point x="1678" y="196"/>
      <point x="1624" y="159"/>
      <point x="1573" y="137" type="curve"/>
      <point x="1573" y="345" type="line"/>
      <point x="1621" y="338"/>
      <point x="1678" y="307"/>
    </contour>
  </outline>
</glyph>
<glyph name="uni17D9" format="2">
  <advance width="1742"/>
  <unicode hex="17D9"/>
  <outline>
    <contour>
      <point x="579" y="1440" type="line" smooth="yes"/>
      <point x="385" y="1440"/>
      <point x="295" y="1357"/>
      <point x="295" y="1193" type="curve" smooth="yes"/>
      <point x="295" y="247" type="line" smooth="yes"/>
      <point x="295" y="83"/>
      <point x="385" y="0"/>
      <point x="579" y="0" type="curve" smooth="yes"/>
      <point x="1195" y="0" type="line" smooth="yes"/>
      <point x="1391" y="0"/>
      <point x="1497" y="83"/>
      <point x="1497" y="247" type="curve" smooth="yes"/>
      <point x="1497" y="1193" type="line" smooth="yes"/>
      <point x="1497" y="1357"/>
      <point x="1391" y="1440"/>
      <point x="1195" y="1440" type="curve" smooth="yes"/>
    </contour>
    <contour>
      <point x="643" y="1291" type="curve" smooth="yes"/>
      <point x="1147" y="1291" type="line" smooth="yes"/>
      <point x="1259" y="1291"/>
      <point x="1309" y="1220"/>
      <point x="1309" y="1078" type="curve" smooth="yes"/>
      <point x="1309" y="348" type="line" smooth="yes"/>
      <point x="1309" y="218"/>
      <point x="1245" y="151"/>
      <point x="1101" y="151" type="curve" smooth="yes"/>
      <point x="693" y="151" type="line" smooth="yes"/>
      <point x="551" y="151"/>
      <point x="483" y="218"/>
      <point x="483" y="348" type="curve" smooth="yes"/>
      <point x="483" y="1078" type="line" smooth="yes"/>
      <point x="483" y="1220"/>
      <point x="536" y="1291"/>
    </contour>
    <contour>
      <point x="783" y="1142" type="line" smooth="yes"/>
      <point x="696" y="1142"/>
      <point x="632" y="1078"/>
      <point x="632" y="991" type="curve" smooth="yes"/>
      <point x="632" y="451" type="line" smooth="yes"/>
      <point x="632" y="364"/>
      <point x="696" y="300"/>
      <point x="783" y="300" type="curve" smooth="yes"/>
      <point x="1009" y="300" type="line"/>
      <point x="1094" y="307"/>
      <point x="1158" y="364"/>
      <point x="1158" y="451" type="curve" smooth="yes"/>
      <point x="1158" y="991" type="line" smooth="yes"/>
      <point x="1158" y="1078"/>
      <point x="1094" y="1142"/>
      <point x="1009" y="1142" type="curve" smooth="yes"/>
    </contour>
    <contour>
      <point x="900" y="991" type="curve" smooth="yes"/>
      <point x="930" y="991"/>
      <point x="970" y="971"/>
      <point x="970" y="931" type="curve" smooth="yes"/>
      <point x="970" y="515" type="line" smooth="yes"/>
      <point x="970" y="473"/>
      <point x="926" y="451"/>
      <point x="896" y="451" type="curve" smooth="yes"/>
      <point x="865" y="451"/>
      <point x="820" y="473"/>
      <point x="820" y="515" type="curve" smooth="yes"/>
      <point x="820" y="931" type="line" smooth="yes"/>
      <point x="820" y="971"/>
      <point x="869" y="991"/>
    </contour>
  </outline>
</glyph>
<glyph name="uni17E8" format="2">
  <advance width="1270"/>
  <unicode hex="17E8"/>
  <outline>
    <contour>
      <point x="138" y="526" type="curve" smooth="yes"/>
      <point x="138" y="168"/>
      <point x="284" y="0"/>
      <point x="399" y="0" type="curve"/>
      <point x="513" y="0"/>
      <point x="588" y="53"/>
      <point x="643" y="104" type="curve"/>
      <point x="700" y="53"/>
      <point x="779" y="0"/>
      <point x="888" y="0" type="curve"/>
      <point x="1018" y="0"/>
      <point x="1114" y="282"/>
      <point x="1114" y="443" type="curve"/>
      <point x="1114" y="612"/>
      <point x="1026" y="752"/>
      <point x="854" y="752" type="curve"/>
      <point x="735" y="752"/>
      <point x="640" y="669"/>
      <point x="640" y="566" type="curve"/>
      <point x="640" y="511"/>
      <point x="665" y="420"/>
      <point x="773" y="420" type="curve"/>
      <point x="848" y="420"/>
      <point x="906" y="469"/>
      <point x="906" y="533" type="curve"/>
      <point x="906" y="566"/>
      <point x="888" y="605"/>
      <point x="869" y="612" type="curve"/>
      <point x="872" y="616"/>
      <point x="876" y="620"/>
      <point x="884" y="620" type="curve" smooth="yes"/>
      <point x="910" y="620"/>
      <point x="946" y="502"/>
      <point x="946" y="436" type="curve"/>
      <point x="946" y="358"/>
      <point x="910" y="154"/>
      <point x="835" y="154" type="curve"/>
      <point x="805" y="154"/>
      <point x="711" y="229"/>
      <point x="643" y="296" type="curve"/>
      <point x="577" y="229"/>
      <point x="490" y="151"/>
      <point x="452" y="151" type="curve"/>
      <point x="348" y="151"/>
      <point x="326" y="383"/>
      <point x="326" y="505" type="curve"/>
      <point x="326" y="841"/>
      <point x="430" y="995"/>
      <point x="502" y="995" type="curve"/>
      <point x="603" y="995"/>
      <point x="742" y="916"/>
      <point x="846" y="916" type="curve"/>
      <point x="997" y="916"/>
      <point x="1090" y="1065"/>
      <point x="1090" y="1244" type="curve"/>
      <point x="1090" y="1305"/>
      <point x="1029" y="1440"/>
      <point x="1029" y="1508" type="curve"/>
      <point x="1029" y="1598"/>
      <point x="1061" y="1671"/>
      <point x="1143" y="1671" type="curve"/>
      <point x="1108" y="1711"/>
      <point x="1080" y="1743"/>
      <point x="1004" y="1743" type="curve" smooth="yes"/>
      <point x="907" y="1743"/>
      <point x="850" y="1643"/>
      <point x="850" y="1528" type="curve"/>
      <point x="850" y="1444"/>
      <point x="903" y="1331"/>
      <point x="903" y="1248" type="curve"/>
      <point x="903" y="1158"/>
      <point x="884" y="1083"/>
      <point x="805" y="1083" type="curve"/>
      <point x="688" y="1106"/>
      <point x="610" y="1162"/>
      <point x="456" y="1162" type="curve" smooth="yes"/>
      <point x="348" y="1162"/>
      <point x="138" y="988"/>
    </contour>
  </outline>
</glyph>
<glyph name="uni17F2" format="2">
  <advance width="620"/>
  <unicode hex="17F2"/>
  <outline>
    <contour>
      <point x="400" y="294" type="line"/>
      <point x="400" y="1187" type="line"/>
      <point x="220" y="1187" type="line"/>
      <point x="220" y="294" type="line"/>
    </contour>
  </outline>
</glyph>
<glyph name="uni17F9" format="2">
  <advance width="1732"/>
  <unicode hex="17F9"/>
  <outline>
    <contour>
      <point x="780" y="294" type="line"/>
      <point x="1049" y="950" type="line"/>
      <point x="1318" y="294" type="line"/>
      <point x="1512" y="294" type="line"/>
      <point x="1146" y="1187" type="line"/>
      <point x="952" y="1187" type="line"/>
      <point x="683" y="530" type="line"/>
      <point x="414" y="1187" type="line"/>
      <point x="220" y="1187" type="line"/>
      <point x="586" y="294" type="line"/>
    </contour>
  </outline>
</glyph>
<glyph name="uni1EBC" format="2">
  <advance width="1321"/>
  <unicode hex="1EBC"/>
  <outline>
    <contour>
      <point x="41" y="1437" type="line"/>
      <point x="41" y="1400" type="line"/>
      <point x="191" y="1400"/>
      <point x="247" y="1362"/>
      <point x="247" y="1209" type="curve" smooth="yes"/>
      <point x="247" y="229" type="line" smooth="yes"/>
      <point x="247" y="75"/>
      <point x="191" y="37"/>
      <point x="41" y="37" type="curve"/>
      <point x="41" y="0" type="line"/>
      <point x="1152" y="0" type="line"/>
      <point x="1283" y="404" type="line"/>
      <point x="1231" y="404" type="line"/>
      <point x="1175" y="221"/>
      <point x="1052" y="71"/>
      <point x="850" y="71" type="curve" smooth="yes"/>
      <point x="551" y="71" type="line" smooth="yes"/>
      <point x="501" y="71"/>
      <point x="468" y="112"/>
      <point x="464" y="161" type="curve"/>
      <point x="464" y="749" type="line"/>
      <point x="778" y="749" type="line" smooth="yes"/>
      <point x="894" y="749"/>
      <point x="992" y="692"/>
      <point x="992" y="520" type="curve"/>
      <point x="1029" y="520" type="line"/>
      <point x="1029" y="1007" type="line"/>
      <point x="992" y="1007" type="line"/>
      <point x="992" y="869"/>
      <point x="894" y="819"/>
      <point x="775" y="819" type="curve" smooth="yes"/>
      <point x="464" y="819" type="line"/>
      <point x="464" y="1366" type="line"/>
      <point x="827" y="1366" type="line" smooth="yes"/>
      <point x="1018" y="1366"/>
      <point x="1089" y="1269"/>
      <point x="1123" y="1096" type="curve"/>
      <point x="1164" y="1096" type="line"/>
      <point x="1145" y="1437" type="line"/>
    </contour>
    <contour>
      <point x="335" y="1558" type="line"/>
      <point x="346" y="1618"/>
      <point x="369" y="1670"/>
      <point x="444" y="1670" type="curve" smooth="yes"/>
      <point x="489" y="1670"/>
      <point x="545" y="1652"/>
      <point x="605" y="1614" type="curve" smooth="yes"/>
      <point x="664" y="1577"/>
      <point x="728" y="1558"/>
      <point x="799" y="1558" type="curve" smooth="yes"/>
      <point x="957" y="1558"/>
      <point x="1009" y="1670"/>
      <point x="1009" y="1801" type="curve"/>
      <point x="979" y="1801" type="line"/>
      <point x="968" y="1742"/>
      <point x="945" y="1693"/>
      <point x="870" y="1693" type="curve" smooth="yes"/>
      <point x="826" y="1693"/>
      <point x="770" y="1708"/>
      <point x="710" y="1745" type="curve" smooth="yes"/>
      <point x="649" y="1783"/>
      <point x="586" y="1801"/>
      <point x="515" y="1801" type="curve" smooth="yes"/>
      <point x="358" y="1801"/>
      <point x="302" y="1693"/>
      <point x="302" y="1558" type="curve"/>
    </contour>
  </outline>
</glyph>
<glyph name="uni1EC1" format="2">
  <advance width="977"/>
  <unicode hex="1EC1"/>
  <outline>
    <contour>
      <point x="501" y="-23" type="curve" smooth="yes"/>
      <point x="682" y="-23"/>
      <point x="869" y="142"/>
      <point x="921" y="341" type="curve"/>
      <point x="880" y="348" type="line"/>
      <point x="850" y="225"/>
      <point x="700" y="127"/>
      <point x="551" y="127" type="curve" smooth="yes"/>
      <point x="366" y="127"/>
      <point x="235" y="337"/>
      <point x="235" y="599" type="curve"/>
      <point x="894" y="599" type="line"/>
      <point x="894" y="816"/>
      <point x="734" y="992"/>
      <point x="501" y="992" type="curve" smooth="yes"/>
      <point x="239" y="992"/>
      <point x="67" y="763"/>
      <point x="67" y="449" type="curve" smooth="yes"/>
      <point x="67" y="191"/>
      <point x="262" y="-23"/>
    </contour>
    <contour>
      <point x="235" y="651" type="line"/>
      <point x="247" y="797"/>
      <point x="341" y="921"/>
      <point x="449" y="921" type="curve" smooth="yes"/>
      <point x="576" y="921"/>
      <point x="678" y="797"/>
      <point x="678" y="651" type="curve"/>
    </contour>
    <contour>
      <point x="393" y="1471" type="line"/>
      <point x="183" y="1119" type="line"/>
      <point x="217" y="1119" type="line"/>
      <point x="494" y="1343" type="line"/>
      <point x="771" y="1119" type="line"/>
      <point x="809" y="1119" type="line"/>
      <point x="595" y="1471" type="line"/>
    </contour>
    <contour>
      <point x="-75" y="1824" type="line"/>
      <point x="224" y="1449" type="line"/>
      <point x="284" y="1449" type="line"/>
      <point x="171" y="1824" type="line"/>
    </contour>
  </outline>
</glyph>
<glyph name="uni1EC9" format="2">
  <advance width="588"/>
  <unicode hex="1EC9"/>
  <outline>
    <contour>
      <point x="217" y="225" type="line" smooth="yes"/>
      <point x="217" y="90"/>
      <point x="195" y="37"/>
      <point x="67" y="37" type="curve"/>
      <point x="67" y="0" type="line"/>
      <point x="547" y="0" type="line"/>
      <point x="547" y="37" type="line"/>
      <point x="420" y="37"/>
      <point x="393" y="90"/>
      <point x="393" y="225" type="curve" smooth="yes"/>
      <point x="393" y="992" type="line"/>
      <point x="341" y="992" type="line"/>
      <point x="52" y="861" type="line"/>
      <point x="67" y="823" type="line"/>
      <point x="104" y="834"/>
      <point x="135" y="842"/>
      <point x="154" y="842" type="curve" smooth="yes"/>
      <point x="217" y="842"/>
      <point x="217" y="794"/>
      <point x="217" y="682" type="curve" smooth="yes"/>
    </contour>
    <contour>
      <point x="256" y="1113" type="curve"/>
      <point x="314" y="1113" type="line"/>
      <point x="314" y="1259"/>
      <point x="456" y="1307"/>
      <point x="456" y="1430" type="curve" smooth="yes"/>
      <point x="456" y="1506"/>
      <point x="387" y="1560"/>
      <point x="284" y="1560" type="curve" smooth="yes"/>
      <point x="193" y="1560"/>
      <point x="129" y="1516"/>
      <point x="129" y="1447" type="curve" smooth="yes"/>
      <point x="129" y="1409"/>
      <point x="157" y="1375"/>
      <point x="202" y="1375" type="curve" smooth="yes"/>
      <point x="233" y="1375"/>
      <point x="250" y="1396"/>
      <point x="250" y="1416" type="curve" smooth="yes"/>
      <point x="250" y="1440"/>
      <point x="216" y="1457"/>
      <point x="216" y="1480" type="curve" smooth="yes"/>
      <point x="216" y="1501"/>
      <point x="238" y="1519"/>
      <point x="276" y="1519" type="curve" smooth="yes"/>
      <point x="325" y="1519"/>
      <point x="360" y="1491"/>
      <point x="360" y="1425" type="curve" smooth="yes"/>
      <point x="360" y="1306"/>
      <point x="256" y="1245"/>
    </contour>
  </outline>
</glyph>
<glyph name="guilsinglleft" format="2">
  <advance width="696"/>
  <unicode hex="2039"/>
  <outline>
    <contour>
      <point x="591" y="0" type="line"/>
      <point x="322" y="487" type="line"/>
      <point x="591" y="969" type="line"/>
      <point x="528" y="969" type="line"/>
      <point x="104" y="487" type="line"/>
      <point x="528" y="0" type="line"/>
    </contour>
  </outline>
</glyph>
<glyph name="guilsinglright" format="2">
  <advance width="696"/>
  <unicode hex="203A"/>
  <outline>
    <contour>
      <point x="104" y="0" type="line"/>
      <point x="172" y="0" type="line"/>
      <point x="591" y="487" type="line"/>
      <point x="172" y="969" type="line"/>
      <point x="104" y="969" type="line"/>
      <point x="378" y="487" type="line"/>
    </contour>
  </outline>
</glyph>
<glyph name="fraction" format="2">
  <advance width="1173"/>
  <unicode hex="2044"/>
  <outline>
    <contour>
      <point x="124" y="-30" type="line"/>
      <point x="1173" y="1470" type="line"/>
      <point x="1049" y="1470" type="line"/>
      <point x="0" y="-30" type="line"/>
    </contour>
  </outline>
</glyph>
<glyph name="uni207F" format="2">
  <advance width="734"/>
  <unicode hex="207F"/>
  <outline>
    <contour>
      <point x="127" y="971" type="line" smooth="yes"/>
      <point x="127" y="882"/>
      <point x="110" y="847"/>
      <point x="27" y="847" type="curve"/>
      <point x="27" y="823" type="line"/>
      <point x="343" y="823" type="line"/>
      <point x="343" y="847" type="line"/>
      <point x="258" y="847"/>
      <point x="243" y="882"/>
      <point x="243" y="971" type="curve" smooth="yes"/>
      <point x="243" y="1300" type="line"/>
      <point x="292" y="1354"/>
      <point x="358" y="1391"/>
      <point x="406" y="1391" type="curve" smooth="yes"/>
      <point x="460" y="1391"/>
      <point x="497" y="1347"/>
      <point x="497" y="1262" type="curve" smooth="yes"/>
      <point x="497" y="971" type="line" smooth="yes"/>
      <point x="497" y="882"/>
      <point x="483" y="847"/>
      <point x="399" y="847" type="curve"/>
      <point x="399" y="823" type="line"/>
      <point x="715" y="823" type="line"/>
      <point x="715" y="847" type="line"/>
      <point x="630" y="847"/>
      <point x="614" y="882"/>
      <point x="614" y="971" type="curve" smooth="yes"/>
      <point x="614" y="1283" type="line" smooth="yes"/>
      <point x="614" y="1391"/>
      <point x="551" y="1478"/>
      <point x="468" y="1478" type="curve" smooth="yes"/>
      <point x="389" y="1478"/>
      <point x="312" y="1433"/>
      <point x="243" y="1347" type="curve"/>
      <point x="243" y="1478" type="line"/>
      <point x="210" y="1478" type="line"/>
      <point x="19" y="1391" type="line"/>
      <point x="29" y="1366" type="line"/>
      <point x="52" y="1372"/>
      <point x="71" y="1378"/>
      <point x="86" y="1378" type="curve" smooth="yes"/>
      <point x="127" y="1378"/>
      <point x="127" y="1347"/>
      <point x="127" y="1272" type="curve" smooth="yes"/>
    </contour>
  </outline>
</glyph>
<glyph name="Delta" format="2">
  <advance width="1306"/>
  <unicode hex="2206"/>
  <outline>
    <contour>
      <point x="1019" y="115" type="line"/>
      <point x="164" y="115" type="line"/>
      <point x="618" y="1084" type="line"/>
    </contour>
    <contour>
      <point x="1296" y="0" type="line"/>
      <point x="693" y="1469" type="line"/>
      <point x="10" y="0" type="line"/>
    </contour>
  </outline>
</glyph>
<glyph name="infinity" format="2">
  <advance width="1380"/>
  <unicode hex="221E"/>
  <outline>
    <contour>
      <point x="90" y="560" type="curve" smooth="yes"/>
      <point x="90" y="416"/>
      <point x="206" y="305"/>
      <point x="350" y="305" type="curve" smooth="yes"/>
      <point x="463" y="305"/>
      <point x="579" y="399"/>
      <point x="690" y="499" type="curve"/>
      <point x="800" y="399"/>
      <point x="916" y="305"/>
      <point x="1030" y="305" type="curve" smooth="yes"/>
      <point x="1174" y="305"/>
      <point x="1290" y="416"/>
      <point x="1290" y="560" type="curve" smooth="yes"/>
      <point x="1290" y="704"/>
      <point x="1174" y="825"/>
      <point x="1030" y="825" type="curve" smooth="yes"/>
      <point x="916" y="825"/>
      <point x="800" y="730"/>
      <point x="690" y="631" type="curve"/>
      <point x="579" y="730"/>
      <point x="463" y="825"/>
      <point x="350" y="825" type="curve" smooth="yes"/>
      <point x="206" y="825"/>
      <point x="90" y="704"/>
    </contour>
    <contour>
      <point x="1030" y="728" type="curve" smooth="yes"/>
      <point x="1120" y="728"/>
      <point x="1197" y="650"/>
      <point x="1197" y="560" type="curve" smooth="yes"/>
      <point x="1197" y="470"/>
      <point x="1120" y="402"/>
      <point x="1030" y="402" type="curve" smooth="yes"/>
      <point x="949" y="402"/>
      <point x="858" y="478"/>
      <point x="762" y="565" type="curve"/>
      <point x="858" y="652"/>
      <point x="949" y="728"/>
    </contour>
    <contour>
      <point x="187" y="560" type="curve" smooth="yes"/>
      <point x="187" y="650"/>
      <point x="260" y="728"/>
      <point x="350" y="728" type="curve" smooth="yes"/>
      <point x="430" y="728"/>
      <point x="521" y="652"/>
      <point x="618" y="565" type="curve"/>
      <point x="521" y="477"/>
      <point x="430" y="402"/>
      <point x="350" y="402" type="curve" smooth="yes"/>
      <point x="260" y="402"/>
      <point x="187" y="470"/>
    </contour>
  </outline>
</glyph>
<glyph name="uni178017B6.alt" format="2">
  <advance width="2616"/>
  <anchor x="1643" y="0" name="L"/>
  <anchor x="2371" y="0" name="L2"/>
  <anchor x="1643" y="1440" name="U"/>
  <anchor x="2371" y="1440" name="U2"/>
  <anchor x="968" y="0" name="lm"/>
  <anchor x="968" y="1440" name="um"/>
  <anchor x="1913" y="1440" name="um2"/>
  <outline>
    <contour>
      <point x="295" y="955" type="curve" smooth="yes"/>
      <point x="295" y="79" type="line"/>
      <point x="320" y="16"/>
      <point x="401" y="0"/>
      <point x="466" y="0" type="curve"/>
      <point x="632" y="31"/>
      <point x="710" y="169"/>
      <point x="710" y="248" type="curve" smooth="yes"/>
      <point x="710" y="376"/>
      <point x="610" y="444"/>
      <point x="483" y="451" type="curve"/>
      <point x="483" y="936" type="line" smooth="yes"/>
      <point x="483" y="991"/>
      <point x="611" y="1011"/>
      <point x="679" y="1011" type="curve" smooth="yes"/>
      <point x="747" y="1011"/>
      <point x="875" y="991"/>
      <point x="875" y="936" type="curve" smooth="yes"/>
      <point x="875" y="0" type="line"/>
      <point x="1063" y="0" type="line"/>
      <point x="1063" y="936" type="line" smooth="yes"/>
      <point x="1063" y="991"/>
      <point x="1191" y="1011"/>
      <point x="1259" y="1011" type="curve" smooth="yes"/>
      <point x="1327" y="1011"/>
      <point x="1455" y="991"/>
      <point x="1455" y="936" type="curve" smooth="yes"/>
      <point x="1455" y="0" type="line"/>
      <point x="1643" y="0" type="line"/>
      <point x="1643" y="955" type="line" smooth="yes"/>
      <point x="1643" y="1055"/>
      <point x="1455" y="1123"/>
      <point x="1259" y="1123" type="curve" smooth="yes"/>
      <point x="1147" y="1123"/>
      <point x="1043" y="1101"/>
      <point x="968" y="1064" type="curve"/>
      <point x="893" y="1101"/>
      <point x="791" y="1123"/>
      <point x="679" y="1123" type="curve" smooth="yes"/>
      <point x="483" y="1123"/>
      <point x="295" y="1055"/>
    </contour>
    <contour>
      <point x="588" y="257" type="curve" smooth="yes"/>
      <point x="588" y="196"/>
      <point x="534" y="159"/>
      <point x="483" y="137" type="curve"/>
      <point x="483" y="345" type="line"/>
      <point x="531" y="338"/>
      <point x="588" y="307"/>
    </contour>
    <contour>
      <point x="1734" y="1312" type="curve" smooth="yes"/>
      <point x="2020" y="1312"/>
      <point x="2183" y="1208"/>
      <point x="2183" y="1145" type="curve" smooth="yes"/>
      <point x="2183" y="0" type="line"/>
      <point x="2371" y="0" type="line"/>
      <point x="2371" y="1163" type="line" smooth="yes"/>
      <point x="2371" y="1264"/>
      <point x="2114" y="1440"/>
      <point x="1738" y="1440" type="curve" smooth="yes"/>
      <point x="1521" y="1440"/>
      <point x="1354" y="1354"/>
      <point x="1259" y="1282" type="curve"/>
      <point x="1097" y="1377"/>
      <point x="847" y="1440"/>
      <point x="585" y="1440" type="curve" smooth="yes"/>
      <point x="345" y="1440"/>
      <point x="163" y="1328"/>
      <point x="163" y="1179" type="curve" smooth="yes"/>
      <point x="163" y="1077"/>
      <point x="238" y="1001"/>
      <point x="302" y="960" type="curve"/>
      <point x="360" y="1016" type="line"/>
      <point x="325" y="1047"/>
      <point x="299" y="1084"/>
      <point x="299" y="1125" type="curve" smooth="yes"/>
      <point x="299" y="1231"/>
      <point x="454" y="1286"/>
      <point x="618" y="1286" type="curve" smooth="yes"/>
      <point x="856" y="1286"/>
      <point x="1121" y="1225"/>
      <point x="1259" y="1148" type="curve"/>
      <point x="1321" y="1209"/>
      <point x="1540" y="1312"/>
    </contour>
  </outline>
</glyph>
<glyph name="uni178017C5.right" format="2">
  <advance width="2204"/>
  <anchor x="1231" y="0" name="L"/>
  <anchor x="1959" y="0" name="L2"/>
  <anchor x="1231" y="1440" name="U"/>
  <anchor x="1959" y="1922" name="U2"/>
  <anchor x="763" y="0" name="lm"/>
  <anchor x="763" y="1440" name="um"/>
  <anchor x="1501" y="1922" name="um2"/>
  <outline>
    <contour>
      <point x="1414" y="1312" type="curve" smooth="yes"/>
      <point x="1650" y="1312"/>
      <point x="1771" y="1208"/>
      <point x="1771" y="1145" type="curve" smooth="yes"/>
      <point x="1771" y="0" type="line"/>
      <point x="1959" y="0" type="line"/>
      <point x="1959" y="1163" type="line" smooth="yes"/>
      <point x="1959" y="1201"/>
      <point x="1926" y="1251"/>
      <point x="1867" y="1297" type="curve"/>
      <point x="1930" y="1398"/>
      <point x="1959" y="1509"/>
      <point x="1959" y="1610" type="curve" smooth="yes"/>
      <point x="1959" y="1704"/>
      <point x="1930" y="1800"/>
      <point x="1818" y="1894" type="curve" smooth="yes"/>
      <point x="1795" y="1913"/>
      <point x="1758" y="1922"/>
      <point x="1734" y="1922" type="curve" smooth="yes"/>
      <point x="1676" y="1922"/>
      <point x="1626" y="1898"/>
      <point x="1626" y="1834" type="curve" smooth="yes"/>
      <point x="1626" y="1794"/>
      <point x="1637" y="1772"/>
      <point x="1672" y="1740" type="curve"/>
      <point x="1740" y="1689"/>
      <point x="1759" y="1614"/>
      <point x="1759" y="1538" type="curve" smooth="yes"/>
      <point x="1759" y="1479"/>
      <point x="1741" y="1413"/>
      <point x="1725" y="1380" type="curve"/>
      <point x="1640" y="1415"/>
      <point x="1535" y="1440"/>
      <point x="1418" y="1440" type="curve" smooth="yes"/>
      <point x="1251" y="1440"/>
      <point x="1119" y="1354"/>
      <point x="1044" y="1282" type="curve"/>
      <point x="902" y="1377"/>
      <point x="777" y="1440"/>
      <point x="515" y="1440" type="curve" smooth="yes"/>
      <point x="315" y="1440"/>
      <point x="163" y="1318"/>
      <point x="163" y="1179" type="curve" smooth="yes"/>
      <point x="163" y="1077"/>
      <point x="238" y="1001"/>
      <point x="302" y="960" type="curve"/>
      <point x="299" y="952"/>
      <point x="295" y="946"/>
      <point x="295" y="938" type="curve" smooth="yes"/>
      <point x="295" y="0" type="line"/>
      <point x="483" y="0" type="line"/>
      <point x="483" y="920" type="line" smooth="yes"/>
      <point x="483" y="984"/>
      <point x="685" y="1011"/>
      <point x="763" y="1011" type="curve" smooth="yes"/>
      <point x="841" y="1011"/>
      <point x="1043" y="984"/>
      <point x="1043" y="920" type="curve" smooth="yes"/>
      <point x="1043" y="0" type="line"/>
      <point x="1231" y="0" type="line"/>
      <point x="1231" y="938" type="line" smooth="yes"/>
      <point x="1231" y="1038"/>
      <point x="959" y="1123"/>
      <point x="763" y="1123" type="curve" smooth="yes"/>
      <point x="625" y="1123"/>
      <point x="450" y="1078"/>
      <point x="360" y="1016" type="curve"/>
      <point x="325" y="1047"/>
      <point x="299" y="1084"/>
      <point x="299" y="1125" type="curve" smooth="yes"/>
      <point x="299" y="1231"/>
      <point x="424" y="1286"/>
      <point x="548" y="1286" type="curve" smooth="yes"/>
      <point x="786" y="1286"/>
      <point x="926" y="1225"/>
      <point x="1044" y="1148" type="curve"/>
      <point x="1106" y="1209"/>
      <point x="1220" y="1312"/>
    </contour>
  </outline>
</glyph>
<glyph name="uni178F17C5.right" format="2">
  <advance width="2204"/>
  <anchor x="1231" y="0" name="L"/>
  <anchor x="1959" y="0" name="L2"/>
  <anchor x="1231" y="1440" name="U"/>
  <anchor x="1959" y="1922" name="U2"/>
  <anchor x="763" y="0" name="lm"/>
  <anchor x="763" y="1440" name="um"/>
  <anchor x="1501" y="1922" name="um2"/>
  <outline>
    <contour>
      <point x="295" y="938" type="curve"/>
      <point x="295" y="79" type="line"/>
      <point x="320" y="16"/>
      <point x="401" y="0"/>
      <point x="466" y="0" type="curve"/>
      <point x="632" y="31"/>
      <point x="710" y="169"/>
      <point x="710" y="248" type="curve" smooth="yes"/>
      <point x="710" y="376"/>
      <point x="610" y="444"/>
      <point x="483" y="451" type="curve"/>
      <point x="483" y="920" type="line" smooth="yes"/>
      <point x="483" y="984"/>
      <point x="680" y="1011"/>
      <point x="758" y="1011" type="curve" smooth="yes"/>
      <point x="836" y="1011"/>
      <point x="1043" y="984"/>
      <point x="1043" y="920" type="curve" smooth="yes"/>
      <point x="1043" y="0" type="line"/>
      <point x="1231" y="0" type="line"/>
      <point x="1231" y="938" type="line" smooth="yes"/>
      <point x="1231" y="1038"/>
      <point x="954" y="1123"/>
      <point x="758" y="1123" type="curve" smooth="yes"/>
      <point x="620" y="1123"/>
      <point x="449" y="1078"/>
      <point x="360" y="1016" type="curve"/>
      <point x="325" y="1046"/>
      <point x="299" y="1084"/>
      <point x="299" y="1125" type="curve" smooth="yes"/>
      <point x="299" y="1231"/>
      <point x="424" y="1286"/>
      <point x="548" y="1286" type="curve" smooth="yes"/>
      <point x="786" y="1286"/>
      <point x="925" y="1225"/>
      <point x="1044" y="1148" type="curve"/>
      <point x="1108" y="1209"/>
      <point x="1219" y="1312"/>
      <point x="1414" y="1312" type="curve" smooth="yes"/>
      <point x="1650" y="1312"/>
      <point x="1771" y="1208"/>
      <point x="1771" y="1145" type="curve" smooth="yes"/>
      <point x="1771" y="0" type="line"/>
      <point x="1959" y="0" type="line"/>
      <point x="1959" y="1163" type="line" smooth="yes"/>
      <point x="1959" y="1201"/>
      <point x="1926" y="1251"/>
      <point x="1867" y="1297" type="curve"/>
      <point x="1930" y="1398"/>
      <point x="1959" y="1509"/>
      <point x="1959" y="1610" type="curve" smooth="yes"/>
      <point x="1959" y="1704"/>
      <point x="1930" y="1800"/>
      <point x="1818" y="1894" type="curve" smooth="yes"/>
      <point x="1795" y="1913"/>
      <point x="1758" y="1922"/>
      <point x="1734" y="1922" type="curve" smooth="yes"/>
      <point x="1676" y="1922"/>
      <point x="1626" y="1898"/>
      <point x="1626" y="1834" type="curve" smooth="yes"/>
      <point x="1626" y="1794"/>
      <point x="1637" y="1772"/>
      <point x="1672" y="1740" type="curve"/>
      <point x="1740" y="1689"/>
      <point x="1759" y="1614"/>
      <point x="1759" y="1538" type="curve" smooth="yes"/>
      <point x="1759" y="1479"/>
      <point x="1741" y="1413"/>
      <point x="1725" y="1380" type="curve"/>
      <point x="1640" y="1415"/>
      <point x="1535" y="1440"/>
      <point x="1418" y="1440" type="curve" smooth="yes"/>
      <point x="1251" y="1440"/>
      <point x="1119" y="1354"/>
      <point x="1044" y="1282" type="curve"/>
      <point x="901" y="1377"/>
      <point x="777" y="1440"/>
      <point x="515" y="1440" type="curve" smooth="yes"/>
      <point x="316" y="1440"/>
      <point x="163" y="1319"/>
      <point x="163" y="1179" type="curve" smooth="yes"/>
      <point x="163" y="1077"/>
      <point x="238" y="999"/>
      <point x="302" y="960" type="curve"/>
      <point x="299" y="952"/>
      <point x="295" y="946"/>
    </contour>
    <contour>
      <point x="588" y="257" type="curve" smooth="yes"/>
      <point x="588" y="196"/>
      <point x="534" y="159"/>
      <point x="483" y="137" type="curve"/>
      <point x="483" y="345" type="line"/>
      <point x="531" y="338"/>
      <point x="588" y="307"/>
    </contour>
  </outline>
</glyph>
<glyph name="uni179017C5.right" format="2">
  <advance width="2204"/>
  <anchor x="1231" y="0" name="L"/>
  <anchor x="1959" y="0" name="L2"/>
  <anchor x="1231" y="1740" name="U"/>
  <anchor x="1959" y="1922" name="U2"/>
  <anchor x="763" y="0" name="lm"/>
  <anchor x="763" y="1743" name="um"/>
  <anchor x="1501" y="1922" name="um2"/>
  <outline>
    <contour>
      <point x="1231" y="1374" type="curve" smooth="yes"/>
      <point x="1231" y="1468"/>
      <point x="1215" y="1519"/>
      <point x="1158" y="1602" type="curve" smooth="yes"/>
      <point x="1098" y="1689"/>
      <point x="1026" y="1743"/>
      <point x="930" y="1743" type="curve" smooth="yes"/>
      <point x="843" y="1743"/>
      <point x="813" y="1704"/>
      <point x="813" y="1658" type="curve" smooth="yes"/>
      <point x="813" y="1594"/>
      <point x="887" y="1550"/>
      <point x="951" y="1531" type="curve" smooth="yes"/>
      <point x="1027" y="1509"/>
      <point x="1081" y="1458"/>
      <point x="1081" y="1374" type="curve" smooth="yes"/>
      <point x="1081" y="1325"/>
      <point x="1030" y="1253"/>
      <point x="918" y="1253" type="curve" smooth="yes"/>
      <point x="838" y="1253"/>
      <point x="764" y="1299"/>
      <point x="693" y="1342" type="curve"/>
      <point x="618" y="1393"/>
      <point x="539" y="1440"/>
      <point x="411" y="1440" type="curve" smooth="yes"/>
      <point x="281" y="1440"/>
      <point x="163" y="1336"/>
      <point x="163" y="1197" type="curve" smooth="yes"/>
      <point x="163" y="1118"/>
      <point x="235" y="1061"/>
      <point x="295" y="1029" type="curve"/>
      <point x="295" y="187" type="line" smooth="yes"/>
      <point x="295" y="87"/>
      <point x="567" y="0"/>
      <point x="763" y="0" type="curve" smooth="yes"/>
      <point x="959" y="0"/>
      <point x="1231" y="87"/>
      <point x="1231" y="187" type="curve" smooth="yes"/>
      <point x="1231" y="817" type="line"/>
      <point x="1206" y="880"/>
      <point x="1125" y="896"/>
      <point x="1060" y="896" type="curve"/>
      <point x="894" y="865"/>
      <point x="816" y="727"/>
      <point x="816" y="648" type="curve" smooth="yes"/>
      <point x="816" y="520"/>
      <point x="916" y="452"/>
      <point x="1043" y="445" type="curve"/>
      <point x="1043" y="207" type="line" smooth="yes"/>
      <point x="1043" y="143"/>
      <point x="841" y="112"/>
      <point x="763" y="112" type="curve" smooth="yes"/>
      <point x="685" y="112"/>
      <point x="483" y="143"/>
      <point x="483" y="207" type="curve" smooth="yes"/>
      <point x="483" y="1049" type="line"/>
      <point x="431" y="1049"/>
      <point x="299" y="1110"/>
      <point x="299" y="1171" type="curve" smooth="yes"/>
      <point x="299" y="1257"/>
      <point x="374" y="1290"/>
      <point x="449" y="1290" type="curve" smooth="yes"/>
      <point x="532" y="1290"/>
      <point x="615" y="1242"/>
      <point x="682" y="1197" type="curve" smooth="yes"/>
      <point x="757" y="1148"/>
      <point x="832" y="1103"/>
      <point x="941" y="1103" type="curve" smooth="yes"/>
      <point x="1083" y="1103"/>
      <point x="1231" y="1216"/>
    </contour>
    <contour>
      <point x="1198" y="793" type="line"/>
      <point x="1260" y="1000"/>
      <point x="1436" y="1328"/>
      <point x="1586" y="1328" type="curve" smooth="yes"/>
      <point x="1703" y="1328"/>
      <point x="1771" y="1228"/>
      <point x="1771" y="1135" type="curve" smooth="yes"/>
      <point x="1771" y="0" type="line"/>
      <point x="1959" y="0" type="line"/>
      <point x="1959" y="1153" type="line" smooth="yes"/>
      <point x="1959" y="1211"/>
      <point x="1929" y="1270"/>
      <point x="1880" y="1319" type="curve"/>
      <point x="1933" y="1413"/>
      <point x="1959" y="1516"/>
      <point x="1959" y="1610" type="curve" smooth="yes"/>
      <point x="1959" y="1704"/>
      <point x="1930" y="1800"/>
      <point x="1818" y="1894" type="curve" smooth="yes"/>
      <point x="1795" y="1913"/>
      <point x="1758" y="1922"/>
      <point x="1734" y="1922" type="curve" smooth="yes"/>
      <point x="1676" y="1922"/>
      <point x="1626" y="1898"/>
      <point x="1626" y="1834" type="curve" smooth="yes"/>
      <point x="1626" y="1794"/>
      <point x="1637" y="1772"/>
      <point x="1672" y="1740" type="curve"/>
      <point x="1740" y="1689"/>
      <point x="1759" y="1614"/>
      <point x="1759" y="1538" type="curve" smooth="yes"/>
      <point x="1759" y="1494"/>
      <point x="1749" y="1446"/>
      <point x="1737" y="1411" type="curve"/>
      <point x="1690" y="1429"/>
      <point x="1639" y="1440"/>
      <point x="1586" y="1440" type="curve" smooth="yes"/>
      <point x="1378" y="1440"/>
      <point x="1202" y="1100"/>
      <point x="1130" y="884" type="curve"/>
    </contour>
    <contour>
      <point x="938" y="639" type="curve" smooth="yes"/>
      <point x="938" y="700"/>
      <point x="992" y="737"/>
      <point x="1043" y="759" type="curve"/>
      <point x="1043" y="551" type="line"/>
      <point x="995" y="558"/>
      <point x="938" y="589"/>
    </contour>
  </outline>
</glyph>
<glyph name="uni179117B6" format="2">
  <advance width="2008"/>
  <anchor x="1131" y="0" name="L"/>
  <anchor x="1763" y="0" name="L2"/>
  <anchor x="1131" y="1440" name="U"/>
  <anchor x="1763" y="1440" name="U2"/>
  <anchor x="654" y="0" name="lm"/>
  <anchor x="654" y="1440" name="um"/>
  <anchor x="1350" y="1440" name="um2"/>
  <outline>
    <contour>
      <point x="681" y="502" type="curve"/>
      <point x="681" y="214" type="line" smooth="yes"/>
      <point x="681" y="158"/>
      <point x="651" y="112"/>
      <point x="587" y="112" type="curve" smooth="yes"/>
      <point x="523" y="112"/>
      <point x="493" y="158"/>
      <point x="493" y="214" type="curve" smooth="yes"/>
      <point x="493" y="449" type="line"/>
      <point x="305" y="449" type="line"/>
      <point x="305" y="217" type="line" smooth="yes"/>
      <point x="305" y="117"/>
      <point x="383" y="0"/>
      <point x="587" y="0" type="curve" smooth="yes"/>
      <point x="791" y="0"/>
      <point x="869" y="117"/>
      <point x="869" y="217" type="curve" smooth="yes"/>
      <point x="869" y="502" type="line"/>
      <point x="1042" y="505"/>
      <point x="1131" y="606"/>
      <point x="1131" y="709" type="curve" smooth="yes"/>
      <point x="1131" y="818"/>
      <point x="1027" y="896"/>
      <point x="906" y="896" type="curve" smooth="yes"/>
      <point x="759" y="896"/>
      <point x="681" y="803"/>
      <point x="681" y="652" type="curve"/>
      <point x="488" y="660"/>
      <point x="365" y="818"/>
      <point x="365" y="991" type="curve" smooth="yes"/>
      <point x="365" y="1172"/>
      <point x="461" y="1310"/>
      <point x="718" y="1310" type="curve" smooth="yes"/>
      <point x="880" y="1310"/>
      <point x="945" y="1250"/>
      <point x="945" y="1208" type="curve" smooth="yes"/>
      <point x="945" y="1177"/>
      <point x="942" y="1167"/>
      <point x="931" y="1156" type="curve"/>
      <point x="904" y="1179"/>
      <point x="875" y="1193"/>
      <point x="829" y="1193" type="curve" smooth="yes"/>
      <point x="761" y="1193"/>
      <point x="710" y="1158"/>
      <point x="710" y="1099" type="curve" smooth="yes"/>
      <point x="710" y="1020"/>
      <point x="795" y="967"/>
      <point x="874" y="967" type="curve" smooth="yes"/>
      <point x="1000" y="967"/>
      <point x="1113" y="1057"/>
      <point x="1113" y="1189" type="curve" smooth="yes"/>
      <point x="1113" y="1320"/>
      <point x="1016" y="1440"/>
      <point x="718" y="1440" type="curve" smooth="yes"/>
      <point x="365" y="1440"/>
      <point x="177" y="1256"/>
      <point x="177" y="991" type="curve" smooth="yes"/>
      <point x="177" y="711"/>
      <point x="399" y="510"/>
    </contour>
    <contour>
      <point x="869" y="701" type="line" smooth="yes"/>
      <point x="869" y="744"/>
      <point x="882" y="766"/>
      <point x="908" y="766" type="curve" smooth="yes"/>
      <point x="936" y="766"/>
      <point x="953" y="748"/>
      <point x="953" y="709" type="curve" smooth="yes"/>
      <point x="953" y="675"/>
      <point x="925" y="652"/>
      <point x="903" y="652" type="curve" smooth="yes"/>
      <point x="869" y="652" type="line"/>
    </contour>
    <contour>
      <point x="1024" y="1233" type="line"/>
      <point x="1068" y="1270"/>
      <point x="1200" y="1328"/>
      <point x="1350" y="1328" type="curve" smooth="yes"/>
      <point x="1497" y="1328"/>
      <point x="1575" y="1208"/>
      <point x="1575" y="1145" type="curve" smooth="yes"/>
      <point x="1575" y="0" type="line"/>
      <point x="1763" y="0" type="line"/>
      <point x="1763" y="1163" type="line" smooth="yes"/>
      <point x="1763" y="1264"/>
      <point x="1586" y="1440"/>
      <point x="1350" y="1440" type="curve" smooth="yes"/>
      <point x="1175" y="1440"/>
      <point x="1016" y="1360"/>
      <point x="959" y="1304" type="curve"/>
    </contour>
  </outline>
</glyph>
<glyph name="uni179817B6" format="2">
  <advance width="2204"/>
  <anchor x="1231" y="0" name="L"/>
  <anchor x="1959" y="0" name="L2"/>
  <anchor x="1231" y="1440" name="U"/>
  <anchor x="1959" y="1440" name="U2"/>
  <anchor x="763" y="0" name="lm"/>
  <anchor x="763" y="1440" name="um"/>
  <anchor x="1501" y="1440" name="um2"/>
  <outline>
    <contour>
      <point x="1231" y="187" type="curve"/>
      <point x="1231" y="980" type="line" smooth="yes"/>
      <point x="1231" y="1024"/>
      <point x="1166" y="1054"/>
      <point x="1088" y="1091" type="curve" smooth="yes"/>
      <point x="1040" y="1114"/>
      <point x="994" y="1138"/>
      <point x="994" y="1193" type="curve" smooth="yes"/>
      <point x="994" y="1222"/>
      <point x="1027" y="1328"/>
      <point x="1371" y="1328" type="curve" smooth="yes"/>
      <point x="1646" y="1328"/>
      <point x="1771" y="1208"/>
      <point x="1771" y="1145" type="curve" smooth="yes"/>
      <point x="1771" y="0" type="line"/>
      <point x="1959" y="0" type="line"/>
      <point x="1959" y="1163" type="line" smooth="yes"/>
      <point x="1959" y="1264"/>
      <point x="1714" y="1440"/>
      <point x="1389" y="1440" type="curve" smooth="yes"/>
      <point x="1030" y="1440"/>
      <point x="871" y="1326"/>
      <point x="871" y="1189" type="curve" smooth="yes"/>
      <point x="871" y="1118"/>
      <point x="892" y="1063"/>
      <point x="975" y="1016" type="curve"/>
      <point x="1007" y="1002"/>
      <point x="1043" y="980"/>
      <point x="1043" y="923" type="curve" smooth="yes"/>
      <point x="1043" y="600" type="line"/>
      <point x="483" y="600" type="line"/>
      <point x="483" y="980" type="line" smooth="yes"/>
      <point x="483" y="1024"/>
      <point x="420" y="1054"/>
      <point x="341" y="1092" type="curve" smooth="yes"/>
      <point x="293" y="1115"/>
      <point x="245" y="1138"/>
      <point x="245" y="1193" type="curve" smooth="yes"/>
      <point x="245" y="1242"/>
      <point x="273" y="1282"/>
      <point x="309" y="1282" type="curve" smooth="yes"/>
      <point x="320" y="1282"/>
      <point x="341" y="1276"/>
      <point x="371" y="1253" type="curve" smooth="yes"/>
      <point x="399" y="1231"/>
      <point x="438" y="1204"/>
      <point x="502" y="1204" type="curve" smooth="yes"/>
      <point x="599" y="1204"/>
      <point x="652" y="1257"/>
      <point x="656" y="1374" type="curve"/>
      <point x="633" y="1354"/>
      <point x="610" y="1346"/>
      <point x="595" y="1346" type="curve" smooth="yes"/>
      <point x="554" y="1346"/>
      <point x="513" y="1370"/>
      <point x="475" y="1396" type="curve" smooth="yes"/>
      <point x="441" y="1418"/>
      <point x="407" y="1440"/>
      <point x="359" y="1440" type="curve" smooth="yes"/>
      <point x="245" y="1440"/>
      <point x="122" y="1306"/>
      <point x="122" y="1189" type="curve" smooth="yes"/>
      <point x="122" y="1118"/>
      <point x="145" y="1063"/>
      <point x="227" y="1016" type="curve"/>
      <point x="262" y="1002"/>
      <point x="295" y="980"/>
      <point x="295" y="923" type="curve" smooth="yes"/>
      <point x="295" y="187" type="line" smooth="yes"/>
      <point x="295" y="87"/>
      <point x="567" y="0"/>
      <point x="763" y="0" type="curve" smooth="yes"/>
      <point x="959" y="0"/>
      <point x="1231" y="87"/>
    </contour>
    <contour>
      <point x="763" y="112" type="curve" smooth="yes"/>
      <point x="685" y="112"/>
      <point x="483" y="143"/>
      <point x="483" y="207" type="curve" smooth="yes"/>
      <point x="483" y="470" type="line"/>
      <point x="1043" y="470" type="line"/>
      <point x="1043" y="207" type="line" smooth="yes"/>
      <point x="1043" y="143"/>
      <point x="841" y="112"/>
    </contour>
  </outline>
</glyph>
<glyph name="uni179A17C5.right" format="2">
  <advance width="1496"/>
  <anchor x="1251" y="0" name="L2"/>
  <anchor x="523" y="1440" name="U"/>
  <anchor x="1251" y="1922" name="U2"/>
  <anchor x="372" y="0" name="lm"/>
  <anchor x="399" y="1440" name="um"/>
  <anchor x="793" y="1922" name="um2"/>
  <outline>
    <contour>
      <point x="335" y="923" type="curve"/>
      <point x="335" y="451" type="line"/>
      <point x="208" y="444"/>
      <point x="108" y="376"/>
      <point x="108" y="248" type="curve" smooth="yes"/>
      <point x="108" y="169"/>
      <point x="186" y="31"/>
      <point x="352" y="0" type="curve"/>
      <point x="417" y="0"/>
      <point x="498" y="16"/>
      <point x="523" y="79" type="curve"/>
      <point x="523" y="980" type="line" smooth="yes"/>
      <point x="523" y="1024"/>
      <point x="458" y="1054"/>
      <point x="380" y="1091" type="curve" smooth="yes"/>
      <point x="332" y="1114"/>
      <point x="286" y="1138"/>
      <point x="286" y="1193" type="curve" smooth="yes"/>
      <point x="286" y="1222"/>
      <point x="319" y="1328"/>
      <point x="663" y="1328" type="curve" smooth="yes"/>
      <point x="938" y="1328"/>
      <point x="1063" y="1208"/>
      <point x="1063" y="1145" type="curve" smooth="yes"/>
      <point x="1063" y="0" type="line"/>
      <point x="1251" y="0" type="line"/>
      <point x="1251" y="1163" type="line" smooth="yes"/>
      <point x="1251" y="1201"/>
      <point x="1217" y="1249"/>
      <point x="1157" y="1294" type="curve"/>
      <point x="1221" y="1395"/>
      <point x="1251" y="1508"/>
      <point x="1251" y="1610" type="curve" smooth="yes"/>
      <point x="1251" y="1704"/>
      <point x="1222" y="1800"/>
      <point x="1110" y="1894" type="curve" smooth="yes"/>
      <point x="1087" y="1913"/>
      <point x="1050" y="1922"/>
      <point x="1026" y="1922" type="curve" smooth="yes"/>
      <point x="968" y="1922"/>
      <point x="918" y="1898"/>
      <point x="918" y="1834" type="curve" smooth="yes"/>
      <point x="918" y="1794"/>
      <point x="929" y="1772"/>
      <point x="964" y="1740" type="curve"/>
      <point x="1032" y="1689"/>
      <point x="1051" y="1614"/>
      <point x="1051" y="1538" type="curve" smooth="yes"/>
      <point x="1051" y="1475"/>
      <point x="1031" y="1404"/>
      <point x="1014" y="1374" type="curve"/>
      <point x="921" y="1413"/>
      <point x="808" y="1440"/>
      <point x="681" y="1440" type="curve" smooth="yes"/>
      <point x="322" y="1440"/>
      <point x="163" y="1326"/>
      <point x="163" y="1189" type="curve" smooth="yes"/>
      <point x="163" y="1118"/>
      <point x="184" y="1063"/>
      <point x="267" y="1016" type="curve"/>
      <point x="299" y="1002"/>
      <point x="335" y="980"/>
    </contour>
    <contour>
      <point x="230" y="257" type="curve" smooth="yes"/>
      <point x="230" y="307"/>
      <point x="287" y="338"/>
      <point x="335" y="345" type="curve"/>
      <point x="335" y="137" type="line"/>
      <point x="284" y="159"/>
      <point x="230" y="196"/>
    </contour>
  </outline>
</glyph>
<glyph name="uni179B17C5.right" format="2">
  <advance width="2656"/>
  <anchor x="1683" y="0" name="L"/>
  <anchor x="2411" y="0" name="L2"/>
  <anchor x="1683" y="1440" name="U"/>
  <anchor x="2411" y="1922" name="U2"/>
  <anchor x="989" y="0" name="lm"/>
  <anchor x="1289" y="1440" name="um"/>
  <anchor x="1953" y="1922" name="um2"/>
  <outline>
    <contour>
      <point x="1495" y="923" type="curve" smooth="yes"/>
      <point x="1495" y="194" type="line" smooth="yes"/>
      <point x="1495" y="139"/>
      <point x="1375" y="112"/>
      <point x="1289" y="112" type="curve" smooth="yes"/>
      <point x="1203" y="112"/>
      <point x="1083" y="139"/>
      <point x="1083" y="194" type="curve" smooth="yes"/>
      <point x="1083" y="1253" type="line" smooth="yes"/>
      <point x="1083" y="1353"/>
      <point x="885" y="1440"/>
      <point x="689" y="1440" type="curve" smooth="yes"/>
      <point x="493" y="1440"/>
      <point x="295" y="1353"/>
      <point x="295" y="1253" type="curve" smooth="yes"/>
      <point x="295" y="79" type="line"/>
      <point x="320" y="16"/>
      <point x="401" y="0"/>
      <point x="466" y="0" type="curve"/>
      <point x="632" y="31"/>
      <point x="710" y="169"/>
      <point x="710" y="248" type="curve" smooth="yes"/>
      <point x="710" y="376"/>
      <point x="610" y="444"/>
      <point x="483" y="451" type="curve"/>
      <point x="483" y="1246" type="line" smooth="yes"/>
      <point x="483" y="1301"/>
      <point x="603" y="1328"/>
      <point x="689" y="1328" type="curve" smooth="yes"/>
      <point x="775" y="1328"/>
      <point x="895" y="1301"/>
      <point x="895" y="1246" type="curve" smooth="yes"/>
      <point x="895" y="187" type="line" smooth="yes"/>
      <point x="895" y="87"/>
      <point x="1093" y="0"/>
      <point x="1289" y="0" type="curve" smooth="yes"/>
      <point x="1485" y="0"/>
      <point x="1683" y="87"/>
      <point x="1683" y="187" type="curve" smooth="yes"/>
      <point x="1683" y="980" type="line" smooth="yes"/>
      <point x="1683" y="1024"/>
      <point x="1618" y="1054"/>
      <point x="1540" y="1091" type="curve" smooth="yes"/>
      <point x="1492" y="1114"/>
      <point x="1446" y="1138"/>
      <point x="1446" y="1193" type="curve" smooth="yes"/>
      <point x="1446" y="1222"/>
      <point x="1479" y="1328"/>
      <point x="1823" y="1328" type="curve" smooth="yes"/>
      <point x="2098" y="1328"/>
      <point x="2223" y="1208"/>
      <point x="2223" y="1145" type="curve" smooth="yes"/>
      <point x="2223" y="0" type="line"/>
      <point x="2411" y="0" type="line"/>
      <point x="2411" y="1163" type="line" smooth="yes"/>
      <point x="2411" y="1201"/>
      <point x="2377" y="1249"/>
      <point x="2317" y="1294" type="curve"/>
      <point x="2381" y="1395"/>
      <point x="2411" y="1508"/>
      <point x="2411" y="1610" type="curve" smooth="yes"/>
      <point x="2411" y="1704"/>
      <point x="2382" y="1800"/>
      <point x="2270" y="1894" type="curve" smooth="yes"/>
      <point x="2247" y="1913"/>
      <point x="2210" y="1922"/>
      <point x="2186" y="1922" type="curve" smooth="yes"/>
      <point x="2128" y="1922"/>
      <point x="2078" y="1898"/>
      <point x="2078" y="1834" type="curve" smooth="yes"/>
      <point x="2078" y="1794"/>
      <point x="2089" y="1772"/>
      <point x="2124" y="1740" type="curve"/>
      <point x="2192" y="1689"/>
      <point x="2211" y="1614"/>
      <point x="2211" y="1538" type="curve" smooth="yes"/>
      <point x="2211" y="1475"/>
      <point x="2191" y="1404"/>
      <point x="2174" y="1374" type="curve"/>
      <point x="2081" y="1413"/>
      <point x="1968" y="1440"/>
      <point x="1841" y="1440" type="curve" smooth="yes"/>
      <point x="1482" y="1440"/>
      <point x="1323" y="1326"/>
      <point x="1323" y="1189" type="curve" smooth="yes"/>
      <point x="1323" y="1118"/>
      <point x="1344" y="1063"/>
      <point x="1427" y="1016" type="curve"/>
      <point x="1459" y="1002"/>
      <point x="1495" y="980"/>
    </contour>
    <contour>
      <point x="588" y="257" type="curve" smooth="yes"/>
      <point x="588" y="196"/>
      <point x="534" y="159"/>
      <point x="483" y="137" type="curve"/>
      <point x="483" y="345" type="line"/>
      <point x="531" y="338"/>
      <point x="588" y="307"/>
    </contour>
  </outline>
</glyph>
<glyph name="uni179F17C5.right" format="2">
  <advance width="2656"/>
  <anchor x="1683" y="0" name="L"/>
  <anchor x="2411" y="0" name="L2"/>
  <anchor x="1683" y="1440" name="U"/>
  <anchor x="2411" y="1922" name="U2"/>
  <anchor x="989" y="0" name="lm"/>
  <anchor x="1289" y="1440" name="um"/>
  <anchor x="1953" y="1922" name="um2"/>
  <outline>
    <contour>
      <point x="1495" y="923" type="curve" smooth="yes"/>
      <point x="1495" y="194" type="line" smooth="yes"/>
      <point x="1495" y="139"/>
      <point x="1375" y="112"/>
      <point x="1289" y="112" type="curve" smooth="yes"/>
      <point x="1203" y="112"/>
      <point x="1083" y="139"/>
      <point x="1083" y="194" type="curve" smooth="yes"/>
      <point x="1083" y="803" type="line" smooth="yes"/>
      <point x="1083" y="903"/>
      <point x="898" y="979"/>
      <point x="711" y="985" type="curve"/>
      <point x="706" y="1026"/>
      <point x="645" y="1055"/>
      <point x="569" y="1092" type="curve" smooth="yes"/>
      <point x="521" y="1115"/>
      <point x="473" y="1138"/>
      <point x="473" y="1193" type="curve" smooth="yes"/>
      <point x="473" y="1242"/>
      <point x="501" y="1282"/>
      <point x="537" y="1282" type="curve" smooth="yes"/>
      <point x="548" y="1282"/>
      <point x="569" y="1276"/>
      <point x="599" y="1253" type="curve" smooth="yes"/>
      <point x="627" y="1231"/>
      <point x="666" y="1204"/>
      <point x="730" y="1204" type="curve" smooth="yes"/>
      <point x="827" y="1204"/>
      <point x="880" y="1257"/>
      <point x="884" y="1374" type="curve"/>
      <point x="861" y="1354"/>
      <point x="838" y="1346"/>
      <point x="823" y="1346" type="curve" smooth="yes"/>
      <point x="782" y="1346"/>
      <point x="741" y="1370"/>
      <point x="703" y="1396" type="curve" smooth="yes"/>
      <point x="669" y="1418"/>
      <point x="635" y="1440"/>
      <point x="587" y="1440" type="curve" smooth="yes"/>
      <point x="473" y="1440"/>
      <point x="350" y="1306"/>
      <point x="350" y="1189" type="curve" smooth="yes"/>
      <point x="350" y="1118"/>
      <point x="373" y="1063"/>
      <point x="455" y="1016" type="curve"/>
      <point x="480" y="1006"/>
      <point x="503" y="992"/>
      <point x="515" y="964" type="curve"/>
      <point x="391" y="934"/>
      <point x="295" y="874"/>
      <point x="295" y="803" type="curve" smooth="yes"/>
      <point x="295" y="79" type="line"/>
      <point x="320" y="16"/>
      <point x="401" y="0"/>
      <point x="466" y="0" type="curve"/>
      <point x="632" y="31"/>
      <point x="710" y="169"/>
      <point x="710" y="248" type="curve" smooth="yes"/>
      <point x="710" y="376"/>
      <point x="610" y="444"/>
      <point x="483" y="451" type="curve"/>
      <point x="483" y="795" type="line" smooth="yes"/>
      <point x="483" y="850"/>
      <point x="603" y="873"/>
      <point x="689" y="873" type="curve" smooth="yes"/>
      <point x="775" y="873"/>
      <point x="895" y="850"/>
      <point x="895" y="795" type="curve" smooth="yes"/>
      <point x="895" y="187" type="line" smooth="yes"/>
      <point x="895" y="87"/>
      <point x="1093" y="0"/>
      <point x="1289" y="0" type="curve" smooth="yes"/>
      <point x="1485" y="0"/>
      <point x="1683" y="87"/>
      <point x="1683" y="187" type="curve" smooth="yes"/>
      <point x="1683" y="980" type="line" smooth="yes"/>
      <point x="1683" y="1024"/>
      <point x="1618" y="1054"/>
      <point x="1540" y="1091" type="curve" smooth="yes"/>
      <point x="1492" y="1114"/>
      <point x="1446" y="1138"/>
      <point x="1446" y="1193" type="curve" smooth="yes"/>
      <point x="1446" y="1222"/>
      <point x="1479" y="1328"/>
      <point x="1823" y="1328" type="curve" smooth="yes"/>
      <point x="2098" y="1328"/>
      <point x="2223" y="1208"/>
      <point x="2223" y="1145" type="curve" smooth="yes"/>
      <point x="2223" y="0" type="line"/>
      <point x="2411" y="0" type="line"/>
      <point x="2411" y="1163" type="line" smooth="yes"/>
      <point x="2411" y="1201"/>
      <point x="2377" y="1249"/>
      <point x="2317" y="1294" type="curve"/>
      <point x="2381" y="1395"/>
      <point x="2411" y="1508"/>
      <point x="2411" y="1610" type="curve" smooth="yes"/>
      <point x="2411" y="1704"/>
      <point x="2382" y="1800"/>
      <point x="2270" y="1894" type="curve" smooth="yes"/>
      <point x="2247" y="1913"/>
      <point x="2210" y="1922"/>
      <point x="2186" y="1922" type="curve" smooth="yes"/>
      <point x="2128" y="1922"/>
      <point x="2078" y="1898"/>
      <point x="2078" y="1834" type="curve" smooth="yes"/>
      <point x="2078" y="1794"/>
      <point x="2089" y="1772"/>
      <point x="2124" y="1740" type="curve"/>
      <point x="2192" y="1689"/>
      <point x="2211" y="1614"/>
      <point x="2211" y="1538" type="curve" smooth="yes"/>
      <point x="2211" y="1475"/>
      <point x="2191" y="1404"/>
      <point x="2174" y="1374" type="curve"/>
      <point x="2081" y="1413"/>
      <point x="1968" y="1440"/>
      <point x="1841" y="1440" type="curve" smooth="yes"/>
      <point x="1482" y="1440"/>
      <point x="1323" y="1326"/>
      <point x="1323" y="1189" type="curve" smooth="yes"/>
      <point x="1323" y="1118"/>
      <point x="1344" y="1063"/>
      <point x="1427" y="1016" type="curve"/>
      <point x="1459" y="1002"/>
      <point x="1495" y="980"/>
    </contour>
    <contour>
      <point x="588" y="257" type="curve" smooth="yes"/>
      <point x="588" y="196"/>
      <point x="534" y="159"/>
      <point x="483" y="137" type="curve"/>
      <point x="483" y="345" type="line"/>
      <point x="531" y="338"/>
      <point x="588" y="307"/>
    </contour>
  </outline>
</glyph>
<glyph name="uni17B7.ms.high" format="2">
  <outline>
    <contour>
      <point x="-838" y="1969" type="curve" smooth="yes"/>
      <point x="-694" y="1969"/>
      <point x="-568" y="1941"/>
      <point x="-466" y="1916" type="curve"/>
      <point x="-391" y="1897"/>
      <point x="-332" y="1880"/>
      <point x="-276" y="1880" type="curve"/>
      <point x="-229" y="1880"/>
      <point x="-197" y="1926"/>
      <point x="-197" y="1959" type="curve"/>
      <point x="-197" y="1983"/>
      <point x="-204" y="1994"/>
      <point x="-208" y="2005" type="curve"/>
      <point x="-321" y="2195"/>
      <point x="-601" y="2353"/>
      <point x="-808" y="2353" type="curve"/>
      <point x="-1013" y="2353"/>
      <point x="-1202" y="2227"/>
      <point x="-1202" y="2095" type="curve"/>
      <point x="-1202" y="2009"/>
      <point x="-1141" y="1956"/>
      <point x="-1051" y="1956" type="curve"/>
      <point x="-989" y="1956"/>
      <point x="-898" y="1969"/>
    </contour>
    <contour>
      <point x="-819" y="2099" type="curve" smooth="yes"/>
      <point x="-881" y="2099"/>
      <point x="-907" y="2090"/>
      <point x="-965" y="2090" type="curve" smooth="yes"/>
      <point x="-990" y="2090"/>
      <point x="-1005" y="2105"/>
      <point x="-1005" y="2119" type="curve"/>
      <point x="-1005" y="2177"/>
      <point x="-897" y="2223"/>
      <point x="-808" y="2223" type="curve"/>
      <point x="-676" y="2223"/>
      <point x="-497" y="2118"/>
      <point x="-429" y="2040" type="curve"/>
      <point x="-490" y="2060"/>
      <point x="-666" y="2099"/>
    </contour>
  </outline>
</glyph>
<glyph name="uni17B7.ms.high2" format="2">
  <outline>
    <contour>
      <point x="-838" y="2199" type="curve" smooth="yes"/>
      <point x="-694" y="2199"/>
      <point x="-568" y="2171"/>
      <point x="-466" y="2146" type="curve"/>
      <point x="-391" y="2127"/>
      <point x="-332" y="2110"/>
      <point x="-276" y="2110" type="curve"/>
      <point x="-229" y="2110"/>
      <point x="-197" y="2156"/>
      <point x="-197" y="2189" type="curve"/>
      <point x="-197" y="2213"/>
      <point x="-204" y="2224"/>
      <point x="-208" y="2235" type="curve"/>
      <point x="-321" y="2425"/>
      <point x="-601" y="2583"/>
      <point x="-808" y="2583" type="curve"/>
      <point x="-1013" y="2583"/>
      <point x="-1202" y="2457"/>
      <point x="-1202" y="2325" type="curve"/>
      <point x="-1202" y="2239"/>
      <point x="-1141" y="2186"/>
      <point x="-1051" y="2186" type="curve"/>
      <point x="-989" y="2186"/>
      <point x="-898" y="2199"/>
    </contour>
    <contour>
      <point x="-819" y="2329" type="curve" smooth="yes"/>
      <point x="-881" y="2329"/>
      <point x="-907" y="2320"/>
      <point x="-965" y="2320" type="curve" smooth="yes"/>
      <point x="-990" y="2320"/>
      <point x="-1005" y="2335"/>
      <point x="-1005" y="2349" type="curve"/>
      <point x="-1005" y="2407"/>
      <point x="-897" y="2453"/>
      <point x="-808" y="2453" type="curve"/>
      <point x="-676" y="2453"/>
      <point x="-497" y="2348"/>
      <point x="-429" y="2270" type="curve"/>
      <point x="-490" y="2290"/>
      <point x="-666" y="2329"/>
    </contour>
  </outline>
</glyph>
<glyph name="uni17B7.narrow" format="2">
  <anchor x="-245" y="2043" name="U"/>
  <anchor x="-245" y="1440" name="_U"/>
  <anchor x="-369" y="2003" name="um"/>
  <outline>
    <contour>
      <point x="-474" y="1679" type="curve" smooth="yes"/>
      <point x="-288" y="1679"/>
      <point x="-233" y="1590"/>
      <point x="-87" y="1590" type="curve" smooth="yes"/>
      <point x="-28" y="1590"/>
      <point x="0" y="1629"/>
      <point x="0" y="1669" type="curve" smooth="yes"/>
      <point x="0" y="1693"/>
      <point x="-7" y="1704"/>
      <point x="-11" y="1715" type="curve"/>
      <point x="-124" y="1905"/>
      <point x="-256" y="2063"/>
      <point x="-463" y="2063" type="curve" smooth="yes"/>
      <point x="-668" y="2063"/>
      <point x="-768" y="1937"/>
      <point x="-768" y="1805" type="curve" smooth="yes"/>
      <point x="-768" y="1719"/>
      <point x="-707" y="1666"/>
      <point x="-618" y="1666" type="curve" smooth="yes"/>
      <point x="-556" y="1666"/>
      <point x="-534" y="1679"/>
    </contour>
    <contour>
      <point x="-445" y="1808" type="curve" smooth="yes"/>
      <point x="-487" y="1808"/>
      <point x="-496" y="1800"/>
      <point x="-535" y="1800" type="curve" smooth="yes"/>
      <point x="-559" y="1800"/>
      <point x="-580" y="1821"/>
      <point x="-580" y="1849" type="curve" smooth="yes"/>
      <point x="-580" y="1906"/>
      <point x="-523" y="1932"/>
      <point x="-463" y="1932" type="curve" smooth="yes"/>
      <point x="-360" y="1932"/>
      <point x="-281" y="1828"/>
      <point x="-223" y="1749" type="curve"/>
      <point x="-283" y="1781"/>
      <point x="-331" y="1808"/>
    </contour>
  </outline>
</glyph>
<glyph name="uni17B717CD.narrow" format="2">
  <anchor x="-245" y="2414" name="U"/>
  <anchor x="-245" y="1440" name="_U"/>
  <anchor x="-369" y="2414" name="um"/>
  <outline>
    <contour>
      <point x="-474" y="1678" type="curve" smooth="yes"/>
      <point x="-288" y="1678"/>
      <point x="-233" y="1590"/>
      <point x="-87" y="1590" type="curve" smooth="yes"/>
      <point x="-28" y="1590"/>
      <point x="0" y="1629"/>
      <point x="0" y="1669" type="curve" smooth="yes"/>
      <point x="0" y="1693"/>
      <point x="-7" y="1704"/>
      <point x="-11" y="1715" type="curve"/>
      <point x="-59" y="1796"/>
      <point x="-111" y="1871"/>
      <point x="-170" y="1931" type="curve"/>
      <point x="-80" y="1932"/>
      <point x="-11" y="2007"/>
      <point x="-11" y="2070" type="curve" smooth="yes"/>
      <point x="-11" y="2096"/>
      <point x="-33" y="2118"/>
      <point x="-66" y="2118" type="curve" smooth="yes"/>
      <point x="-96" y="2118"/>
      <point x="-113" y="2103"/>
      <point x="-121" y="2077" type="curve"/>
      <point x="-124" y="2059"/>
      <point x="-147" y="2039"/>
      <point x="-172" y="2039" type="curve" smooth="yes"/>
      <point x="-202" y="2039"/>
      <point x="-228" y="2066"/>
      <point x="-228" y="2096" type="curve" smooth="yes"/>
      <point x="-228" y="2125"/>
      <point x="-202" y="2169"/>
      <point x="-139" y="2180" type="curve"/>
      <point x="-7" y="2194"/>
      <point x="73" y="2257"/>
      <point x="73" y="2371" type="curve" smooth="yes"/>
      <point x="73" y="2433"/>
      <point x="36" y="2503"/>
      <point x="-81" y="2514" type="curve"/>
      <point x="-44" y="2484"/>
      <point x="-23" y="2444"/>
      <point x="-23" y="2396" type="curve" smooth="yes"/>
      <point x="-23" y="2333"/>
      <point x="-70" y="2297"/>
      <point x="-154" y="2286" type="curve" smooth="yes"/>
      <point x="-290" y="2267"/>
      <point x="-337" y="2165"/>
      <point x="-337" y="2096" type="curve" smooth="yes"/>
      <point x="-337" y="2075"/>
      <point x="-333" y="2055"/>
      <point x="-326" y="2036" type="curve"/>
      <point x="-368" y="2053"/>
      <point x="-413" y="2062"/>
      <point x="-463" y="2062" type="curve" smooth="yes"/>
      <point x="-668" y="2062"/>
      <point x="-768" y="1936"/>
      <point x="-768" y="1804" type="curve" smooth="yes"/>
      <point x="-768" y="1719"/>
      <point x="-707" y="1666"/>
      <point x="-618" y="1666" type="curve" smooth="yes"/>
      <point x="-556" y="1666"/>
      <point x="-534" y="1678"/>
    </contour>
    <contour>
      <point x="-445" y="1808" type="curve" smooth="yes"/>
      <point x="-487" y="1808"/>
      <point x="-496" y="1800"/>
      <point x="-535" y="1800" type="curve" smooth="yes"/>
      <point x="-559" y="1800"/>
      <point x="-580" y="1821"/>
      <point x="-580" y="1849" type="curve"/>
      <point x="-580" y="1906"/>
      <point x="-523" y="1932"/>
      <point x="-463" y="1932" type="curve"/>
      <point x="-360" y="1932"/>
      <point x="-281" y="1828"/>
      <point x="-223" y="1749" type="curve"/>
      <point x="-283" y="1781"/>
      <point x="-331" y="1808"/>
    </contour>
  </outline>
</glyph>
<glyph name="uni17B8.ms.high" format="2">
  <outline>
    <contour>
      <point x="-838" y="1969" type="curve" smooth="yes"/>
      <point x="-694" y="1969"/>
      <point x="-568" y="1941"/>
      <point x="-466" y="1916" type="curve" smooth="yes"/>
      <point x="-391" y="1897"/>
      <point x="-332" y="1880"/>
      <point x="-276" y="1880" type="curve" smooth="yes"/>
      <point x="-245" y="1880"/>
      <point x="-221" y="1899"/>
      <point x="-208" y="1922" type="curve"/>
      <point x="-140" y="2020"/>
      <point x="-108" y="2127"/>
      <point x="-108" y="2261" type="curve" smooth="yes"/>
      <point x="-108" y="2379"/>
      <point x="-170" y="2481"/>
      <point x="-268" y="2481" type="curve" smooth="yes"/>
      <point x="-315" y="2481"/>
      <point x="-355" y="2447"/>
      <point x="-355" y="2403" type="curve" smooth="yes"/>
      <point x="-355" y="2362"/>
      <point x="-342" y="2341"/>
      <point x="-312" y="2313" type="curve" smooth="yes"/>
      <point x="-279" y="2282"/>
      <point x="-268" y="2250"/>
      <point x="-268" y="2174" type="curve" smooth="yes"/>
      <point x="-268" y="2150"/>
      <point x="-272" y="2121"/>
      <point x="-276" y="2095" type="curve"/>
      <point x="-411" y="2242"/>
      <point x="-635" y="2353"/>
      <point x="-808" y="2353" type="curve" smooth="yes"/>
      <point x="-1013" y="2353"/>
      <point x="-1202" y="2227"/>
      <point x="-1202" y="2095" type="curve" smooth="yes"/>
      <point x="-1202" y="2009"/>
      <point x="-1141" y="1956"/>
      <point x="-1051" y="1956" type="curve" smooth="yes"/>
      <point x="-989" y="1956"/>
      <point x="-898" y="1969"/>
    </contour>
    <contour>
      <point x="-819" y="2099" type="curve" smooth="yes"/>
      <point x="-881" y="2099"/>
      <point x="-907" y="2090"/>
      <point x="-965" y="2090" type="curve" smooth="yes"/>
      <point x="-990" y="2090"/>
      <point x="-1005" y="2105"/>
      <point x="-1005" y="2119" type="curve" smooth="yes"/>
      <point x="-1005" y="2177"/>
      <point x="-897" y="2223"/>
      <point x="-808" y="2223" type="curve" smooth="yes"/>
      <point x="-676" y="2223"/>
      <point x="-497" y="2118"/>
      <point x="-429" y="2040" type="curve"/>
      <point x="-490" y="2060"/>
      <point x="-666" y="2099"/>
    </contour>
  </outline>
</glyph>
<glyph name="uni17B9.ms.high2" format="2">
  <outline>
    <contour>
      <point x="-838" y="2199" type="curve" smooth="yes"/>
      <point x="-694" y="2199"/>
      <point x="-568" y="2171"/>
      <point x="-466" y="2146" type="curve" smooth="yes"/>
      <point x="-391" y="2127"/>
      <point x="-332" y="2110"/>
      <point x="-276" y="2110" type="curve" smooth="yes"/>
      <point x="-229" y="2110"/>
      <point x="-197" y="2156"/>
      <point x="-197" y="2189" type="curve" smooth="yes"/>
      <point x="-197" y="2201"/>
      <point x="-198" y="2210"/>
      <point x="-201" y="2217" type="curve"/>
      <point x="-120" y="2244"/>
      <point x="-52" y="2322"/>
      <point x="-52" y="2404" type="curve" smooth="yes"/>
      <point x="-52" y="2504"/>
      <point x="-153" y="2600"/>
      <point x="-266" y="2600" type="curve" smooth="yes"/>
      <point x="-349" y="2600"/>
      <point x="-432" y="2542"/>
      <point x="-464" y="2475" type="curve"/>
      <point x="-576" y="2541"/>
      <point x="-702" y="2583"/>
      <point x="-808" y="2583" type="curve" smooth="yes"/>
      <point x="-1013" y="2583"/>
      <point x="-1202" y="2457"/>
      <point x="-1202" y="2325" type="curve" smooth="yes"/>
      <point x="-1202" y="2239"/>
      <point x="-1141" y="2186"/>
      <point x="-1051" y="2186" type="curve" smooth="yes"/>
      <point x="-989" y="2186"/>
      <point x="-898" y="2199"/>
    </contour>
    <contour>
      <point x="-312" y="2402" type="curve" smooth="yes"/>
      <point x="-312" y="2436"/>
      <point x="-293" y="2467"/>
      <point x="-266" y="2467" type="curve" smooth="yes"/>
      <point x="-239" y="2467"/>
      <point x="-220" y="2436"/>
      <point x="-220" y="2402" type="curve" smooth="yes"/>
      <point x="-220" y="2368"/>
      <point x="-239" y="2337"/>
      <point x="-266" y="2337" type="curve" smooth="yes"/>
      <point x="-293" y="2337"/>
      <point x="-312" y="2368"/>
    </contour>
    <contour>
      <point x="-819" y="2329" type="curve" smooth="yes"/>
      <point x="-881" y="2329"/>
      <point x="-907" y="2320"/>
      <point x="-965" y="2320" type="curve" smooth="yes"/>
      <point x="-990" y="2320"/>
      <point x="-1005" y="2335"/>
      <point x="-1005" y="2349" type="curve" smooth="yes"/>
      <point x="-1005" y="2407"/>
      <point x="-897" y="2453"/>
      <point x="-808" y="2453" type="curve" smooth="yes"/>
      <point x="-676" y="2453"/>
      <point x="-497" y="2348"/>
      <point x="-429" y="2270" type="curve"/>
      <point x="-490" y="2290"/>
      <point x="-666" y="2329"/>
    </contour>
  </outline>
</glyph>
<glyph name="uni17BB.low.narrow" format="2">
  <anchor x="-245" y="-710" name="_L"/>
  <outline>
    <contour>
      <point x="-245" y="-869" type="line"/>
      <point x="-256" y="-808"/>
      <point x="-347" y="-790"/>
      <point x="-419" y="-790" type="curve"/>
      <point x="-490" y="-801"/>
      <point x="-526" y="-819"/>
      <point x="-526" y="-890" type="curve" smooth="yes"/>
      <point x="-526" y="-929"/>
      <point x="-497" y="-969"/>
      <point x="-433" y="-976" type="curve"/>
      <point x="-433" y="-1147" type="line" smooth="yes"/>
      <point x="-433" y="-1194"/>
      <point x="-440" y="-1221"/>
      <point x="-472" y="-1233" type="curve"/>
      <point x="-299" y="-1233"/>
      <point x="-245" y="-1226"/>
      <point x="-245" y="-1141" type="curve" smooth="yes"/>
    </contour>
  </outline>
</glyph>
<glyph name="uni17BD.narrow" format="2">
  <anchor x="-396" y="0" name="_lm"/>
  <outline>
    <contour>
      <point x="-775" y="-257" type="curve" smooth="yes"/>
      <point x="-775" y="-289"/>
      <point x="-739" y="-329"/>
      <point x="-675" y="-336" type="curve"/>
      <point x="-683" y="-408"/>
      <point x="-733" y="-489"/>
      <point x="-779" y="-559" type="curve" smooth="yes"/>
      <point x="-823" y="-625"/>
      <point x="-875" y="-688"/>
      <point x="-875" y="-724" type="curve" smooth="yes"/>
      <point x="-875" y="-762"/>
      <point x="-843" y="-830"/>
      <point x="-768" y="-830" type="curve" smooth="yes"/>
      <point x="-717" y="-830"/>
      <point x="-645" y="-799"/>
      <point x="-596" y="-756" type="curve"/>
      <point x="-570" y="-792"/>
      <point x="-536" y="-830"/>
      <point x="-475" y="-830" type="curve" smooth="yes"/>
      <point x="-330" y="-830"/>
      <point x="-263" y="-536"/>
      <point x="-250" y="-426" type="curve" smooth="yes"/>
      <point x="-235" y="-299"/>
      <point x="-210" y="-212"/>
      <point x="-176" y="-140" type="curve"/>
      <point x="-281" y="-176"/>
      <point x="-389" y="-310"/>
      <point x="-406" y="-423" type="curve" smooth="yes"/>
      <point x="-417" y="-501"/>
      <point x="-449" y="-700"/>
      <point x="-495" y="-700" type="curve" smooth="yes"/>
      <point x="-513" y="-700"/>
      <point x="-536" y="-645"/>
      <point x="-551" y="-585" type="curve"/>
      <point x="-581" y="-624"/>
      <point x="-668" y="-700"/>
      <point x="-696" y="-700" type="curve" smooth="yes"/>
      <point x="-702" y="-700"/>
      <point x="-705" y="-698"/>
      <point x="-705" y="-693" type="curve" smooth="yes"/>
      <point x="-705" y="-677"/>
      <point x="-673" y="-642"/>
      <point x="-652" y="-609" type="curve" smooth="yes"/>
      <point x="-592" y="-515"/>
      <point x="-495" y="-363"/>
      <point x="-495" y="-250" type="curve" smooth="yes"/>
      <point x="-495" y="-189"/>
      <point x="-570" y="-150"/>
      <point x="-638" y="-150" type="curve" smooth="yes"/>
      <point x="-708" y="-150"/>
      <point x="-775" y="-186"/>
    </contour>
  </outline>
</glyph>
<glyph name="uni17BF.rightpart2" format="2">
  <advance width="728"/>
  <anchor x="483" y="-1236" name="L"/>
  <anchor x="483" y="2490" name="U"/>
  <outline>
    <contour>
      <point x="483" y="980" type="line" smooth="yes"/>
      <point x="483" y="1024"/>
      <point x="420" y="1053"/>
      <point x="339" y="1092" type="curve" smooth="yes"/>
      <point x="292" y="1114"/>
      <point x="246" y="1138"/>
      <point x="246" y="1193" type="curve" smooth="yes"/>
      <point x="246" y="1242"/>
      <point x="274" y="1282"/>
      <point x="310" y="1282" type="curve" smooth="yes"/>
      <point x="325" y="1282"/>
      <point x="352" y="1268"/>
      <point x="370" y="1253" type="curve"/>
      <point x="400" y="1231"/>
      <point x="438" y="1204"/>
      <point x="502" y="1204" type="curve" smooth="yes"/>
      <point x="600" y="1204"/>
      <point x="656" y="1257"/>
      <point x="656" y="1453" type="curve" smooth="yes"/>
      <point x="656" y="1610"/>
      <point x="528" y="1793"/>
      <point x="328" y="1793" type="curve" smooth="yes"/>
      <point x="260" y="1793"/>
      <point x="221" y="1767"/>
      <point x="221" y="1721" type="curve" smooth="yes"/>
      <point x="221" y="1654"/>
      <point x="295" y="1616"/>
      <point x="381" y="1589" type="curve" smooth="yes"/>
      <point x="475" y="1560"/>
      <point x="544" y="1519"/>
      <point x="544" y="1421" type="curve" smooth="yes"/>
      <point x="544" y="1385"/>
      <point x="540" y="1365"/>
      <point x="533" y="1365" type="curve" smooth="yes"/>
      <point x="525" y="1365"/>
      <point x="502" y="1381"/>
      <point x="479" y="1396" type="curve"/>
      <point x="449" y="1418"/>
      <point x="411" y="1440"/>
      <point x="359" y="1440" type="curve" smooth="yes"/>
      <point x="246" y="1440"/>
      <point x="123" y="1306"/>
      <point x="123" y="1189" type="curve" smooth="yes"/>
      <point x="123" y="1118"/>
      <point x="145" y="1063"/>
      <point x="227" y="1016" type="curve"/>
      <point x="260" y="1002"/>
      <point x="295" y="980"/>
      <point x="295" y="923" type="curve" smooth="yes"/>
      <point x="295" y="-1039" type="line" smooth="yes"/>
      <point x="295" y="-1088"/>
      <point x="127" y="-1124"/>
      <point x="25" y="-1124" type="curve" smooth="yes"/>
      <point x="-77" y="-1124"/>
      <point x="-245" y="-1088"/>
      <point x="-245" y="-1039" type="curve" smooth="yes"/>
      <point x="-245" y="-860" type="line"/>
      <point x="-433" y="-860" type="line"/>
      <point x="-433" y="-1049" type="line" smooth="yes"/>
      <point x="-433" y="-1151"/>
      <point x="-171" y="-1236"/>
      <point x="25" y="-1236" type="curve" smooth="yes"/>
      <point x="221" y="-1236"/>
      <point x="483" y="-1151"/>
      <point x="483" y="-1049" type="curve" smooth="yes"/>
    </contour>
    <contour>
      <point x="-234" y="1899" type="curve" smooth="yes"/>
      <point x="-90" y="1899"/>
      <point x="36" y="1871"/>
      <point x="138" y="1846" type="curve" smooth="yes"/>
      <point x="213" y="1827"/>
      <point x="272" y="1810"/>
      <point x="328" y="1810" type="curve" smooth="yes"/>
      <point x="358" y="1810"/>
      <point x="379" y="1822"/>
      <point x="402" y="1844" type="curve" smooth="yes"/>
      <point x="493" y="1933"/>
      <point x="568" y="2070"/>
      <point x="568" y="2216" type="curve" smooth="yes"/>
      <point x="568" y="2313"/>
      <point x="517" y="2406"/>
      <point x="425" y="2406" type="curve" smooth="yes"/>
      <point x="372" y="2406"/>
      <point x="342" y="2366"/>
      <point x="342" y="2316" type="curve" smooth="yes"/>
      <point x="342" y="2291"/>
      <point x="352" y="2272"/>
      <point x="370" y="2247" type="curve" smooth="yes"/>
      <point x="387" y="2224"/>
      <point x="396" y="2202"/>
      <point x="396" y="2170" type="curve" smooth="yes"/>
      <point x="396" y="2116"/>
      <point x="381" y="2059"/>
      <point x="353" y="1997" type="curve"/>
      <point x="319" y="2038"/>
      <point x="278" y="2077"/>
      <point x="233" y="2112" type="curve"/>
      <point x="257" y="2170"/>
      <point x="272" y="2235"/>
      <point x="272" y="2300" type="curve" smooth="yes"/>
      <point x="272" y="2397"/>
      <point x="222" y="2490"/>
      <point x="129" y="2490" type="curve" smooth="yes"/>
      <point x="76" y="2490"/>
      <point x="47" y="2449"/>
      <point x="47" y="2400" type="curve" smooth="yes"/>
      <point x="47" y="2374"/>
      <point x="56" y="2356"/>
      <point x="74" y="2331" type="curve" smooth="yes"/>
      <point x="92" y="2307"/>
      <point x="100" y="2286"/>
      <point x="100" y="2253" type="curve" smooth="yes"/>
      <point x="100" y="2236"/>
      <point x="99" y="2218"/>
      <point x="96" y="2200" type="curve"/>
      <point x="-4" y="2251"/>
      <point x="-111" y="2283"/>
      <point x="-204" y="2283" type="curve" smooth="yes"/>
      <point x="-409" y="2283"/>
      <point x="-598" y="2157"/>
      <point x="-598" y="2025" type="curve" smooth="yes"/>
      <point x="-598" y="1939"/>
      <point x="-537" y="1886"/>
      <point x="-447" y="1886" type="curve" smooth="yes"/>
      <point x="-385" y="1886"/>
      <point x="-294" y="1899"/>
    </contour>
    <contour>
      <point x="-215" y="2029" type="curve" smooth="yes"/>
      <point x="-277" y="2029"/>
      <point x="-303" y="2020"/>
      <point x="-361" y="2020" type="curve" smooth="yes"/>
      <point x="-386" y="2020"/>
      <point x="-401" y="2035"/>
      <point x="-401" y="2049" type="curve" smooth="yes"/>
      <point x="-401" y="2107"/>
      <point x="-293" y="2153"/>
      <point x="-204" y="2153" type="curve" smooth="yes"/>
      <point x="-72" y="2153"/>
      <point x="107" y="2048"/>
      <point x="175" y="1970" type="curve"/>
      <point x="114" y="1990"/>
      <point x="-62" y="2029"/>
    </contour>
  </outline>
</glyph>
<glyph name="uni17CC.ms.high" format="2">
  <outline>
    <contour>
      <point x="-934" y="1750" type="curve"/>
      <point x="-812" y="1806" type="line"/>
      <point x="-841" y="1895"/>
      <point x="-912" y="1934"/>
      <point x="-976" y="1956" type="curve"/>
      <point x="-1002" y="1963"/>
      <point x="-1028" y="1974"/>
      <point x="-1028" y="2002" type="curve" smooth="yes"/>
      <point x="-1028" y="2080"/>
      <point x="-950" y="2128"/>
      <point x="-872" y="2128" type="curve" smooth="yes"/>
      <point x="-833" y="2128"/>
      <point x="-773" y="2091"/>
      <point x="-725" y="2053" type="curve" smooth="yes"/>
      <point x="-665" y="2006"/>
      <point x="-579" y="1969"/>
      <point x="-486" y="1969" type="curve" smooth="yes"/>
      <point x="-293" y="1969"/>
      <point x="-239" y="2144"/>
      <point x="-239" y="2219" type="curve" smooth="yes"/>
      <point x="-239" y="2249"/>
      <point x="-256" y="2306"/>
      <point x="-328" y="2306" type="curve" smooth="yes"/>
      <point x="-379" y="2306"/>
      <point x="-409" y="2264"/>
      <point x="-409" y="2234" type="curve" smooth="yes"/>
      <point x="-409" y="2181"/>
      <point x="-435" y="2099"/>
      <point x="-486" y="2099" type="curve" smooth="yes"/>
      <point x="-522" y="2099"/>
      <point x="-567" y="2128"/>
      <point x="-616" y="2166" type="curve" smooth="yes"/>
      <point x="-672" y="2210"/>
      <point x="-751" y="2268"/>
      <point x="-859" y="2268" type="curve" smooth="yes"/>
      <point x="-1084" y="2268"/>
      <point x="-1198" y="2110"/>
      <point x="-1198" y="2002" type="curve" smooth="yes"/>
      <point x="-1198" y="1888"/>
      <point x="-1127" y="1870"/>
      <point x="-1051" y="1847" type="curve" smooth="yes"/>
      <point x="-1006" y="1833"/>
      <point x="-958" y="1806"/>
    </contour>
  </outline>
</glyph>
<glyph name="uni17CC.ms.high2" format="2">
  <outline>
    <contour>
      <point x="-934" y="2110" type="curve"/>
      <point x="-812" y="2166" type="line"/>
      <point x="-841" y="2255"/>
      <point x="-912" y="2294"/>
      <point x="-976" y="2316" type="curve"/>
      <point x="-1002" y="2323"/>
      <point x="-1028" y="2334"/>
      <point x="-1028" y="2362" type="curve"/>
      <point x="-1028" y="2440"/>
      <point x="-950" y="2488"/>
      <point x="-872" y="2488" type="curve"/>
      <point x="-833" y="2488"/>
      <point x="-773" y="2451"/>
      <point x="-725" y="2413" type="curve" smooth="yes"/>
      <point x="-665" y="2366"/>
      <point x="-579" y="2329"/>
      <point x="-486" y="2329" type="curve"/>
      <point x="-293" y="2329"/>
      <point x="-239" y="2504"/>
      <point x="-239" y="2579" type="curve"/>
      <point x="-239" y="2609"/>
      <point x="-256" y="2666"/>
      <point x="-328" y="2666" type="curve"/>
      <point x="-379" y="2666"/>
      <point x="-409" y="2624"/>
      <point x="-409" y="2594" type="curve"/>
      <point x="-409" y="2541"/>
      <point x="-435" y="2459"/>
      <point x="-486" y="2459" type="curve"/>
      <point x="-522" y="2459"/>
      <point x="-567" y="2488"/>
      <point x="-616" y="2526" type="curve" smooth="yes"/>
      <point x="-672" y="2570"/>
      <point x="-751" y="2628"/>
      <point x="-859" y="2628" type="curve"/>
      <point x="-1084" y="2628"/>
      <point x="-1198" y="2470"/>
      <point x="-1198" y="2362" type="curve"/>
      <point x="-1198" y="2248"/>
      <point x="-1127" y="2230"/>
      <point x="-1051" y="2207" type="curve"/>
      <point x="-1006" y="2193"/>
      <point x="-958" y="2166"/>
    </contour>
  </outline>
</glyph>
<glyph name="uni17CE.avowel" format="2">
  <anchor x="-245" y="2560" name="U"/>
  <anchor x="-699" y="2050" name="_um"/>
  <anchor x="-699" y="2510" name="um"/>
  <outline>
    <contour>
      <point x="-930" y="2268" type="line"/>
      <point x="-783" y="2268" type="line"/>
      <point x="-783" y="2130" type="line"/>
      <point x="-615" y="2130" type="line"/>
      <point x="-615" y="2268" type="line"/>
      <point x="-468" y="2268" type="line"/>
      <point x="-468" y="2423" type="line"/>
      <point x="-615" y="2423" type="line"/>
      <point x="-615" y="2560" type="line"/>
      <point x="-783" y="2560" type="line"/>
      <point x="-783" y="2423" type="line"/>
      <point x="-930" y="2423" type="line"/>
    </contour>
  </outline>
</glyph>
<glyph name="uni17D0.ms.high2" format="2">
  <outline>
    <contour>
      <point x="-262" y="2460" type="curve" smooth="yes"/>
      <point x="-262" y="2535"/>
      <point x="-345" y="2557"/>
      <point x="-394" y="2557" type="curve"/>
      <point x="-494" y="2557"/>
      <point x="-562" y="2496"/>
      <point x="-562" y="2406" type="curve"/>
      <point x="-562" y="2271"/>
      <point x="-454" y="2110"/>
      <point x="-243" y="2110" type="curve"/>
      <point x="-11" y="2110"/>
      <point x="187" y="2260"/>
      <point x="187" y="2542" type="curve"/>
      <point x="187" y="2599"/>
      <point x="172" y="2658"/>
      <point x="128" y="2711" type="curve"/>
      <point x="86" y="2760"/>
      <point x="26" y="2786"/>
      <point x="-49" y="2786" type="curve"/>
      <point x="-86" y="2786"/>
      <point x="-124" y="2760"/>
      <point x="-124" y="2722" type="curve"/>
      <point x="-124" y="2688"/>
      <point x="-100" y="2647"/>
      <point x="-33" y="2613" type="curve"/>
      <point x="19" y="2583"/>
      <point x="29" y="2542"/>
      <point x="29" y="2492" type="curve"/>
      <point x="29" y="2425"/>
      <point x="4" y="2357"/>
      <point x="-35" y="2316" type="curve"/>
      <point x="-94" y="2253"/>
      <point x="-164" y="2222"/>
      <point x="-243" y="2222" type="curve"/>
      <point x="-319" y="2222"/>
      <point x="-384" y="2291"/>
      <point x="-384" y="2346" type="curve"/>
      <point x="-323" y="2353"/>
      <point x="-262" y="2400"/>
    </contour>
  </outline>
</glyph>
<glyph name="uni17D1.ms.narrowhigh" format="2">
  <outline>
    <contour>
      <point x="-696" y="1880" type="line"/>
      <point x="-74" y="1880" type="line"/>
      <point x="-74" y="2050" type="line"/>
      <point x="-696" y="2050" type="line"/>
    </contour>
  </outline>
</glyph>
<glyph name="uni17D21781.low" format="2">
  <guideline y="-768"/>
  <anchor x="-245" y="-1225" name="L"/>
  <anchor x="-245" y="-710" name="_L"/>
  <anchor x="-639" y="-710" name="_lm"/>
  <anchor x="-639" y="-1225" name="lm"/>
  <outline>
    <contour>
      <point x="-1033" y="-920" type="curve" smooth="yes"/>
      <point x="-1033" y="-962"/>
      <point x="-1008" y="-981"/>
      <point x="-972" y="-995" type="curve"/>
      <point x="-940" y="-1011"/>
      <point x="-896" y="-1016"/>
      <point x="-843" y="-1016" type="curve" smooth="yes"/>
      <point x="-781" y="-1016"/>
      <point x="-725" y="-992"/>
      <point x="-725" y="-967" type="curve" smooth="yes"/>
      <point x="-725" y="-947"/>
      <point x="-750" y="-922"/>
      <point x="-810" y="-922" type="curve" smooth="yes"/>
      <point x="-839" y="-922"/>
      <point x="-853" y="-925"/>
      <point x="-876" y="-934" type="curve"/>
      <point x="-879" y="-932"/>
      <point x="-883" y="-928"/>
      <point x="-883" y="-920" type="curve" smooth="yes"/>
      <point x="-883" y="-901"/>
      <point x="-782" y="-868"/>
      <point x="-639" y="-868" type="curve" smooth="yes"/>
      <point x="-474" y="-868"/>
      <point x="-395" y="-898"/>
      <point x="-395" y="-917" type="curve" smooth="yes"/>
      <point x="-395" y="-978"/>
      <point x="-942" y="-1075"/>
      <point x="-1033" y="-1089" type="curve"/>
      <point x="-1033" y="-1195"/>
      <point x="-901" y="-1225"/>
      <point x="-680" y="-1225" type="curve" smooth="yes"/>
      <point x="-388" y="-1225"/>
      <point x="-245" y="-1195"/>
      <point x="-245" y="-1102" type="curve" smooth="yes"/>
      <point x="-245" y="-1069"/>
      <point x="-298" y="-1038"/>
      <point x="-377" y="-1025" type="curve"/>
      <point x="-364" y="-1036"/>
      <point x="-357" y="-1062"/>
      <point x="-357" y="-1083" type="curve" smooth="yes"/>
      <point x="-357" y="-1125"/>
      <point x="-518" y="-1147"/>
      <point x="-621" y="-1147" type="curve" smooth="yes"/>
      <point x="-789" y="-1147"/>
      <point x="-861" y="-1135"/>
      <point x="-861" y="-1132" type="curve"/>
      <point x="-767" y="-1119"/>
      <point x="-628" y="-1094"/>
      <point x="-514" y="-1064" type="curve" smooth="yes"/>
      <point x="-403" y="-1036"/>
      <point x="-245" y="-989"/>
      <point x="-245" y="-908" type="curve" smooth="yes"/>
      <point x="-245" y="-841"/>
      <point x="-392" y="-790"/>
      <point x="-639" y="-790" type="curve" smooth="yes"/>
      <point x="-886" y="-790"/>
      <point x="-1033" y="-853"/>
    </contour>
  </outline>
</glyph>
<glyph name="uni17D21783.low.alt" format="2">
  <advance width="728"/>
  <anchor x="483" y="-1225" name="L"/>
  <anchor x="483" y="1440" name="U"/>
  <anchor x="389" y="1440" name="um"/>
  <outline>
    <contour>
      <point x="295" y="923" type="curve"/>
      <point x="295" y="-1030" type="line" smooth="yes"/>
      <point x="295" y="-1078"/>
      <point x="224" y="-1113"/>
      <point x="123" y="-1113" type="curve" smooth="yes"/>
      <point x="22" y="-1113"/>
      <point x="-49" y="-1078"/>
      <point x="-49" y="-1030" type="curve" smooth="yes"/>
      <point x="-49" y="-790" type="line"/>
      <point x="-217" y="-790" type="line"/>
      <point x="-217" y="-1030" type="line" smooth="yes"/>
      <point x="-217" y="-1078"/>
      <point x="-288" y="-1113"/>
      <point x="-389" y="-1113" type="curve" smooth="yes"/>
      <point x="-490" y="-1113"/>
      <point x="-561" y="-1078"/>
      <point x="-561" y="-1030" type="curve" smooth="yes"/>
      <point x="-561" y="-869" type="line"/>
      <point x="-573" y="-808"/>
      <point x="-646" y="-790"/>
      <point x="-714" y="-790" type="curve"/>
      <point x="-796" y="-808"/>
      <point x="-860" y="-830"/>
      <point x="-860" y="-906" type="curve" smooth="yes"/>
      <point x="-860" y="-947"/>
      <point x="-821" y="-1012"/>
      <point x="-729" y="-1015" type="curve"/>
      <point x="-729" y="-1038" type="line" smooth="yes"/>
      <point x="-729" y="-1138"/>
      <point x="-585" y="-1225"/>
      <point x="-389" y="-1225" type="curve" smooth="yes"/>
      <point x="-280" y="-1225"/>
      <point x="-193" y="-1199"/>
      <point x="-133" y="-1153" type="curve"/>
      <point x="-50" y="-1199"/>
      <point x="10" y="-1225"/>
      <point x="123" y="-1225" type="curve" smooth="yes"/>
      <point x="319" y="-1225"/>
      <point x="483" y="-1138"/>
      <point x="483" y="-1038" type="curve" smooth="yes"/>
      <point x="483" y="980" type="line" smooth="yes"/>
      <point x="483" y="1024"/>
      <point x="420" y="1054"/>
      <point x="341" y="1092" type="curve" smooth="yes"/>
      <point x="293" y="1115"/>
      <point x="245" y="1138"/>
      <point x="245" y="1193" type="curve" smooth="yes"/>
      <point x="245" y="1242"/>
      <point x="273" y="1282"/>
      <point x="309" y="1282" type="curve" smooth="yes"/>
      <point x="320" y="1282"/>
      <point x="341" y="1276"/>
      <point x="371" y="1253" type="curve" smooth="yes"/>
      <point x="399" y="1231"/>
      <point x="438" y="1204"/>
      <point x="502" y="1204" type="curve" smooth="yes"/>
      <point x="599" y="1204"/>
      <point x="652" y="1257"/>
      <point x="656" y="1374" type="curve"/>
      <point x="633" y="1354"/>
      <point x="610" y="1346"/>
      <point x="595" y="1346" type="curve" smooth="yes"/>
      <point x="554" y="1346"/>
      <point x="513" y="1370"/>
      <point x="475" y="1396" type="curve" smooth="yes"/>
      <point x="441" y="1418"/>
      <point x="407" y="1440"/>
      <point x="359" y="1440" type="curve" smooth="yes"/>
      <point x="245" y="1440"/>
      <point x="122" y="1306"/>
      <point x="122" y="1189" type="curve" smooth="yes"/>
      <point x="122" y="1118"/>
      <point x="145" y="1063"/>
      <point x="227" y="1016" type="curve"/>
      <point x="262" y="1002"/>
      <point x="295" y="980"/>
    </contour>
    <contour>
      <point x="-760" y="-908" type="curve" smooth="yes"/>
      <point x="-760" y="-891"/>
      <point x="-746" y="-883"/>
      <point x="-724" y="-876" type="curve"/>
      <point x="-724" y="-936" type="line"/>
      <point x="-750" y="-933"/>
      <point x="-760" y="-921"/>
    </contour>
  </outline>
</glyph>
<glyph name="uni17D2178317B6.alt" format="2">
  <advance width="1456"/>
  <anchor x="483" y="-710" name="L"/>
  <anchor x="1211" y="0" name="L2"/>
  <anchor x="1211" y="1440" name="U"/>
  <anchor x="753" y="1440" name="um"/>
  <anchor x="753" y="1440" name="um2"/>
  <outline>
    <contour>
      <point x="295" y="923" type="curve"/>
      <point x="295" y="-515" type="line" smooth="yes"/>
      <point x="295" y="-564"/>
      <point x="222" y="-598"/>
      <point x="123" y="-598" type="curve" smooth="yes"/>
      <point x="25" y="-598"/>
      <point x="-49" y="-564"/>
      <point x="-49" y="-515" type="curve" smooth="yes"/>
      <point x="-49" y="-150" type="line"/>
      <point x="-217" y="-150" type="line"/>
      <point x="-217" y="-515" type="line" smooth="yes"/>
      <point x="-217" y="-564"/>
      <point x="-291" y="-598"/>
      <point x="-389" y="-598" type="curve" smooth="yes"/>
      <point x="-488" y="-598"/>
      <point x="-561" y="-564"/>
      <point x="-561" y="-515" type="curve" smooth="yes"/>
      <point x="-561" y="-229" type="line"/>
      <point x="-573" y="-167"/>
      <point x="-646" y="-150"/>
      <point x="-714" y="-150" type="curve"/>
      <point x="-796" y="-167"/>
      <point x="-860" y="-189"/>
      <point x="-860" y="-265" type="curve" smooth="yes"/>
      <point x="-860" y="-306"/>
      <point x="-821" y="-371"/>
      <point x="-729" y="-374" type="curve"/>
      <point x="-729" y="-523" type="line" smooth="yes"/>
      <point x="-729" y="-623"/>
      <point x="-585" y="-710"/>
      <point x="-389" y="-710" type="curve" smooth="yes"/>
      <point x="-280" y="-710"/>
      <point x="-193" y="-685"/>
      <point x="-133" y="-638" type="curve"/>
      <point x="-50" y="-685"/>
      <point x="10" y="-710"/>
      <point x="123" y="-710" type="curve" smooth="yes"/>
      <point x="319" y="-710"/>
      <point x="483" y="-623"/>
      <point x="483" y="-523" type="curve" smooth="yes"/>
      <point x="483" y="980" type="line" smooth="yes"/>
      <point x="483" y="1024"/>
      <point x="418" y="1054"/>
      <point x="340" y="1091" type="curve" smooth="yes"/>
      <point x="292" y="1114"/>
      <point x="246" y="1138"/>
      <point x="246" y="1193" type="curve" smooth="yes"/>
      <point x="246" y="1222"/>
      <point x="279" y="1328"/>
      <point x="623" y="1328" type="curve" smooth="yes"/>
      <point x="898" y="1328"/>
      <point x="1023" y="1208"/>
      <point x="1023" y="1145" type="curve" smooth="yes"/>
      <point x="1023" y="0" type="line"/>
      <point x="1211" y="0" type="line"/>
      <point x="1211" y="1163" type="line" smooth="yes"/>
      <point x="1211" y="1264"/>
      <point x="966" y="1440"/>
      <point x="641" y="1440" type="curve" smooth="yes"/>
      <point x="282" y="1440"/>
      <point x="123" y="1326"/>
      <point x="123" y="1189" type="curve" smooth="yes"/>
      <point x="123" y="1118"/>
      <point x="144" y="1063"/>
      <point x="227" y="1016" type="curve"/>
      <point x="259" y="1002"/>
      <point x="295" y="980"/>
    </contour>
    <contour>
      <point x="-760" y="-268" type="curve" smooth="yes"/>
      <point x="-760" y="-250"/>
      <point x="-746" y="-242"/>
      <point x="-724" y="-235" type="curve"/>
      <point x="-724" y="-296" type="line"/>
      <point x="-750" y="-293"/>
      <point x="-760" y="-281"/>
    </contour>
  </outline>
</glyph>
<glyph name="uni17D2178317C5.rightlow.alt" format="2">
  <advance width="1456"/>
  <anchor x="483" y="-1225" name="L"/>
  <anchor x="1211" y="0" name="L2"/>
  <anchor x="1211" y="1922" name="U"/>
  <anchor x="753" y="1922" name="um"/>
  <anchor x="753" y="1922" name="um2"/>
  <outline>
    <contour>
      <point x="295" y="923" type="curve" smooth="yes"/>
      <point x="295" y="-1030" type="line" smooth="yes"/>
      <point x="295" y="-1078"/>
      <point x="224" y="-1113"/>
      <point x="123" y="-1113" type="curve" smooth="yes"/>
      <point x="22" y="-1113"/>
      <point x="-49" y="-1078"/>
      <point x="-49" y="-1030" type="curve" smooth="yes"/>
      <point x="-49" y="-790" type="line"/>
      <point x="-217" y="-790" type="line"/>
      <point x="-217" y="-1030" type="line" smooth="yes"/>
      <point x="-217" y="-1078"/>
      <point x="-288" y="-1113"/>
      <point x="-389" y="-1113" type="curve" smooth="yes"/>
      <point x="-490" y="-1113"/>
      <point x="-561" y="-1078"/>
      <point x="-561" y="-1030" type="curve" smooth="yes"/>
      <point x="-561" y="-869" type="line"/>
      <point x="-573" y="-808"/>
      <point x="-646" y="-790"/>
      <point x="-714" y="-790" type="curve"/>
      <point x="-796" y="-808"/>
      <point x="-860" y="-830"/>
      <point x="-860" y="-906" type="curve" smooth="yes"/>
      <point x="-860" y="-947"/>
      <point x="-821" y="-1012"/>
      <point x="-729" y="-1015" type="curve"/>
      <point x="-729" y="-1038" type="line" smooth="yes"/>
      <point x="-729" y="-1138"/>
      <point x="-585" y="-1225"/>
      <point x="-389" y="-1225" type="curve" smooth="yes"/>
      <point x="-280" y="-1225"/>
      <point x="-193" y="-1199"/>
      <point x="-133" y="-1153" type="curve"/>
      <point x="-50" y="-1199"/>
      <point x="10" y="-1225"/>
      <point x="123" y="-1225" type="curve" smooth="yes"/>
      <point x="319" y="-1225"/>
      <point x="483" y="-1138"/>
      <point x="483" y="-1038" type="curve" smooth="yes"/>
      <point x="483" y="980" type="line" smooth="yes"/>
      <point x="483" y="1024"/>
      <point x="418" y="1054"/>
      <point x="340" y="1091" type="curve" smooth="yes"/>
      <point x="292" y="1114"/>
      <point x="246" y="1138"/>
      <point x="246" y="1193" type="curve" smooth="yes"/>
      <point x="246" y="1222"/>
      <point x="279" y="1328"/>
      <point x="623" y="1328" type="curve" smooth="yes"/>
      <point x="898" y="1328"/>
      <point x="1023" y="1208"/>
      <point x="1023" y="1145" type="curve" smooth="yes"/>
      <point x="1023" y="0" type="line"/>
      <point x="1211" y="0" type="line"/>
      <point x="1211" y="1163" type="line" smooth="yes"/>
      <point x="1211" y="1201"/>
      <point x="1177" y="1248"/>
      <point x="1117" y="1293" type="curve"/>
      <point x="1181" y="1394"/>
      <point x="1211" y="1508"/>
      <point x="1211" y="1610" type="curve" smooth="yes"/>
      <point x="1211" y="1704"/>
      <point x="1182" y="1800"/>
      <point x="1070" y="1894" type="curve" smooth="yes"/>
      <point x="1047" y="1913"/>
      <point x="1010" y="1922"/>
      <point x="986" y="1922" type="curve" smooth="yes"/>
      <point x="928" y="1922"/>
      <point x="878" y="1898"/>
      <point x="878" y="1834" type="curve" smooth="yes"/>
      <point x="878" y="1794"/>
      <point x="889" y="1772"/>
      <point x="924" y="1740" type="curve"/>
      <point x="992" y="1689"/>
      <point x="1011" y="1614"/>
      <point x="1011" y="1538" type="curve" smooth="yes"/>
      <point x="1011" y="1476"/>
      <point x="992" y="1405"/>
      <point x="975" y="1374" type="curve"/>
      <point x="882" y="1413"/>
      <point x="768" y="1440"/>
      <point x="641" y="1440" type="curve" smooth="yes"/>
      <point x="282" y="1440"/>
      <point x="123" y="1326"/>
      <point x="123" y="1189" type="curve" smooth="yes"/>
      <point x="123" y="1118"/>
      <point x="144" y="1063"/>
      <point x="227" y="1016" type="curve"/>
      <point x="259" y="1002"/>
      <point x="295" y="980"/>
    </contour>
    <contour>
      <point x="-760" y="-908" type="curve" smooth="yes"/>
      <point x="-760" y="-891"/>
      <point x="-746" y="-883"/>
      <point x="-724" y="-876" type="curve"/>
      <point x="-724" y="-936" type="line"/>
      <point x="-750" y="-933"/>
      <point x="-760" y="-921"/>
    </contour>
  </outline>
</glyph>
<glyph name="uni17D21786.low" format="2">
  <anchor x="-245" y="-1225" name="L"/>
  <anchor x="-245" y="-710" name="_L"/>
  <anchor x="-685" y="-710" name="_lm"/>
  <anchor x="-685" y="-1225" name="lm"/>
  <outline>
    <contour>
      <point x="-1164" y="-1091" type="curve" smooth="yes"/>
      <point x="-1164" y="-1167"/>
      <point x="-1089" y="-1225"/>
      <point x="-991" y="-1225" type="curve"/>
      <point x="-912" y="-1225"/>
      <point x="-861" y="-1175"/>
      <point x="-842" y="-1139" type="curve"/>
      <point x="-767" y="-1185"/>
      <point x="-654" y="-1225"/>
      <point x="-553" y="-1225" type="curve"/>
      <point x="-350" y="-1225"/>
      <point x="-245" y="-1123"/>
      <point x="-245" y="-1011" type="curve"/>
      <point x="-245" y="-934"/>
      <point x="-265" y="-865"/>
      <point x="-333" y="-815" type="curve" smooth="yes"/>
      <point x="-359" y="-796"/>
      <point x="-398" y="-790"/>
      <point x="-442" y="-790" type="curve"/>
      <point x="-474" y="-790"/>
      <point x="-497" y="-794"/>
      <point x="-525" y="-805" type="curve"/>
      <point x="-568" y="-828"/>
      <point x="-587" y="-859"/>
      <point x="-587" y="-904" type="curve"/>
      <point x="-587" y="-969"/>
      <point x="-532" y="-1011"/>
      <point x="-433" y="-1011" type="curve"/>
      <point x="-391" y="-1011" type="line"/>
      <point x="-388" y="-1016"/>
      <point x="-386" y="-1025"/>
      <point x="-386" y="-1038" type="curve"/>
      <point x="-386" y="-1064"/>
      <point x="-443" y="-1113"/>
      <point x="-542" y="-1113" type="curve"/>
      <point x="-635" y="-1113"/>
      <point x="-754" y="-1063"/>
      <point x="-825" y="-1017" type="curve"/>
      <point x="-829" y="-944"/>
      <point x="-906" y="-790"/>
      <point x="-1018" y="-790" type="curve"/>
      <point x="-1086" y="-790"/>
      <point x="-1126" y="-816"/>
      <point x="-1126" y="-865" type="curve"/>
      <point x="-1126" y="-918"/>
      <point x="-1079" y="-936"/>
      <point x="-1004" y="-940" type="curve"/>
      <point x="-989" y="-940"/>
      <point x="-980" y="-949"/>
      <point x="-980" y="-955" type="curve"/>
      <point x="-1119" y="-955"/>
      <point x="-1164" y="-1021"/>
    </contour>
    <contour>
      <point x="-402" y="-932" type="curve"/>
      <point x="-427" y="-932" type="line"/>
      <point x="-450" y="-932"/>
      <point x="-470" y="-918"/>
      <point x="-470" y="-897" type="curve" smooth="yes"/>
      <point x="-470" y="-880"/>
      <point x="-459" y="-868"/>
      <point x="-438" y="-868" type="curve"/>
      <point x="-416" y="-868"/>
      <point x="-408" y="-894"/>
    </contour>
    <contour>
      <point x="-1023" y="-1090" type="curve" smooth="yes"/>
      <point x="-1023" y="-1075"/>
      <point x="-1010" y="-1062"/>
      <point x="-995" y="-1062" type="curve" smooth="yes"/>
      <point x="-980" y="-1062"/>
      <point x="-967" y="-1075"/>
      <point x="-967" y="-1090" type="curve" smooth="yes"/>
      <point x="-967" y="-1105"/>
      <point x="-980" y="-1118"/>
      <point x="-995" y="-1118" type="curve" smooth="yes"/>
      <point x="-1010" y="-1118"/>
      <point x="-1023" y="-1105"/>
    </contour>
  </outline>
</glyph>
<glyph name="uni17D2178817B6.low" format="2">
  <advance width="1456"/>
  <anchor x="483" y="-1225" name="L"/>
  <anchor x="1211" y="0" name="L2"/>
  <anchor x="1211" y="1440" name="U"/>
  <anchor x="753" y="1440" name="um"/>
  <anchor x="753" y="1440" name="um2"/>
  <outline>
    <contour>
      <point x="295" y="-1030" type="line"/>
      <point x="295" y="-1079"/>
      <point x="220" y="-1113"/>
      <point x="121" y="-1113" type="curve" smooth="yes"/>
      <point x="13" y="-1113"/>
      <point x="-49" y="-1072"/>
      <point x="-49" y="-1038" type="curve"/>
      <point x="-49" y="-1026"/>
      <point x="-62" y="-1013"/>
      <point x="-137" y="-988" type="curve"/>
      <point x="-177" y="-975"/>
      <point x="-213" y="-966"/>
      <point x="-213" y="-948" type="curve" smooth="yes"/>
      <point x="-213" y="-935"/>
      <point x="-196" y="-925"/>
      <point x="-170" y="-925" type="curve" smooth="yes"/>
      <point x="-124" y="-925"/>
      <point x="-110" y="-966"/>
      <point x="-70" y="-966" type="curve" smooth="yes"/>
      <point x="-9" y="-966"/>
      <point x="40" y="-908"/>
      <point x="51" y="-823" type="curve"/>
      <point x="24" y="-842"/>
      <point x="-6" y="-851"/>
      <point x="-20" y="-851" type="curve" smooth="yes"/>
      <point x="-66" y="-851"/>
      <point x="-102" y="-790"/>
      <point x="-164" y="-790" type="curve" smooth="yes"/>
      <point x="-268" y="-790"/>
      <point x="-313" y="-872"/>
      <point x="-313" y="-929" type="curve" smooth="yes"/>
      <point x="-313" y="-978"/>
      <point x="-292" y="-1002"/>
      <point x="-245" y="-1028" type="curve"/>
      <point x="-235" y="-1035"/>
      <point x="-222" y="-1041"/>
      <point x="-222" y="-1052" type="curve" smooth="yes"/>
      <point x="-222" y="-1068"/>
      <point x="-268" y="-1113"/>
      <point x="-345" y="-1113" type="curve" smooth="yes"/>
      <point x="-409" y="-1113"/>
      <point x="-473" y="-1079"/>
      <point x="-473" y="-1030" type="curve" smooth="yes"/>
      <point x="-473" y="-977" type="line" smooth="yes"/>
      <point x="-473" y="-877"/>
      <point x="-573" y="-790"/>
      <point x="-769" y="-790" type="curve" smooth="yes"/>
      <point x="-965" y="-790"/>
      <point x="-1065" y="-877"/>
      <point x="-1065" y="-977" type="curve" smooth="yes"/>
      <point x="-1065" y="-1146" type="line"/>
      <point x="-1054" y="-1206"/>
      <point x="-979" y="-1225"/>
      <point x="-912" y="-1225" type="curve"/>
      <point x="-829" y="-1206"/>
      <point x="-765" y="-1184"/>
      <point x="-765" y="-1108" type="curve" smooth="yes"/>
      <point x="-765" y="-1067"/>
      <point x="-804" y="-1003"/>
      <point x="-897" y="-1000" type="curve"/>
      <point x="-897" y="-983" type="line" smooth="yes"/>
      <point x="-897" y="-934"/>
      <point x="-833" y="-902"/>
      <point x="-769" y="-902" type="curve" smooth="yes"/>
      <point x="-705" y="-902"/>
      <point x="-641" y="-934"/>
      <point x="-641" y="-983" type="curve" smooth="yes"/>
      <point x="-641" y="-1038" type="line" smooth="yes"/>
      <point x="-641" y="-1138"/>
      <point x="-547" y="-1225"/>
      <point x="-345" y="-1225" type="curve" smooth="yes"/>
      <point x="-248" y="-1225"/>
      <point x="-177" y="-1204"/>
      <point x="-133" y="-1166" type="curve"/>
      <point x="-56" y="-1203"/>
      <point x="10" y="-1225"/>
      <point x="123" y="-1225" type="curve" smooth="yes"/>
      <point x="320" y="-1225"/>
      <point x="483" y="-1136"/>
      <point x="483" y="-1038" type="curve" smooth="yes"/>
      <point x="483" y="980" type="line" smooth="yes"/>
      <point x="483" y="1024"/>
      <point x="418" y="1054"/>
      <point x="340" y="1091" type="curve" smooth="yes"/>
      <point x="292" y="1114"/>
      <point x="246" y="1138"/>
      <point x="246" y="1193" type="curve" smooth="yes"/>
      <point x="246" y="1222"/>
      <point x="279" y="1328"/>
      <point x="623" y="1328" type="curve" smooth="yes"/>
      <point x="898" y="1328"/>
      <point x="1023" y="1208"/>
      <point x="1023" y="1145" type="curve" smooth="yes"/>
      <point x="1023" y="0" type="line"/>
      <point x="1211" y="0" type="line"/>
      <point x="1211" y="1163" type="line" smooth="yes"/>
      <point x="1211" y="1264"/>
      <point x="966" y="1440"/>
      <point x="641" y="1440" type="curve" smooth="yes"/>
      <point x="282" y="1440"/>
      <point x="123" y="1326"/>
      <point x="123" y="1189" type="curve" smooth="yes"/>
      <point x="123" y="1118"/>
      <point x="144" y="1063"/>
      <point x="227" y="1016" type="curve"/>
      <point x="259" y="1002"/>
      <point x="295" y="980"/>
      <point x="295" y="923" type="curve" smooth="yes"/>
    </contour>
    <contour>
      <point x="-859" y="-1105" type="curve" smooth="yes"/>
      <point x="-859" y="-1123"/>
      <point x="-874" y="-1133"/>
      <point x="-897" y="-1140" type="curve"/>
      <point x="-897" y="-1078" type="line"/>
      <point x="-870" y="-1081"/>
      <point x="-859" y="-1093"/>
    </contour>
  </outline>
</glyph>
<glyph name="uni17D2178A.low" format="2">
  <anchor x="-245" y="-1225" name="L"/>
  <anchor x="-245" y="-710" name="_L"/>
  <anchor x="-639" y="-710" name="_lm"/>
  <anchor x="-639" y="-1225" name="lm"/>
  <outline>
    <contour>
      <point x="-1033" y="-1183" type="line"/>
      <point x="-1008" y="-1212"/>
      <point x="-947" y="-1225"/>
      <point x="-880" y="-1225" type="curve"/>
      <point x="-722" y="-1209"/>
      <point x="-639" y="-1137"/>
      <point x="-639" y="-1097" type="curve" smooth="yes"/>
      <point x="-639" y="-1032"/>
      <point x="-741" y="-996"/>
      <point x="-865" y="-990" type="curve"/>
      <point x="-865" y="-954"/>
      <point x="-725" y="-902"/>
      <point x="-639" y="-902" type="curve" smooth="yes"/>
      <point x="-553" y="-902"/>
      <point x="-413" y="-933"/>
      <point x="-413" y="-990" type="curve" smooth="yes"/>
      <point x="-413" y="-1225" type="line"/>
      <point x="-245" y="-1225" type="line"/>
      <point x="-245" y="-976" type="line" smooth="yes"/>
      <point x="-245" y="-876"/>
      <point x="-443" y="-790"/>
      <point x="-639" y="-790" type="curve" smooth="yes"/>
      <point x="-835" y="-790"/>
      <point x="-1033" y="-876"/>
      <point x="-1033" y="-976" type="curve" smooth="yes"/>
    </contour>
    <contour>
      <point x="-771" y="-1095" type="curve" smooth="yes"/>
      <point x="-771" y="-1126"/>
      <point x="-812" y="-1139"/>
      <point x="-865" y="-1151" type="curve"/>
      <point x="-865" y="-1054" type="line"/>
      <point x="-816" y="-1058"/>
      <point x="-771" y="-1073"/>
    </contour>
  </outline>
</glyph>
